<svg xmlns="http://www.w3.org/2000/svg" width="1024" height="1024" style="shape-rendering:geometricPrecision;text-rendering:geometricPrecision;image-rendering:optimizeQuality;fill-rule:evenodd;clip-rule:evenodd"><path fill="#0a0a0a" d="M-.5-.5h1024v1024H-.5z" style="opacity:1"/><path fill="#fcfcfc" d="M596.5 85.5q.377 26.726-1 54.5a363 363 0 0 0 4 26.5q-.666 6.669 5 10 1 0 1 1a2.43 2.43 0 0 0 .5 2q11.031 13.434 28.5 14 32.098-.973 63.5 2-.327 168.996-1 338-3.098 18.208-17 30a8.4 8.4 0 0 0-.5 4 4.93 4.93 0 0 0-3 .5 33.8 33.8 0 0 1-5 6 94.3 94.3 0 0 0-16 9 41.5 41.5 0 0 1-14 3 6414 6414 0 0 1-265-1q-40.103-8.101-51.5-47.5a18158 18158 0 0 1-1-378q-5.454-55.023 46.5-73.5a7350 7350 0 0 1 226-.5" style="opacity:1"/><path fill="#72dae5" d="M596.5 85.5q10.167.973 19 6.5a1152 1152 0 0 1 29 27.5h-2a895 895 0 0 1-27-24.5 88 88 0 0 0-11-6q-2.418-1.08-4.5.5a2836 2836 0 0 1-1.5 57q-.107 10.325 3 20h-2a363 363 0 0 1-4-26.5q1.377-27.774 1-54.5" style="opacity:1"/><path fill="#37424a" d="M642.5 119.5h2q8.605 6.537 13 15a159 159 0 0 0-15-15" style="opacity:1"/><path fill="#0a0a0a" d="M497.5 121.5q38.298-2.658 64.5 25 7.923 10.848 11 24 1 50.5 0 101-4.792 30.768-29.5 49.5-15.874 9.577-34.5 8.5-42.133-1.06-58-40a124 124 0 0 1-5-17q-1-49.5 0-99 11.01-40.76 51.5-52" style="opacity:1"/><path fill="#0b0b0b" d="M379.5 126.5q38.029-2.72 35.5 35-7.8 24.538-33.5 20.5-25.66-10.053-20.5-37.5 6.116-12.368 18.5-18" style="opacity:1"/><path fill="#73e3ee" d="m654.5 144.5-1 2q-3.615-3.438-8.5-5a18.1 18.1 0 0 0-4.5 4 196 196 0 0 0-3-11q-10.99-3.256-13 8-1.442-2.647-1-6a45.5 45.5 0 0 0 6-5.5 16.24 16.24 0 0 1 8 0 49.3 49.3 0 0 1 5 8q7.795-.815 12 5.5" style="opacity:1"/><path fill="#fbfdfe" d="M653.5 146.5q1.1 1.812 1 4a62.2 62.2 0 0 1-9 12q-5.807.473-11-1-7.782-8.065-10-19 2.01-11.256 13-8a196 196 0 0 1 3 11 18.1 18.1 0 0 1 4.5-4q4.885 1.562 8.5 5" style="opacity:1"/><path fill="#3da0e2" d="M660.5 135.5q5.81 4.029 8.5 10-5.163-4.398-8.5-10" style="opacity:1"/><path fill="#f9f9f9" d="M499.5 143.5q30.827-2.204 49.5 22a12.9 12.9 0 0 1 .5 5 8178 8178 0 0 1-78-1q6.803-20.805 28-26" style="opacity:1"/><path fill="#4c667a" d="M654.5 144.5q2 5 0 10v-4q.1-2.188-1-4z" style="opacity:1"/><path fill="#f8f8f8" d="M383.5 144.5q14.18-.566 13.5 13-8.225 13.34-18 1-2.319-8.56 4.5-14" style="opacity:1"/><path fill="#4794cb" d="M623.5 136.5q-.442 3.353 1 6 2.218 10.935 10 19-7.856-1.103-9.5-9-3.264-8.039-1.5-16" style="opacity:1"/><path fill="#3da0e2" d="M654.5 150.5v4q-1.678 7.18-9 8a62.2 62.2 0 0 0 9-12M680.5 169.5v-1q4.928.346 7.5-4l2.5 2.5q-4.5 3.004-10 2.5M599.5 166.5h2a3911 3911 0 0 1 3 10q-5.666-3.331-5-10" style="opacity:1"/><path fill="#45555f" d="M680.5 168.5v1q-3.413 1.106-8 1v-1q3.831-1.332 8-1" style="opacity:1"/><path fill="#3f9cdb" d="M672.5 169.5v1q-1.184.424-2 1.5a230.4 230.4 0 0 1-39-1 20.6 20.6 0 0 1-6-2 244.5 244.5 0 0 0 47 .5" style="opacity:1"/><path fill="#419edd" d="M605.5 177.5q5.574 4.769 11 9.5a322 322 0 0 0 17 5q.834.575 1 1.5-17.469-.566-28.5-14a2.43 2.43 0 0 1-.5-2" style="opacity:1"/><path fill="#f0f1f2" d="M466.5 188.5q43.503-.25 87 .5 1.25 7.539-1 15-43.005.455-86-1-1.962-7.25 0-14.5" style="opacity:1"/><path fill="#eeeff0" d="M466.5 221.5q43.003-.25 86 .5 2 7 0 14-43.004.657-86-.5-1.524-7.095 0-14" style="opacity:1"/><path fill="#0a0a0a" d="M410.5 224.5q9.597-2.17 14.5 6 .295 27.135 4 54 11.712 41.214 50.5 59.5 80.57 21.808 110.5-55.5a337 337 0 0 0 3-16 8905 8905 0 0 1 2-41q7.163-11.43 18.5-4 14.374 68.764-34 119.5-25.583 21.79-59 25.5-.61 85.53-.5 171-5.784 14.385-17 3a7698 7698 0 0 1-2-174q-52.782-4.875-80-50-24.691-43.647-16-93a38 38 0 0 1 5.5-5" style="opacity:1"/><path fill="#eeeff0" d="M466.5 254.5q42.503-.25 85 .5 1.69 5.616.5 11.5a1168 1168 0 0 1-83.5.5q-3.45-5.98-2-12.5" style="opacity:1"/><path fill="#f6f7f7" d="M487.5 285.5a520 520 0 0 1 58 2q-6.039 14.287-21 18.5-17.349 3.957-34-2-10.288-6.037-16-16.5 6.724-1 13-2" style="opacity:1"/><path fill="#0a0a0a" d="M426.5 368.5q8.556-1.596 12.5 6 1 84.5 0 169-5.038 11.06-15.5 4.5a14.4 14.4 0 0 1-2.5-5.5 6886 6886 0 0 1 0-166q1.91-4.646 5.5-8M584.5 369.5q8.17-1.741 12.5 5 1 82.5 0 165 .555 13.119-12.5 10.5a15.8 15.8 0 0 1-3.5-5.5q-1-85.5 0-171a19.6 19.6 0 0 0 3.5-4" style="opacity:1"/><path fill="#0c0c0d" d="M452.5 402.5a32.5 32.5 0 0 1 8 .5q3.25 1.25 4.5 4.5a2861 2861 0 0 1 0 107q-4.153 10.866-14.5 5-2.15-2.58-2.5-6-1-52.5 0-105a41 41 0 0 1 4.5-6" style="opacity:1"/><path fill="#0a0a0a" d="M622.5 406.5q.25 53.502-.5 107a19.6 19.6 0 0 0-3.5 4q-10.757 3.327-10.5-8a1106 1106 0 0 1-2-102q4.345-6.982 12.5-4.5 2.775 1.034 4 3.5M411.5 409.5a2329 2329 0 0 1 1 96q-3.444 9.573-13 5.5a11.53 11.53 0 0 1-3.5-4.5 2255 2255 0 0 1 0-95q5.962-12.866 15.5-2M557.5 406.5q10.096-1.579 13.5 8 1 46.5 0 93-5.317 8.718-15 5l-1-6a1943 1943 0 0 0-2.5-94q1.381-3.939 5-6" style="opacity:1"/><path fill="#cacbcc" d="M622.5 406.5a1948 1948 0 0 1 .5 108q-1.694 2.461-4.5 3a19.6 19.6 0 0 1 3.5-4q.75-53.498.5-107" style="opacity:1"/><path fill="#cecfd0" d="M411.5 409.5q1.999 23.478 2 48 0 24.255-1 48 .489-48.11-1-96" style="opacity:1"/><path fill="#0a0a0a" d="M644.5 425.5a946 946 0 0 1 1 61q1.295 13.782-12 11.5-2.75-.75-3.5-3.5a1156 1156 0 0 1 0-68q1.678-4.186 6-5 5.085.435 8.5 4M487.5 427.5a780 780 0 0 1 .5 68 19.6 19.6 0 0 0-3.5 4q-9.309 1.983-11.5-7a1024 1024 0 0 1 0-64q6.577-9.462 14.5-1M374.5 425.5q5.115-.064 10 1.5a6.98 6.98 0 0 1 2.5 3.5 702 702 0 0 1 0 53 11.53 11.53 0 0 1-3.5 4.5q-6.087 1.15-12-.5-1.315-11.152-1-22-10.588 10.944-17.5-3-2.504-11.751 9.5-13 3.284.141 6 2a152 152 0 0 0 2.5-22q1.034-2.776 3.5-4" style="opacity:1"/><path fill="#c8cacb" d="M644.5 425.5q1.998 14.716 2 30.5 0 15.509-1 30.5a946 946 0 0 0-1-61" style="opacity:1"/><path fill="#0a0a0a" d="M545.5 430.5a475 475 0 0 1 .5 53 10.5 10.5 0 0 0-2.5 3q-4.918 1.488-10 .5-3.25-1.25-4.5-4.5a625 625 0 0 1 0-50 6.98 6.98 0 0 1 2.5-3.5q7.436-1.551 14 1.5" style="opacity:1"/><path fill="#cbcdcd" d="M545.5 430.5q1.998 12.962 2 27l-.5 27q-1.224 1.984-3.5 2a10.5 10.5 0 0 1 2.5-3q1.227-26.61-.5-53" style="opacity:1"/><path fill="#0b0b0b" d="M656.5 448.5q19.57-2.685 13.5 16-6.067 6.95-14.5 4.5-6.407-10.725 1-20.5" style="opacity:1"/><path fill="#d2d3d4" d="M487.5 427.5q1.998 16.72 2 34.5l-.5 34.5q-1.694 2.462-4.5 3a19.6 19.6 0 0 1 3.5-4 780 780 0 0 0-.5-68" style="opacity:1"/><path fill="#eaebeb" d="M221.5 722.5h14q1.147 6.463-5 8.5l-20 2q-6.452 4.02-4.5 11.5 14.337-10.717 27 2 10.973 19.032-5.5 33.5-18.829 7.619-27.5-10.5a144 144 0 0 1-1-33q2.607-5.612 7.5-9.5a270 270 0 0 1 15-4.5" style="opacity:1"/><path fill="#fefefe" d="M64.5 724.5h44v5a88.7 88.7 0 0 0-18.5 1q-.75 24.995-.5 50h-6q.25-25.005-.5-50a88.7 88.7 0 0 0-18.5-1z" style="opacity:1"/><path fill="#fdfdfd" d="M747.5 724.5h6v7h-6z" style="opacity:1"/><path fill="#efeff0" d="M124.5 738.5q16.671-2.549 22.5 13 3.8 16.012-7.5 27.5-8.841 4.732-18 .5a63 63 0 0 0-2.5 16q-3.062 1.384-6.5 1v-56a19.5 19.5 0 0 1 7.5 1 22.4 22.4 0 0 0 4.5-3" style="opacity:1"/><path fill="#ebecec" d="M166.5 738.5q26.515-3.479 25 23a678 678 0 0 0-30 1q2.5 17.732 19 10.5 3.97-5.634 11-4.5-1.785 11.033-13 12.5-29.244 1.884-24.5-27.5 3.317-10.056 12.5-15" style="opacity:1"/><path fill="#fefefe" d="M310.5 739.5h32v41h-6q.25-17.008-.5-34-9-2-18 0a578 578 0 0 0-.5 34h-7z" style="opacity:1"/><path fill="#e9eaeb" d="M361.5 739.5q37.347-2.901 26.5 33-9.438 13.813-25.5 8.5-18.066-13.72-8.5-34.5a73 73 0 0 1 7.5-7" style="opacity:1"/><path fill="#ebecec" d="M448.5 738.5q26.515-3.479 25 23a678 678 0 0 0-30 1q2.5 17.732 19 10.5 3.97-5.634 11-4.5-1.785 11.033-13 12.5-29.244 1.884-24.5-27.5 3.317-10.056 12.5-15" style="opacity:1"/><path fill="#f1f2f3" d="M623.5 739.5h9v41q-3.438.384-6.5-1a269 269 0 0 0-2-26 665 665 0 0 1-16.5 26 16.9 16.9 0 0 1-8 1v-40q3.438-.384 6.5 1 .319 12.564 2 25a217.5 217.5 0 0 0 15.5-27" style="opacity:1"/><path fill="#f0f1f1" d="M717.5 738.5q15.82-.976 20.5 14 2.418 12.35-4 23-10.066 10.132-22.5 3a4.46 4.46 0 0 0-1.5 2 234 234 0 0 0-1.5 16h-6v-57q4.608-.47 8.5 2a39.5 39.5 0 0 1 6.5-3" style="opacity:1"/><path fill="#fefefe" d="M788.5 739.5h6q-.25 17.507.5 35 8 2 16 0 .75-17.493.5-35h6v41h-52v-40h6q-.25 17.008.5 34 8 2 16 0 .75-17.493.5-35" style="opacity:1"/><path fill="#f1f2f3" d="M888.5 739.5h9v41q-3.438.384-6.5-1a269 269 0 0 0-2-26 665 665 0 0 1-16.5 26 16.9 16.9 0 0 1-8 1v-40q3.438-.384 6.5 1 .319 12.564 2 25a217.5 217.5 0 0 0 15.5-27" style="opacity:1"/><path fill="#ebecec" d="M250.5 739.5q9.513-.25 19 .5 3.903 1.325 6.5 4.5a272 272 0 0 1 2.5 37q-5.547-.15-9.5-4-11.445 6.882-23.5 1.5-7.738-8.437-.5-17.5 11.166-7.22 24.5-6.5 2.09-4.639-2-8-7.52-2.84-15 0a13.9 13.9 0 0 0-3 4 18.5 18.5 0 0 1-6 .5q-.303-3.734 1.5-7 3.493-1.746 5.5-5" style="opacity:1"/><path fill="#f1f1f2" d="M394.5 739.5h6a57.1 57.1 0 0 0 3.5 18q6.991 3.211 14.5 1 .613-9.003 1.5-18 3.572-1.402 7.5-1v41h-7a171 171 0 0 0-1-15 163 163 0 0 1-18-.5q-4.842-2.344-6.5-7.5a163 163 0 0 1-.5-18" style="opacity:1"/><path fill="#f0f1f1" d="M483.5 740.5h6a47 47 0 0 0 2 16l5-4a87.5 87.5 0 0 1 6-11 16.9 16.9 0 0 1 8-1 8.4 8.4 0 0 1-.5 4q-7.632 5.975-10.5 15.5a121 121 0 0 1 13 19.5q-3.91 1.727-8 .5-4.486-5.002-6.5-11.5a55 55 0 0 0-6.5-6 60.7 60.7 0 0 0-2 18h-6z" style="opacity:1"/><path fill="#eaebeb" d="M525.5 739.5q10.512-.25 21 .5 4.842 2.344 6.5 7.5a819 819 0 0 1 1.5 33q-5.257.936-8.5-3-10.095 5.549-21.5 3.5-9.855-5.483-6.5-16.5a6.98 6.98 0 0 1 2.5-3.5q11.934-5.337 25-5.5 1.641-8.012-6-9.5-5.604-.915-11 1-2.96 5.241-9 4.5-.944-8.113 6-12" style="opacity:1"/><path fill="#fefefe" d="M559.5 740.5h32v4q-6.4-.446-12.5 1a612 612 0 0 0-.5 35h-6q.25-17.507-.5-35-6.1-1.446-12.5-1zM662.5 740.5h32v4q-6.4-.446-12.5 1a612 612 0 0 0-.5 35h-6q.25-17.507-.5-35-6.1-1.446-12.5-1zM747.5 740.5h6v40h-6z" style="opacity:1"/><path fill="#efeff0" d="M829.5 740.5h6a53.8 53.8 0 0 0 2 16 10.94 10.94 0 0 0 4.5-3 105 105 0 0 1 6.5-12 16.9 16.9 0 0 1 8-1 8.4 8.4 0 0 1-.5 4q-7.632 5.975-10.5 15.5 7.948 8.713 13 19.5-3.91 1.727-8 .5a74.6 74.6 0 0 1-7.5-12.5 39 39 0 0 0-5.5-5 60.7 60.7 0 0 0-2 18h-6z" style="opacity:1"/><path fill="#0a0a0a" d="M126.5 743.5q8.396-.18 12.5 7 1 9 0 18-5.365 10.58-16.5 5.5-11.565-17.246 4-30.5" style="opacity:1"/><path fill="#0b0b0b" d="M366.5 743.5q11.074-1.092 15.5 9 1.621 9.832-2 19-11.348 10.9-20-2a90.5 90.5 0 0 1 0-19q2.541-4.287 6.5-7M716.5 743.5q8.985-.602 13.5 7 1 9 0 18-4.984 9.612-15.5 6.5a17.8 17.8 0 0 1-4.5-5.5q-1-9 0-18a79 79 0 0 1 6.5-8" style="opacity:1"/><path fill="#141517" d="M167.5 744.5q7.224.12 14 2.5 2.59 4.356 2 9.5h-21q-.721-7.534 5-12" style="opacity:1"/><path fill="#0b0b0b" d="M213.5 745.5q10.148-1.547 15.5 7 1.621 9.832-2 19-9.605 7.91-19 0-2.304-9.374-1-19 2.541-4.287 6.5-7" style="opacity:1"/><path fill="#141516" d="M449.5 744.5q7.224.12 14 2.5 2.59 4.356 2 9.5h-21q-.245-3.535.5-7a31.5 31.5 0 0 0 4.5-5" style="opacity:1"/><path fill="#0c0c0c" d="M263.5 760.5h6q.371 21.615-20 14-2.328-7.746 5-11.5 4.863-.609 9-2.5" style="opacity:1"/><path fill="#0b0c0c" d="M538.5 760.5h7q.478 21.765-19.5 13-2.465-7.392 4.5-10.5 4.319-.819 8-2.5" style="opacity:1"/><path fill="#f8f9f9" d="M910.5 773.5h8v7h-8z" style="opacity:1"/><path fill="#fdfdfd" d="M933.5 773.5h7v7h-7zM955.5 773.5h7v7h-7z" style="opacity:1"/></svg>