<svg xmlns="http://www.w3.org/2000/svg" width="1024" height="1024" style="shape-rendering:geometricPrecision;text-rendering:geometricPrecision;image-rendering:optimizeQuality;fill-rule:evenodd;clip-rule:evenodd"><path fill="#0a0a0a" d="M-.5-.5h1024v1024H-.5z" style="opacity:1"/><path fill="#0c202e" d="M623.5 73.5q-.925.165-1.5 1-9.645-8.697-22.5-10.5-40.997-.75-82-.5a19.6 19.6 0 0 0-3.5-2 925 925 0 0 1-86 0 1298 1298 0 0 1-50.5 1.5 360 360 0 0 0-10 1.5q.166-.925 1-1.5a186 186 0 0 1 21-2q105.5-1 211 0l12 2.5v3q7.817.144 11 7" style="opacity:1"/><path fill="#193648" d="M517.5 63.5q-42.36 1.24-85.5 0l-9 2h-8q-1.964-3.587-3 0-1.036-3.587-3 0-3-2-6 0-1.964-3.587-3 0-1.036-3.587-3 0l-13-1q-17.612 3.557-35 11-1.517-1.255-3.5-1 2.892-2.961 7-4.5 7.532-2.77 15-5.5a360 360 0 0 1 10-1.5 1298 1298 0 0 0 50.5-1.5 925 925 0 0 0 86 0 19.6 19.6 0 0 1 3.5 2" style="opacity:1"/><path fill="#0c3854" d="M517.5 63.5q41.003-.25 82 .5 12.855 1.803 22.5 10.5.575-.835 1.5-1 1.953 3.285 5 6a158 158 0 0 0 17 13 417 417 0 0 1 16 17.5 10.1 10.1 0 0 0 4 1.5q0 1 1 1a550 550 0 0 1 7 8 75 75 0 0 0 9 7q1.329 1.237 1 3 2.188-.1 4 1a30 30 0 0 0 3.5 6 210 210 0 0 0 13.5 9.5 55 55 0 0 1 4 5.5q1.551 3.08 4.5 5a2080 2080 0 0 1 6.5 23v3q-.023 172.714 0 346a63 63 0 0 1-2 12q-3.744 6.965-5.5 15-4.126 4.83-4.5 11h-3v3a126 126 0 0 1-6 7.5 4.93 4.93 0 0 1-3 .5v5q-6.267.968-10 6.5a121.3 121.3 0 0 1-23 11q-8.712 7.824-20 4.5a17.9 17.9 0 0 1-6 4q-25.314-.947-50.5-2-78.13.46-157.5.5-.834.575-1 1.5h-3a1239 1239 0 0 0-40-1.5 31.1 31.1 0 0 1-11-2.5 10 10 0 0 0-3 1h-2a252 252 0 0 1-9-5.5 729 729 0 0 1-19-6.5 18.3 18.3 0 0 1-6-4q-9.457-8.333-16.5-19a10.1 10.1 0 0 1-1.5-6h-3q-.37-5.866-4.5-10l-1-8q-2.377-1.314-3-4a246 246 0 0 1-2-17 2018 2018 0 0 0-1.5-53 6149 6149 0 0 0 1-153q-.25-85.001.5-170a9.5 9.5 0 0 1 1.5-2.5 635 635 0 0 0-1-18.5q2.405.282 4-1.5l-1-1q.844-5.06 4.5-8.5l1-7a111 111 0 0 0 11-14l15-15a4.93 4.93 0 0 0 .5-3 41 41 0 0 1 7-5q1.983-.255 3.5 1 17.388-7.443 35-11l13 1q1.964-3.587 3 0 1.036-3.587 3 0 3-2 6 0 1.964-3.587 3 0 1.036-3.587 3 0h8l9-2q43.14 1.24 85.5 0" style="opacity:1"/><path fill="#ebeff0" d="M596.5 85.5v1q-1.998 18.473-2 38l1 38q1.443 7.085 5.5 13a41 41 0 0 1 6 9q.417-1.374 1.5-2a56.7 56.7 0 0 1 10 8q9.546 11.808 21 22.5a786 786 0 0 0 58 47.5q1.329 1.237 1 3v90a2.43 2.43 0 0 0-2 .5q1.04 35.214 1 67l-2 21q.677 36.602 0 78.5a57.2 57.2 0 0 1-1 15 476 476 0 0 0-6.5 13 18.5 18.5 0 0 0-.5 6q-5.42 3.904-10.5 9a12.9 12.9 0 0 0-.5 5q-2.68 6.188-9 8-1.858-1.368-4-.5-10.187 6.285-21 10.5a3716 3716 0 0 1-118 1q-73.023.627-146-1.5a119.4 119.4 0 0 1-22-6.5q-21.573-14.584-31-39a283 283 0 0 0-2-21q-.468-193.512 1-387 11.883-35.631 48-46.5 112-.75 224-.5" style="opacity:1"/><path fill="#28ade6" d="M596.5 85.5q10.364-.284 19 5.5a1226 1226 0 0 1 30 28.5q-1.257.513-1 2-6.298-1.788-9-8-10.522-6.752-19-16.5-6.663-5.331-15-7.5-1.426 32.891-2 63.5a362 362 0 0 1 4 14.5q-2.188.1-4-1-1.65-9.781-3-19.5.159-29.199 0-60.5z" style="opacity:1"/><path fill="#bbf4fc" d="M596.5 86.5q.159 31.301 0 60.5 1.35 9.719 3 19.5-.06 4.387 2.5 8 4.173 3.406 6.5 8-1.083.626-1.5 2a41 41 0 0 0-6-9q-4.057-5.915-5.5-13l-1-38q.002-19.527 2-38" style="opacity:1"/><path fill="#0a1926" d="M665.5 111.5a10.1 10.1 0 0 1-4-1.5 417 417 0 0 0-16-17.5q12.072 6.25 21 18.5-.342.598-1 .5" style="opacity:1"/><path fill="#1883d2" d="M645.5 119.5q7.63 6.385 14 14.5a15.8 15.8 0 0 1 5.5 3.5 599 599 0 0 1 19.5 22q-13.013-9.202-24.5-21a4.93 4.93 0 0 1-.5-3q-2.217.393-4-1a193 193 0 0 0-11-13q-.257-1.487 1-2" style="opacity:1"/><path fill="#0a1927" d="M666.5 112.5q7.217 1.216 10 8 8.108 3.107 11 11-1.812-1.1-4-1 .329-1.763-1-3a75 75 0 0 1-9-7 550 550 0 0 0-7-8" style="opacity:1"/><path fill="#0f3043" d="M498.5 122.5q37.703-3.189 63.5 24 8.876 11.607 12 26 1 48.5 0 97-4.224 34.22-32.5 53.5a81.6 81.6 0 0 1-11 5q-69.55 12.362-84.5-56.5-1-48 0-96 10.59-42.34 52.5-53" style="opacity:1"/><path fill="#204b64" d="M382.5 126.5q24.07-2.167 33.5 20 3.695 19.811-11.5 32.5-23.383 11.963-39.5-8.5-14.9-31.672 17.5-44" style="opacity:1"/><path fill="#27a9e4" d="M656.5 145.5q-.925-.166-1.5-1 .163 1.904-.5 3a29.7 29.7 0 0 0-9.5-6q-2.814 1.679-2.5 5h-3q.833-6.746-2-12.5-10.074-.976-13 8.5-1.746 1.713-1 7-1.722-6.722-.5-14 4.162-.954 6.5-4.5a25.2 25.2 0 0 1 10 0 34.6 34.6 0 0 0 4.5 8.5q8.637-2.057 12.5 6" style="opacity:1"/><path fill="#153548" d="M324.5 132.5a38669 38669 0 0 0-1 387 30939 30939 0 0 1-1.5-249 605 605 0 0 1-1.5 35q-.877-19.944-1-42.5a9936 9936 0 0 1 2-114.5q-4.104-9.154 3-16" style="opacity:1"/><path fill="#bdf4fc" d="M654.5 147.5q1.008 5.163-3 8a16.9 16.9 0 0 0-1-8q-6.495-.009-13 0a430 430 0 0 0-2-12q-8.388 2.867-10 11 .1-2.188-1-4 2.926-9.476 13-8.5 2.833 5.754 2 12.5h3q-.314-3.321 2.5-5a29.7 29.7 0 0 1 9.5 6" style="opacity:1"/><path fill="#f9fbfc" d="M651.5 155.5q-3.8-2.03-5 2.5-8.244 1.273-16-1.5a35.2 35.2 0 0 1-5-10q1.612-8.133 10-11a430 430 0 0 1 2 12q6.505-.009 13 0a16.9 16.9 0 0 1 1 8" style="opacity:1"/><path fill="#f6f8f9" d="M500.5 144.5q9.014-.249 18 .5 16.859 4.331 28.5 17.5 2.989 3.477 3.5 8-39.513.5-79-1 7.665-20.562 29-25" style="opacity:1"/><path fill="#1e8cd7" d="M624.5 142.5q1.1 1.812 1 4a35.2 35.2 0 0 0 5 10q6.502 9.085 16 5.5 3.435-2.666 5-6.5 4.008-2.837 3-8 .663-1.096.5-3 .575.834 1.5 1 2.813 23.413-21 18.5a42.6 42.6 0 0 1-8-3.5 346 346 0 0 1-4-11q-.746-5.287 1-7" style="opacity:1"/><path fill="#eaf4f6" d="M383.5 145.5q8.881-.934 14.5 6 1.088 10.967-10 14-15.921-7.047-4.5-20" style="opacity:1"/><path fill="#0a1826" d="M708.5 152.5q3.399-.538 5.5 2a144.4 144.4 0 0 1 6.5 22.5 14 14 0 0 0-1 3.5 2080 2080 0 0 0-6.5-23q-2.949-1.92-4.5-5" style="opacity:1"/><path fill="#bcf1f8" d="M651.5 155.5q-1.565 3.834-5 6.5-9.498 3.585-16-5.5 7.756 2.773 16 1.5 1.2-4.53 5-2.5" style="opacity:1"/><path fill="#197fcd" d="M684.5 159.5a133 133 0 0 1 10 9.5 331 331 0 0 1-9.5 2.5q-5.24.1-10-1a26.6 26.6 0 0 0-3.5 2q4.833.668 10 0 1.855.084 3 1.5a462 462 0 0 1-43 0q-2-1.75-5-.5-8.046-.653-15-4.5a9.5 9.5 0 0 0 2.5-1.5q12.402 1.977 25.5 2 16.055.11 32-1.5 3.179-.147 5-2.5a31.7 31.7 0 0 1-2-6" style="opacity:1"/><path fill="#1e84d1" d="M599.5 166.5q1.812 1.1 4 1 1.52 5.927 4.5 11a90 90 0 0 0 7.5 5q1.329 1.237 1 3l20 5a4.93 4.93 0 0 0-3 .5q3.804.279 7 1.5-4.971.44-10 1-5.517-3.309-12-4a56.7 56.7 0 0 0-10-8q-2.327-4.594-6.5-8-2.56-3.613-2.5-8" style="opacity:1"/><path fill="#0e2534" d="M338.5 79.5a4.93 4.93 0 0 1-.5 3l-15 15a111 111 0 0 1-11 14l-1 7q-3.656 3.44-4.5 8.5l1 1q-1.595 1.782-4 1.5a635 635 0 0 1 1 18.5 9.5 9.5 0 0 0-1.5 2.5q-.75 84.999-.5 170a399 399 0 0 0-3-40q.33-63.664-1-125-.776-23.906 11.5-44 6.367-11.851 16-21a4.93 4.93 0 0 0 .5-3q6.327-3.293 12-8" style="opacity:1"/><path fill="#0b1b28" d="M719.5 183.5q2 85.745 2 172.5l-.5 172.5q-.575.834-1.5 1-.023-173.286 0-346" style="opacity:1"/><path fill="#204d69" d="M698.5 193.5q-29.313.085-58 0-3.196-1.221-7-1.5a4.93 4.93 0 0 1 3-.5q31.245-2.379 62 2" style="opacity:1"/><path fill="#bac9d0" d="M618.5 190.5q6.483.691 12 4 5.029-.56 10-1 28.687.085 58 0a613 613 0 0 1 0 70q.329-1.763-1-3a786 786 0 0 1-58-47.5q-11.454-10.692-21-22.5" style="opacity:1"/><path fill="#f3f5f6" d="M466.5 189.5h88a89.4 89.4 0 0 1-1 15q-43.512.22-87-1z" style="opacity:1"/><path fill="#f0f5f7" d="M466.5 222.5h87v14q-43.003.25-86-.5-1.45-6.601-1-13.5" style="opacity:1"/><path fill="#0f2c3e" d="M520.5 469.5a1315 1315 0 0 1 1 72q-5.037 18.818-18.5 5l-1-4q-.75-84.999-.5-170-52.743-3.732-79.5-49-25.231-43.28-17-93 6.462-8.652 16.5-4.5a17.8 17.8 0 0 1 4.5 5.5 436 436 0 0 0 3 52q11.706 43.16 52.5 61.5 78.422 19.915 108.5-54.5a159.5 159.5 0 0 0 4-22l1-36q7.812-13.348 20-4 11.702 61.846-27 111-13.741 14.49-31.5 23.5a53.6 53.6 0 0 1-17.5 5.5q-7.91 5.18-17.5 4a7177 7177 0 0 1-1 97" style="opacity:1"/><path fill="#bdcbd2" d="M642.5 253.5a98.3 98.3 0 0 1 19.5 1q2.38 9.836 1 20-10.848.566-22.5 0-.075-10.673 2-21" style="opacity:1"/><path fill="#e6ebed" d="M466.5 255.5h86v12q-42.031.313-84 0-2.634-5.682-2-12" style="opacity:1"/><path fill="#0d2332" d="M323.5 519.5a283 283 0 0 1 2 21 2.43 2.43 0 0 1-.5 2q-4.522-7.608-4.5-16.5-.7-107.543 0-220.5a605 605 0 0 0 1.5-35q.25 124.752 1.5 249" style="opacity:1"/><path fill="#e8eded" d="M511.5 286.5q3.703 1.226 8 1.5l-4 2q9.604 1.053 4 9.5a191 191 0 0 1-14 6.5q5.288.268 10 1.5-27.906 4.047-41-20.5 18.493-.75 37-.5" style="opacity:1"/><path fill="#cbd7dc" d="M648.5 292.5q7.183.187 14 2.5 1.69 5.616.5 11.5a119.3 119.3 0 0 1-26.5.5q-1.683-5.113-.5-10.5 6.049-3.159 12.5-4" style="opacity:1"/><path fill="#cedbde" d="M363.5 293.5a88 88 0 0 1 21 1.5q6.063 2.382 3 8.5-11.682 3.036-24 1.5-3.631-5.596 0-11.5" style="opacity:1"/><path fill="#bfccd2" d="M511.5 286.5a307 307 0 0 1 35 1q-6.68 15.429-23 19.5a32.5 32.5 0 0 1-8 .5q-4.712-1.232-10-1.5a191 191 0 0 0 14-6.5q5.604-8.447-4-9.5l4-2q-4.297-.274-8-1.5" style="opacity:1"/><path fill="#cedbdf" d="M367.5 322.5q14.009-.25 28 .5 2.657 6.946 2 14.5-17.507.25-35-.5-1.683-5.113-.5-10.5 2.185-2.948 5.5-4" style="opacity:1"/><path fill="#bfcdd4" d="M632.5 323.5q15.12-.635 30 1.5l1.5 1.5a30.5 30.5 0 0 1 0 11q-7.881 1.96-16.5 2-24.583 6.932-15-16" style="opacity:1"/><path fill="#cdd9de" d="M698.5 353.5v176q-2.415-4.054-3-9 .677-41.898 0-78.5l2-21q.04-31.786-1-67a2.43 2.43 0 0 1 2-.5" style="opacity:1"/><path fill="#173143" d="M426.5 369.5q10.134-2.667 13.5 7 1 83.5 0 167-6.125 13.22-17 4a22.5 22.5 0 0 1-2-7 6639 6639 0 0 1 0-163q1.91-4.646 5.5-8" style="opacity:1"/><path fill="#102b3c" d="M598.5 510.5a249 249 0 0 1-1.5 37q-5.22 5.851-12.5 3a26.5 26.5 0 0 1-3.5-6 7222 7222 0 0 1 0-170q5.001-7.721 13.5-3.5a15.8 15.8 0 0 1 3.5 5.5q.75 66.998.5 134" style="opacity:1"/><path fill="#112c3e" d="M698.5 500.5v-164q1.345-1.647 2.5 0-.162 61.477 1 123 3 4.5 0 9a886 886 0 0 1-2 55 261 261 0 0 0-1.5-23" style="opacity:1"/><path fill="#0a1b28" d="M299.5 280.5a399 399 0 0 1 3 40 6149 6149 0 0 1-1 153 2018 2018 0 0 1 1.5 53 246 246 0 0 0 2 17q.623 2.686 3 4l1 8q4.13 4.134 4.5 10h3a10.1 10.1 0 0 0 1.5 6q7.043 10.667 16.5 19-12.883-6.113-20.5-20-10.431-18.201-14-39-.447-125.288-.5-251" style="opacity:1"/><path fill="#142c3d" d="M608.5 514.5a1677 1677 0 0 1-3-69q-.25-18.507.5-37 5.695-9.897 15.5-3.5a9.5 9.5 0 0 1 1.5 2.5q1 53 0 106-4.345 6.982-12.5 4.5a19.6 19.6 0 0 0-2-3.5" style="opacity:1"/><path fill="#143245" d="M400.5 405.5q8.556-1.596 12.5 6 1 47 0 94-2.333 10.008-12.5 6.5-3.176-2.597-4.5-6.5a2115 2115 0 0 1 0-92q.73-4.951 4.5-8" style="opacity:1"/><path fill="#0f2c3e" d="M555.5 512.5a660 660 0 0 1-1-49 583 583 0 0 0-1.5-53q12.452-9.635 19 5 1 46 0 92-3.507 7.622-12 7-2.75-.028-4.5-2" style="opacity:1"/><path fill="#1b384c" d="M454.5 402.5q11.49-.564 12 10.5a2043 2043 0 0 0-.5 101.5q-4.702 12.752-16 5a43.4 43.4 0 0 1-2-8 2549 2549 0 0 1 0-101q1.502-5.549 6.5-8" style="opacity:1"/><path fill="#0a1926" d="M450.5 410.5q.895.352 1 1.5a2668 2668 0 0 0-1.5 71.5 795 795 0 0 1-1-70q1.558-1.116 1.5-3" style="opacity:1"/><path fill="#112d3f" d="M633.5 422.5q8.101-1.737 12.5 5a727 727 0 0 1-.5 66q-2.434 6.304-9.5 6-5.404-1.242-6-7a1056 1056 0 0 1 0-65 27.2 27.2 0 0 1 3.5-5" style="opacity:1"/><path fill="#163446" d="M477.5 424.5q7.863-1.844 11.5 5 1 33 0 66-5.838 8.639-14 2l-2-6a930 930 0 0 1 0-61q1.206-3.969 4.5-6" style="opacity:1"/><path fill="#223d4f" d="M381.5 426.5q-4.341 2.073-7.5 6l-1-2a677 677 0 0 1-1.5 37 2.43 2.43 0 0 0-.5-2q-7.105 11.507-16 1-6.858-13.28 7.5-17 3.913.635 7 3a244 244 0 0 0 1.5-22q3.599-6.942 10.5-4" style="opacity:1"/><path fill="#102d3f" d="M381.5 426.5q4.764.51 6.5 5 1 25.5 0 51-.609 4.491-4.5 6.5-6.187 1.28-12-1-1.515-10.155 0-20.5a677 677 0 0 0 1.5-37l1 2q3.159-3.927 7.5-6" style="opacity:1"/><path fill="#142a39" d="M533.5 428.5q5.025-.247 10 .5 2.25 1.25 3.5 3.5 1 25.5 0 51-5.937 7.28-14.5 3.5-2.98-1.978-3.5-5.5-1-24 0-48 1.537-3.28 4.5-5" style="opacity:1"/><path fill="#102534" d="M658.5 448.5q17.913-.855 12.5 16-5.163 4.893-12 7-6.734-3.958-6.5-12-.355-7.51 6-11" style="opacity:1"/><path fill="#c6cfd3" d="M554.5 463.5a660 660 0 0 0 1 49q-2.448-.487-3-3a28.1 28.1 0 0 1-.5-12l1 4q.254-19.26 1.5-38" style="opacity:1"/><path fill="#a8b5bb" d="M605.5 445.5q.78 34.313 3 69-1.782 1.776-3.5 0a114 114 0 0 0-1.5-14.5l1.5-1.5q.75-26.495.5-53" style="opacity:1"/><path fill="#95a1a7" d="M521.5 541.5a1315 1315 0 0 0-1-72q.925-.166 1.5-1 1.245 36.755-.5 73" style="opacity:1"/><path fill="#0b1824" d="M717.5 541.5q1.304 2.298-1 4.5 2.07 4.718-2 8 1.701 1.524-1 2 1.701 1.524-1 2 1.255 1.517 1 3.5a4.93 4.93 0 0 0-3 .5q1.847 1.774 0 3.5-2.589 4.199-6 5v-3h3q.374-6.17 4.5-11 1.756-8.035 5.5-15" style="opacity:1"/><path fill="#cbd6da" d="M598.5 510.5q1.24 8.228 1.5 17a53.7 53.7 0 0 1 2.5 9.5q-1.84 2.381 1 4-1.2 7.91-7 13-4.5 1-9 0-2.889-.633-3-3.5 7.28 2.851 12.5-3a249 249 0 0 0 1.5-37" style="opacity:1"/><path fill="#b5c3ca" d="M695.5 520.5q.585 4.946 3 9-2.309 15.114-10.5 28-6.13 3.238-8 10-1.517 1.255-3.5 1a12.9 12.9 0 0 1 .5-5q5.08-5.096 10.5-9a18.5 18.5 0 0 1 .5-6 476 476 0 0 1 6.5-13 57.2 57.2 0 0 0 1-15" style="opacity:1"/><path fill="#b0bfc5" d="M667.5 576.5a116 116 0 0 0-12 7.5 39.4 39.4 0 0 1-13 2.5q10.813-4.215 21-10.5 2.142-.868 4 .5" style="opacity:1"/><path fill="#0c1b28" d="M356.5 579.5a119.4 119.4 0 0 0 22 6.5 3870 3870 0 0 0 146 1.5q-.166.925-1 1.5l-123 1a22.1 22.1 0 0 1-7.5 1.5 168 168 0 0 0-20.5-2.5q-6.05-3.53-13-3.5v-3h-4q-.356-1.937 1-3" style="opacity:1"/><path fill="#0a1a27" d="M340.5 594.5a729 729 0 0 0 19 6.5 252 252 0 0 0 9 5.5q-8.444-.186-17-3.5a6.55 6.55 0 0 1-3-3q-6.072-.247-8-5.5" style="opacity:1"/><path fill="#0a1825" d="M424.5 609.5q-.166.925-1 1.5a254.6 254.6 0 0 1-52-2q-3.179-.513-1-2.5a10 10 0 0 1 3-1 31.1 31.1 0 0 0 11 2.5q20.026.428 40 1.5" style="opacity:1"/><path fill="#0b1926" d="M636.5 609.5q-.166.925-1 1.5-98.626.017-195 .5a4.93 4.93 0 0 0-.5-3q-6.1 1.446-12.5 1 .166-.925 1-1.5 79.37-.04 157.5-.5 25.186 1.053 50.5 2" style="opacity:1"/><path fill="#fafcfc" d="M64.5 724.5h45v6h-19v51h-7v-51h-19zm683 0h7v8h-7z" style="opacity:1"/><path fill="#ebeef0" d="M124.5 739.5q17.533-3.86 23.5 13 2.001 11.55-3 22-9.987 12.603-24 5a706 706 0 0 1-1.5 18h-7v-57q4.473-.594 8 2a174 174 0 0 0 4-3" style="opacity:1"/><path fill="#ebeeef" d="M166.5 739.5q27.19-4.303 26 23-15.508-.25-31 .5 3.005 17.04 19 11a14.5 14.5 0 0 0 4-5 16.24 16.24 0 0 1 8 0q-1.833 8.68-10 12-30.602 5.91-28.5-25.5 2.609-10.857 12.5-16" style="opacity:1"/><path fill="#e7ebec" d="M252.5 739.5q8.514-.249 17 .5 4.558 1.547 7.5 5.5a649 649 0 0 1 2.5 36q-6.44 1.446-9.5-4-9.115 6.958-20.5 4.5-14.038-8.817-3-21 11.118-6.276 24-5.5 1.326-5.985-4-8.5a42.5 42.5 0 0 0-13 0 10.94 10.94 0 0 0-3 4.5 13.1 13.1 0 0 1-7 1q.034-3.64 1.5-7a126 126 0 0 1 7.5-6" style="opacity:1"/><path fill="#e7eced" d="M310.5 739.5h33v42h-7v-35h-18v35h-8z" style="opacity:1"/><path fill="#e2e7e8" d="M363.5 739.5q35.292-1.422 25.5 33-10.254 15.355-27.5 8.5-14.992-12.672-8.5-31.5 3.636-6.849 10.5-10" style="opacity:1"/><path fill="#e2e7e9" d="M394.5 739.5h7q-.425 9.268 2.5 18l1.5 1.5q6.88 1.198 13.5-.5.44-9.55 1.5-19h8v42h-8a129 129 0 0 0-.5-16q-8.625 1.711-17.5.5-5.985-2.985-7.5-9.5a145 145 0 0 1-.5-17" style="opacity:1"/><path fill="#ebeef0" d="M448.5 739.5q27.19-4.303 26 23-15.508-.25-31 .5 2.95 16.965 19 11a14.5 14.5 0 0 0 4-5 16.24 16.24 0 0 1 8 0q-1.833 8.68-10 12-30.601 5.91-28.5-25.5 2.609-10.857 12.5-16" style="opacity:1"/><path fill="#e8ecee" d="M528.5 739.5q9.014-.249 18 .5 6.666 3.167 7.5 10.5a683 683 0 0 0 1.5 31h-7q.282-2.405-1.5-4-9.826 6.608-21.5 4.5-10.461-5.173-7.5-16.5 1.75-3.75 5.5-5.5a84 84 0 0 1 23-4.5q-.246-4.76-3-8.5a49.2 49.2 0 0 0-14 0 14.5 14.5 0 0 0-4 5 18.5 18.5 0 0 1-6 .5q-.729-10.25 9-13" style="opacity:1"/><path fill="#f3f5f6" d="M624.5 739.5h9v42h-7a7588 7588 0 0 1-1.5-28L607.5 781a32.5 32.5 0 0 1-8 .5v-41h7q.45 13.51 1.5 27a242 242 0 0 0 16.5-28" style="opacity:1"/><path fill="#e8eced" d="M702.5 739.5q3.535-.245 7 .5 1.8 4.015 5 0 19.37-4.45 24.5 14.5 3.05 15.324-8.5 25.5-10.409 5.643-19.5-1.5a88 88 0 0 0-1.5 19h-7z" style="opacity:1"/><path fill="#fafcfc" d="M788.5 739.5h7v36h16v-36h7v42h-53v-41h7v35h16z" style="opacity:1"/><path fill="#f3f5f6" d="M889.5 739.5h9v42h-7a7588 7588 0 0 1-1.5-28L872.5 781a32.5 32.5 0 0 1-8 .5v-41h7q.45 13.51 1.5 27a242 242 0 0 0 16.5-28" style="opacity:1"/><path fill="#e6eaeb" d="M229.5 722.5h7q1.049 8.166-7 9.5l-17 1q-8.084 3.758-6.5 12.5a56 56 0 0 0 5.5-4.5q18.618-5.153 25.5 12.5 4.477 17.073-9.5 27.5-22.443 7.402-28.5-15.5-1-13.5 0-27 2.257-7.282 8.5-11.5 10.886-3.72 22-4.5" style="opacity:1"/><path fill="#edf0f2" d="M483.5 740.5h7q-.249 8.514.5 17a32.4 32.4 0 0 0 5.5-4 76 76 0 0 1 7-12.5 32.5 32.5 0 0 1 8-.5q.428 2.682-1 5a10.94 10.94 0 0 0-4.5 3 104 104 0 0 1-6.5 12 82.7 82.7 0 0 1 14 20q-4.5 2-9 0a62.7 62.7 0 0 1-7.5-13 21.5 21.5 0 0 0-6-5q-.75 9.487-.5 19h-7z" style="opacity:1"/><path fill="#f9fafb" d="M559.5 740.5h33v5h-13v36h-7v-36h-13z" style="opacity:1"/><path fill="#fafcfc" d="M662.5 740.5h33v5h-13v36h-7v-36h-13zm85 0h7v41h-7z" style="opacity:1"/><path fill="#f0f2f4" d="M829.5 740.5h7q-.249 8.514.5 17l5-3a88.6 88.6 0 0 1 7.5-13.5 32.5 32.5 0 0 1 8-.5q.428 2.682-1 5a10.94 10.94 0 0 0-4.5 3 104 104 0 0 1-6.5 12 69.9 69.9 0 0 1 14 20q-4.5 2-9 0a158 158 0 0 1-7.5-13 21.5 21.5 0 0 0-6-5q-.75 9.487-.5 19h-7z" style="opacity:1"/><path fill="#101112" d="M126.5 744.5q9.358-1.446 13.5 7a72.5 72.5 0 0 1 0 17q-5.036 11.182-16.5 6.5-3.576-3.569-4.5-8.5-3.892-13.906 7.5-22" style="opacity:1"/><path fill="#0e1010" d="M716.5 744.5q10.215-1.563 14.5 8a64.2 64.2 0 0 1 0 16q-4.752 10.002-15.5 7.5a25.6 25.6 0 0 1-5.5-6.5 64.2 64.2 0 0 1 0-16q2.416-5.157 6.5-9" style="opacity:1"/><path fill="#121516" d="M167.5 745.5q7.196-.569 14 1.5 3.441 4.077 3 9.5h-22q-.276-6.936 5-11" style="opacity:1"/><path fill="#0f1112" d="M366.5 744.5q12.797-2.333 16.5 10 1.428 8.792-2 17-6.283 6.882-15.5 4.5-3.953-2.941-5.5-7.5a72.5 72.5 0 0 1 0-17q2.541-4.287 6.5-7" style="opacity:1"/><path fill="#111314" d="M449.5 745.5q7.196-.569 14 1.5 3.441 4.077 3 9.5h-22a18.5 18.5 0 0 1 .5-6 31.5 31.5 0 0 0 4.5-5" style="opacity:1"/><path fill="#0f1112" d="M213.5 746.5q11.826-2.96 16.5 8 1.813 9.579-3 18-6.88 6.206-15.5 2.5-3.591-2.928-4.5-7.5a42.5 42.5 0 0 1 0-13q1.957-5.192 6.5-8" style="opacity:1"/><path fill="#111417" d="M541.5 760.5h5q.178 21.842-20 14-3.088-6.8 3-10.5 6.322-1.283 12-3.5" style="opacity:1"/><path fill="#101316" d="M266.5 760.5h4q.114 22.055-20.5 14-2.565-8.954 6.5-11.5 5.385-.466 10-2.5" style="opacity:1"/><path fill="#f9fafb" d="M933.5 773.5h8v8h-8z" style="opacity:1"/><path fill="#fafcfc" d="M955.5 773.5h8v8h-8z" style="opacity:1"/><path fill="#e3e9ea" d="M910.5 773.5h9v8h-9z" style="opacity:1"/></svg>