<svg xmlns="http://www.w3.org/2000/svg" width="100" height="100" style="shape-rendering:geometricPrecision;text-rendering:geometricPrecision;image-rendering:optimizeQuality;fill-rule:evenodd;clip-rule:evenodd"><path fill="#f9f9f9" d="M42.5-.5h13q51.117 13.692 40.5 66Q77.15 105.799 33.5 96 3.902 84.67-.5 53.5v-9q6.648-36.648 43-45m0 8q9.555-.23 19 1 33.558 13.845 28.5 50-9.203 30.363-41 32-23.535-.263-36-20Q-2.856 35.673 27.5 13a45.2 45.2 0 0 1 15-5.5" style="opacity:.996"/><path fill="#e8e8e8" d="M42.5 7.5q3.717-.996 8-1 5.953-.31 11 2a124 124 0 0 0-19-1" style="opacity:.714"/><path fill="#fcfcfc" d="M26.5 44.5a248 248 0 0 0 27-26q5.205-3.393 9.5 2a12.5 12.5 0 0 1 0 7A315 315 0 0 1 42.5 49Q52.73 59.732 63 70.5q1.287 14.237-11.5 8.5L27 54.5q-4.32-5.093-.5-10" style="opacity:1"/><path fill="#e7e7e7" d="M53.5 18.5a248 248 0 0 1-27 26 248 248 0 0 1 27-26" style="opacity:.784"/></svg>