<?xml version="1.0" encoding="UTF-8"?>
<!DOCTYPE svg PUBLIC "-//W3C//DTD SVG 1.1//EN" "http://www.w3.org/Graphics/SVG/1.1/DTD/svg11.dtd">
<svg xmlns="http://www.w3.org/2000/svg" version="1.1" width="800px" height="800px" style="shape-rendering:geometricPrecision; text-rendering:geometricPrecision; image-rendering:optimizeQuality; fill-rule:evenodd; clip-rule:evenodd" xmlns:xlink="http://www.w3.org/1999/xlink">
<g><path style="opacity:1" fill="#2d302e" d="M 354.5,-0.5 C 384.5,-0.5 414.5,-0.5 444.5,-0.5C 492.342,5.26719 538.175,18.9339 582,40.5C 601.166,50.8514 619.666,62.1847 637.5,74.5C 640.924,76.8797 643.924,79.713 646.5,83C 650.31,85.3142 653.977,87.8142 657.5,90.5C 657.525,93.179 658.858,94.5123 661.5,94.5C 661.525,97.179 662.858,98.5123 665.5,98.5C 678.167,109.167 689.833,120.833 700.5,133.5C 700.525,136.179 701.858,137.512 704.5,137.5C 704.525,140.179 705.858,141.512 708.5,141.5C 711.186,145.023 713.686,148.69 716,152.5C 721.491,157.808 725.991,163.808 729.5,170.5C 729.731,173.063 731.065,174.73 733.5,175.5C 769.822,229.824 791.822,289.491 799.5,354.5C 799.5,384.5 799.5,414.5 799.5,444.5C 784.421,557.628 732.421,649.461 643.5,720C 584.462,764.166 518.129,790.666 444.5,799.5C 414.5,799.5 384.5,799.5 354.5,799.5C 289.501,791.828 229.834,769.828 175.5,733.5C 174.73,731.065 173.063,729.731 170.5,729.5C 167.926,728.594 165.593,727.261 163.5,725.5C 163.043,723.227 161.71,721.894 159.5,721.5C 156.152,720.988 153.819,719.155 152.5,716C 148.69,713.686 145.023,711.186 141.5,708.5C 141.512,705.858 140.179,704.525 137.5,704.5C 137.512,701.858 136.179,700.525 133.5,700.5C 120.809,689.809 109.142,678.142 98.5,665.5C 98.5123,662.858 97.179,661.525 94.5,661.5C 94.5123,658.858 93.179,657.525 90.5,657.5C 85.987,650.477 80.987,643.81 75.5,637.5C 75.1667,636.5 74.5,635.833 73.5,635.5C 32.6211,578.229 7.9544,514.562 -0.5,444.5C -0.5,414.5 -0.5,384.5 -0.5,354.5C 7.9544,284.438 32.6211,220.771 73.5,163.5C 75.7727,163.043 77.106,161.71 77.5,159.5C 78.0116,156.152 79.845,153.819 83,152.5C 85.3142,148.69 87.8142,145.023 90.5,141.5C 92.5,141.5 93.5,140.5 93.5,138.5C 95.5,138.5 96.5,137.5 96.5,135.5C 98.0269,135.573 99.0269,134.906 99.5,133.5C 99.7086,132.078 100.209,130.745 101,129.5C 112.092,117.904 123.592,106.904 135.5,96.5C 137.5,96.5 138.5,95.5 138.5,93.5C 140.5,93.5 141.5,92.5 141.5,90.5C 145.023,87.8142 148.69,85.3142 152.5,83C 157.808,77.5088 163.808,73.0088 170.5,69.5C 172.5,69.5 173.5,68.5 173.5,66.5C 228.413,29.7485 288.747,7.41513 354.5,-0.5 Z"/></g>
<g><path style="opacity:0.216" fill="#a5a6a5" d="M 173.5,66.5 C 173.5,68.5 172.5,69.5 170.5,69.5C 171.167,68.1667 172.167,67.1667 173.5,66.5 Z"/></g>
<g><path style="opacity:0.204" fill="#9e9f9e" d="M 141.5,90.5 C 141.5,92.5 140.5,93.5 138.5,93.5C 139.167,92.1667 140.167,91.1667 141.5,90.5 Z"/></g>
<g><path style="opacity:0.827" fill="#7c7e7c" d="M 657.5,90.5 C 659.167,91.5 660.5,92.8333 661.5,94.5C 658.858,94.5123 657.525,93.179 657.5,90.5 Z"/></g>
<g><path style="opacity:0.204" fill="#9ea09f" d="M 138.5,93.5 C 138.5,95.5 137.5,96.5 135.5,96.5C 136.167,95.1667 137.167,94.1667 138.5,93.5 Z"/></g>
<g><path style="opacity:0.827" fill="#7c7e7d" d="M 661.5,94.5 C 663.167,95.5 664.5,96.8333 665.5,98.5C 662.858,98.5123 661.525,97.179 661.5,94.5 Z"/></g>
<g><path style="opacity:1" fill="#fcfcfc" d="M 542.5,107.5 C 546.56,107.485 550.56,107.985 554.5,109C 564.997,114.748 575.33,120.748 585.5,127C 592.132,134.272 594.299,142.772 592,152.5C 564.398,201.093 536.398,249.426 508,297.5C 486.021,286.104 464.854,273.604 444.5,260C 471.533,212.768 498.7,165.601 526,118.5C 530.356,112.92 535.856,109.253 542.5,107.5 Z"/></g>
<g><path style="opacity:0.204" fill="#959696" d="M 99.5,133.5 C 99.0269,134.906 98.0269,135.573 96.5,135.5C 96.9731,134.094 97.9731,133.427 99.5,133.5 Z"/></g>
<g><path style="opacity:0.827" fill="#7c7e7d" d="M 700.5,133.5 C 702.167,134.5 703.5,135.833 704.5,137.5C 701.858,137.512 700.525,136.179 700.5,133.5 Z"/></g>
<g><path style="opacity:0.204" fill="#9ea09f" d="M 96.5,135.5 C 96.5,137.5 95.5,138.5 93.5,138.5C 94.1667,137.167 95.1667,136.167 96.5,135.5 Z"/></g>
<g><path style="opacity:0.2" fill="#9d9e9e" d="M 93.5,138.5 C 93.5,140.5 92.5,141.5 90.5,141.5C 91.1667,140.167 92.1667,139.167 93.5,138.5 Z"/></g>
<g><path style="opacity:0.827" fill="#7c7e7c" d="M 704.5,137.5 C 706.167,138.5 707.5,139.833 708.5,141.5C 705.858,141.512 704.525,140.179 704.5,137.5 Z"/></g>
<g><path style="opacity:0.227" fill="#c2c3c3" d="M 77.5,159.5 C 77.106,161.71 75.7727,163.043 73.5,163.5C 74.326,161.736 75.6593,160.402 77.5,159.5 Z"/></g>
<g><path style="opacity:0.851" fill="#909290" d="M 729.5,170.5 C 731.587,171.585 732.92,173.251 733.5,175.5C 731.065,174.73 729.731,173.063 729.5,170.5 Z"/></g>
<g><path style="opacity:1" fill="#fdfdfd" d="M 352.5,237.5 C 359.762,237.149 366.429,238.982 372.5,243C 437.748,281.166 503.082,319.166 568.5,357C 576.047,365.957 577.38,375.791 572.5,386.5C 566.241,396.776 560.074,407.109 554,417.5C 546.295,426.48 536.795,428.98 525.5,425C 458.337,386.586 391.337,347.919 324.5,309C 316.576,301.721 314.076,292.888 317,282.5C 323.828,269.506 331.162,256.839 339,244.5C 342.985,240.978 347.485,238.645 352.5,237.5 Z"/></g>
<g><path style="opacity:1" fill="#fdfdfd" d="M 225.5,405.5 C 231.833,401.167 237.167,395.833 241.5,389.5C 262.676,366.147 281.676,341.147 298.5,314.5C 377.059,359.697 455.559,405.031 534,450.5C 524.165,472.016 514.165,493.683 504,515.5C 488.258,554.061 478.258,594.061 474,635.5C 473.176,651.741 473.342,667.907 474.5,684C 388.398,664.939 308.731,631.105 235.5,582.5C 254.413,547.672 273.58,513.006 293,478.5C 293.667,477.167 293.667,475.833 293,474.5C 263.004,502.496 233.671,531.163 205,560.5C 177.103,538.272 151.437,513.606 128,486.5C 127.28,484.888 127.446,483.388 128.5,482C 161.954,457.937 194.287,432.437 225.5,405.5 Z"/></g>
<g><path style="opacity:1" fill="#c5c6c6" d="M 241.5,389.5 C 237.167,395.833 231.833,401.167 225.5,405.5C 230.5,399.833 235.833,394.5 241.5,389.5 Z"/></g>
<g><path style="opacity:0.012" fill="#fefffe" d="M 73.5,635.5 C 74.5,635.833 75.1667,636.5 75.5,637.5C 74.1667,637.5 73.5,636.833 73.5,635.5 Z"/></g>
<g><path style="opacity:0.827" fill="#7c7e7c" d="M 90.5,657.5 C 93.179,657.525 94.5123,658.858 94.5,661.5C 92.8333,660.5 91.5,659.167 90.5,657.5 Z"/></g>
<g><path style="opacity:0.827" fill="#7c7e7d" d="M 94.5,661.5 C 97.179,661.525 98.5123,662.858 98.5,665.5C 96.8333,664.5 95.5,663.167 94.5,661.5 Z"/></g>
<g><path style="opacity:0.827" fill="#7c7e7d" d="M 133.5,700.5 C 136.179,700.525 137.512,701.858 137.5,704.5C 135.833,703.5 134.5,702.167 133.5,700.5 Z"/></g>
<g><path style="opacity:0.827" fill="#7c7e7c" d="M 137.5,704.5 C 140.179,704.525 141.512,705.858 141.5,708.5C 139.833,707.5 138.5,706.167 137.5,704.5 Z"/></g>
<g><path style="opacity:0.227" fill="#c2c3c3" d="M 159.5,721.5 C 161.71,721.894 163.043,723.227 163.5,725.5C 161.736,724.674 160.402,723.341 159.5,721.5 Z"/></g>
<g><path style="opacity:0.851" fill="#909290" d="M 170.5,729.5 C 173.063,729.731 174.73,731.065 175.5,733.5C 173.251,732.92 171.585,731.587 170.5,729.5 Z"/></g>
</svg>
