<svg xmlns="http://www.w3.org/2000/svg" width="100" height="100" style="shape-rendering:geometricPrecision;text-rendering:geometricPrecision;image-rendering:optimizeQuality;fill-rule:evenodd;clip-rule:evenodd"><path fill="#2c2f2d" d="M39.5-.5h19q32.954 7.955 41 41v18q-5.265 21.018-23 33.5-8.742 4.818-18 7.5h-18q-33.045-8.046-41-41v-19Q8 8 39.5-.5" style="opacity:.992"/><path fill="#f1f1f1" d="M66.5 12.5q5.86-.087 7 5.5a64.6 64.6 0 0 1-11 18.5q-4.408-1.434-7-5a89.6 89.6 0 0 1 11-19" style="opacity:1"/><path fill="#f3f3f3" d="M41.5 29.5q2.55-.24 5 .5l23 13q3.945 4.8-1 9-2.5 1-5 0l-23-13q-1.61-1.108-2-3a59 59 0 0 1 3-6.5" style="opacity:1"/><path fill="#f7f7f7" d="M59.5 76.5q-.603 4.465-3 8-13.777-3.132-26-10.5-1.58-2.082-.5-4.5a32 32 0 0 0 3.5-6q2.022-1.54 1.5-4-1.559 1.116-1.5 3a86 86 0 0 1-8.5 7 40.5 40.5 0 0 1-9.5-9 90 90 0 0 1 10-8.5 257 257 0 0 1 12-12.5 311 311 0 0 1 29 16.5q-5.748 9.495-7 20.5" style="opacity:1"/><path fill="#828483" d="M33.5 63.5v-1q-.059-1.884 1.5-3 .522 2.46-1.5 4" style="opacity:1"/><path fill="#888988" d="M59.5 76.5v9q-1.936.356-3-1 2.397-3.535 3-8" style="opacity:1"/></svg>