<svg xmlns="http://www.w3.org/2000/svg" width="100" height="100" style="shape-rendering:geometricPrecision;text-rendering:geometricPrecision;image-rendering:optimizeQuality;fill-rule:evenodd;clip-rule:evenodd"><path fill="#2c2f2c" d="M39.5-.5h20q32.17 8.67 40 41v18q-5.265 21.018-23 33.5-8.649 5.09-18 7.5h-18q-32.335-7.834-41-40v-20Q8 8 39.5-.5" style="opacity:.978"/><path fill="#e8e8e8" d="M35.5 9.5a545 545 0 0 1 33 .5A146 146 0 0 0 82 24.5q1 24 0 48L79.5 75a61 61 0 0 1-11 .5q1.446 6.44-4 9.5-21 1-42 0-3.078-1.395-4.5-4.5-1-28.5 0-57 5.001-6.833 13.5-5-.026-5.445 4-9" style="opacity:1"/><path fill="#2f3330" d="M68.5 28.5q3.672 1.46 8 1v40h-6q.25-17.507-.5-35a649 649 0 0 0-.5 36 677 677 0 0 1-1.5-37 267 267 0 0 1-13.5-14 82 82 0 0 0-18-1q-.255-1.983 1-3.5 13.491-.75 27-.5-.247 5.025.5 10 1.034 2.776 3.5 4" style="opacity:1"/><path fill="#323533" d="M68.5 18.5q3.343.833 5 4-5.901 2.613-5-4" style="opacity:1"/><path fill="#2c302d" d="M23.5 24.5q13.227-1.49 27-1-3.5 17.5 14 14a442 442 0 0 1-1 42 381 381 0 0 0-39-1v-53q12.51.25 25-.5-12.99-.75-26-.5" style="opacity:1"/><path fill="#222623" d="M23.5 24.5q13.01-.25 26 .5-12.49.75-25 .5v53a381 381 0 0 1 39 1 401 401 0 0 1-40 1z" style="opacity:1"/><path fill="#252926" d="M55.5 28.5a31.4 31.4 0 0 1 5 4.5q-5.987 1.766-5-4.5" style="opacity:1"/><path fill="#eff0ef" d="M28.5 42.5q15.009-.25 30 .5 2 2 0 4-15 1-30 0-1.842-2.235 0-4.5" style="opacity:1"/><path fill="#eaeaea" d="M28.5 51.5q15.009-.25 30 .5 1.32 2.034 1 4.5-15.508.25-31-.5-1.842-2.235 0-4.5" style="opacity:1"/><path fill="#090f0a" d="M68.5 28.5h9v42h-8q-.25-18.007.5-36 .75 17.493.5 35h6v-40q-4.328.46-8-1" style="opacity:1"/><path fill="#e3e3e3" d="M27.5 61.5h18v5q-8.514.25-17-.5-1.32-2.034-1-4.5" style="opacity:1"/></svg>