<?xml version="1.0" encoding="UTF-8"?>
<!DOCTYPE svg PUBLIC "-//W3C//DTD SVG 1.1//EN" "http://www.w3.org/Graphics/SVG/1.1/DTD/svg11.dtd">
<svg xmlns="http://www.w3.org/2000/svg" version="1.1" width="512px" height="512px" style="shape-rendering:geometricPrecision; text-rendering:geometricPrecision; image-rendering:optimizeQuality; fill-rule:evenodd; clip-rule:evenodd" xmlns:xlink="http://www.w3.org/1999/xlink">
<g><path style="opacity:0.992" fill="#2d302e" d="M 220.5,-0.5 C 243.833,-0.5 267.167,-0.5 290.5,-0.5C 385.041,15.8787 452.541,67.5454 493,154.5C 501.754,175.908 507.92,197.908 511.5,220.5C 511.5,243.833 511.5,267.167 511.5,290.5C 495.121,385.041 443.455,452.541 356.5,493C 335.092,501.754 313.092,507.92 290.5,511.5C 267.167,511.5 243.833,511.5 220.5,511.5C 125.959,495.121 58.4586,443.455 18,356.5C 9.24626,335.092 3.07959,313.092 -0.5,290.5C -0.5,267.167 -0.5,243.833 -0.5,220.5C 15.8787,125.959 67.5454,58.4586 154.5,18C 175.908,9.24626 197.908,3.07959 220.5,-0.5 Z"/></g>
<g><path style="opacity:1" fill="#fafafa" d="M 193.5,52.5 C 245.168,52.3333 296.834,52.5 348.5,53C 374.668,78.8344 400.501,105.001 426,131.5C 426.833,208.502 426.667,285.502 425.5,362.5C 422.234,374.593 414.901,383.093 403.5,388C 387.864,389.196 372.198,389.863 356.5,390C 356,390.5 355.5,391 355,391.5C 354.994,400.625 353.994,409.625 352,418.5C 345.72,428.443 336.887,434.943 325.5,438C 258.167,438.667 190.833,438.667 123.5,438C 109.316,433.481 100.15,423.981 96,409.5C 95.1667,315.498 95.3333,221.498 96.5,127.5C 99.7329,115.436 107.066,106.936 118.5,102C 134.128,100.765 149.794,100.098 165.5,100C 166,99.5 166.5,99 167,98.5C 163.797,75.8726 172.631,60.5393 193.5,52.5 Z"/></g>
<g><path style="opacity:1" fill="#2e312f" d="M 196.5,75.5 C 242.167,75.5 287.833,75.5 333.5,75.5C 333.333,90.5037 333.5,105.504 334,120.5C 337.454,134.286 345.954,143.119 359.5,147C 374.163,147.5 388.83,147.667 403.5,147.5C 403.667,217.834 403.5,288.167 403,358.5C 401.167,361.667 398.667,364.167 395.5,366C 382.167,366.667 368.833,366.667 355.5,366C 354.669,303.57 354.169,241.07 354,178.5C 329.167,153 304.333,127.5 279.5,102C 249.548,100.698 219.548,100.031 189.5,100C 186.386,90.1545 188.719,81.9878 196.5,75.5 Z"/></g>
<g><path style="opacity:1" fill="#363836" d="M 356.5,93.5 C 364.852,101.352 373.019,109.352 381,117.5C 382.122,119.624 383.622,121.457 385.5,123C 360.565,130.403 350.399,121.236 355,95.5C 355.717,94.9558 356.217,94.2891 356.5,93.5 Z"/></g>
<g><path style="opacity:1" fill="#2e312f" d="M 126.5,123.5 C 171.168,123.333 215.835,123.5 260.5,124C 261.109,139.793 261.942,155.626 263,171.5C 267.36,182.771 275.193,190.605 286.5,195C 301.5,195.333 316.5,195.667 331.5,196C 332,196.5 332.5,197 333,197.5C 333.667,266.5 333.667,335.5 333,404.5C 331.439,407.783 329.273,410.617 326.5,413C 259.582,414.66 192.582,414.993 125.5,414C 123.667,412.167 121.833,410.333 120,408.5C 118.338,315.914 118.005,223.248 119,130.5C 121.396,127.933 123.896,125.6 126.5,123.5 Z"/></g>
<g><path style="opacity:1" fill="#353836" d="M 285.5,142.5 C 286.239,142.369 286.906,142.536 287.5,143C 295.969,152.47 304.803,161.637 314,170.5C 314.617,171.449 314.451,172.282 313.5,173C 287.838,177.511 278.504,167.344 285.5,142.5 Z"/></g>
<g><path style="opacity:1" fill="#fdfdfd" d="M 150.5,221.5 C 199.834,221.333 249.168,221.5 298.5,222C 304.393,223.232 307.393,226.899 307.5,233C 306.855,238.636 303.855,242.302 298.5,244C 249.833,244.667 201.167,244.667 152.5,244C 146.895,242.493 143.562,238.827 142.5,233C 143.825,228.166 146.492,224.333 150.5,221.5 Z"/></g>
<g><path style="opacity:1" fill="#fdfdfd" d="M 152.5,269.5 C 201.168,269.333 249.834,269.5 298.5,270C 306.609,273.306 309.109,279.139 306,287.5C 304.238,290.268 301.738,291.768 298.5,292C 249.167,292.667 199.833,292.667 150.5,292C 139.458,283.393 140.125,275.893 152.5,269.5 Z"/></g>
<g><path style="opacity:1" fill="#b0b1b0" d="M 230.5,319.5 C 203.122,319.184 175.789,319.517 148.5,320.5C 148.611,319.883 148.944,319.383 149.5,319C 176.67,318.17 203.67,318.336 230.5,319.5 Z"/></g>
<g><path style="opacity:1" fill="#fdfdfd" d="M 230.5,319.5 C 237.722,325.214 238.388,331.714 232.5,339C 218.424,340.151 204.257,340.651 190,340.5C 176.5,340.333 163,340.167 149.5,340C 143.742,336.094 142.075,330.76 144.5,324C 145.645,322.598 146.978,321.431 148.5,320.5C 175.789,319.517 203.122,319.184 230.5,319.5 Z"/></g>
</svg>
