<svg xmlns="http://www.w3.org/2000/svg" width="100" height="100" style="shape-rendering:geometricPrecision;text-rendering:geometricPrecision;image-rendering:optimizeQuality;fill-rule:evenodd;clip-rule:evenodd"><path fill="#2b2e2c" d="M39.5-.5h20q32.17 8.67 40 41v18q-5.265 21.018-23 33.5-8.649 5.09-18 7.5h-18q-32.335-7.834-41-40v-20Q8 8 39.5-.5" style="opacity:.987"/><path fill="#edeeed" d="M73.5 13.5q14.127.85 9.5 14L51.5 63Q27.239 77.738 38 51.5a641 641 0 0 1 35.5-38" style="opacity:1"/><path fill="#ecedec" d="M24.5 20.5q16.508-.25 33 .5 2.04 2.906-1 5l-31 1-2.5 2.5Q21.299 40.6 21.5 52q-.201 11.4 1.5 22.5l2.5 2.5q22.64 1.45 45-1a9.5 9.5 0 0 0 1.5-2.5l1-30q1.791-3.038 4.5-1a171 171 0 0 1 .5 32q-1.59 4.593-5.5 7.5a295 295 0 0 1-48 1q-6.843-2.44-8.5-9.5a463 463 0 0 1 0-43q2.967-6.207 8.5-10" style="opacity:1"/><path fill="#282b29" d="M73.5 20.5q5.457-1.145 4.5 4a1069 1069 0 0 0-26.5 29 221 221 0 0 1-4-4 830 830 0 0 0 26-29" style="opacity:1"/><path fill="#262826" d="M43.5 54.5q7.826 4.965-2 5.5a72 72 0 0 0 2-5.5" style="opacity:1"/></svg>