<?xml version="1.0" encoding="UTF-8"?>
<!DOCTYPE svg PUBLIC "-//W3C//DTD SVG 1.1//EN" "http://www.w3.org/Graphics/SVG/1.1/DTD/svg11.dtd">
<svg xmlns="http://www.w3.org/2000/svg" version="1.1" width="512px" height="512px" style="shape-rendering:geometricPrecision; text-rendering:geometricPrecision; image-rendering:optimizeQuality; fill-rule:evenodd; clip-rule:evenodd" xmlns:xlink="http://www.w3.org/1999/xlink">
<g><path style="opacity:0.995" fill="#2d302e" d="M 220.5,-0.5 C 243.833,-0.5 267.167,-0.5 290.5,-0.5C 385.041,15.8787 452.541,67.5454 493,154.5C 501.754,175.908 507.92,197.908 511.5,220.5C 511.5,243.833 511.5,267.167 511.5,290.5C 495.121,385.041 443.455,452.541 356.5,493C 335.092,501.754 313.092,507.92 290.5,511.5C 267.167,511.5 243.833,511.5 220.5,511.5C 125.959,495.121 58.4586,443.455 18,356.5C 9.24626,335.092 3.07959,313.092 -0.5,290.5C -0.5,267.167 -0.5,243.833 -0.5,220.5C 15.8787,125.959 67.5454,58.4586 154.5,18C 175.908,9.24626 197.908,3.07959 220.5,-0.5 Z"/></g>
<g><path style="opacity:1" fill="#fcfcfc" d="M 385.5,74.5 C 408.558,74.7085 424.058,85.7085 432,107.5C 434.236,115.951 433.903,124.284 431,132.5C 428.921,136.993 426.588,141.326 424,145.5C 370.471,205.026 316.971,264.526 263.5,324C 244.234,333.744 224.567,342.744 204.5,351C 187.02,352.187 178.854,344.02 180,326.5C 185.979,307.893 191.979,289.226 198,270.5C 199.08,268.004 200.414,265.67 202,263.5C 252.37,208.132 302.37,152.465 352,96.5C 357.198,90.967 362.698,85.8004 368.5,81C 374.02,78.11 379.686,75.9433 385.5,74.5 Z"/></g>
<g><path style="opacity:1" fill="#2f3230" d="M 385.5,103.5 C 400.444,102.612 406.944,109.612 405,124.5C 404.085,125.328 403.419,126.328 403,127.5C 359,176.833 315,226.167 271,275.5C 269.087,277.187 266.92,277.687 264.5,277C 258.636,270.801 252.469,264.968 246,259.5C 245.333,258.167 245.333,256.833 246,255.5C 289.704,207.465 333.037,159.131 376,110.5C 378.529,107.115 381.696,104.782 385.5,103.5 Z"/></g>
<g><path style="opacity:1" fill="#fbfbfb" d="M 149.5,107.5 C 195.168,107.333 240.835,107.5 286.5,108C 297.428,111.025 301.094,117.858 297.5,128.5C 295.644,131.19 293.311,133.356 290.5,135C 243.167,135.333 195.833,135.667 148.5,136C 130.16,138.679 118.326,148.845 113,166.5C 112.333,233.5 112.333,300.5 113,367.5C 115.95,384.447 125.45,395.947 141.5,402C 208.5,402.667 275.5,402.667 342.5,402C 360.104,398.397 371.271,387.897 376,370.5C 376.333,322.5 376.667,274.5 377,226.5C 380.499,219.001 386.333,216.167 394.5,218C 398,220.167 400.833,223 403,226.5C 403.667,275.167 403.667,323.833 403,372.5C 395.843,405.989 375.343,425.489 341.5,431C 276.167,431.667 210.833,431.667 145.5,431C 111.797,424.964 91.6301,405.13 85,371.5C 84.3333,303.5 84.3333,235.5 85,167.5C 89.422,142.088 103.255,123.922 126.5,113C 134.086,110.18 141.752,108.347 149.5,107.5 Z"/></g>
<g><path style="opacity:1" fill="#2f3230" d="M 224.5,279.5 C 225.552,279.351 226.552,279.517 227.5,280C 233.667,285.5 239.833,291 246,296.5C 246.638,297.609 247.138,298.775 247.5,300C 237.366,305.817 226.866,310.983 216,315.5C 214.268,315.266 213.434,314.266 213.5,312.5C 217.376,301.54 221.042,290.54 224.5,279.5 Z"/></g>
</svg>
