<?xml version="1.0" encoding="UTF-8"?>
<!DOCTYPE svg PUBLIC "-//W3C//DTD SVG 1.1//EN" "http://www.w3.org/Graphics/SVG/1.1/DTD/svg11.dtd">
<svg xmlns="http://www.w3.org/2000/svg" version="1.1" width="512px" height="512px" style="shape-rendering:geometricPrecision; text-rendering:geometricPrecision; image-rendering:optimizeQuality; fill-rule:evenodd; clip-rule:evenodd" xmlns:xlink="http://www.w3.org/1999/xlink">
<g><path style="opacity:0.998" fill="#000000" d="M 148.5,15.5 C 228.501,15.3333 308.501,15.5 388.5,16C 389.833,16.6667 391.167,17.3333 392.5,18C 419.333,44.8333 446.167,71.6667 473,98.5C 473.667,99.8333 474.333,101.167 475,102.5C 475.667,222.5 475.667,342.5 475,462.5C 470.833,480 460,490.833 442.5,495C 344.5,495.667 246.5,495.667 148.5,495C 131,490.833 120.167,480 116,462.5C 115.5,450.171 115.333,437.838 115.5,425.5C 104.495,425.667 93.495,425.5 82.5,425C 56.3605,420.194 40.8605,404.694 36,378.5C 35.3333,321.833 35.3333,265.167 36,208.5C 40.1667,191 51,180.167 68.5,176C 84.1631,175.5 99.8298,175.333 115.5,175.5C 115.333,133.165 115.5,90.832 116,48.5C 120.348,30.9858 131.182,19.9858 148.5,15.5 Z"/></g>
<g><path style="opacity:1" fill="#fef4f4" d="M 150.5,35.5 C 225.5,35.5 300.5,35.5 375.5,35.5C 375.333,59.5023 375.5,83.5023 376,107.5C 376.427,111.527 378.594,114.027 382.5,115C 406.831,115.5 431.164,115.667 455.5,115.5C 455.667,230.5 455.5,345.5 455,460.5C 452.833,468 448,472.833 440.5,475C 343.833,475.667 247.167,475.667 150.5,475C 143,472.833 138.167,468 136,460.5C 135.5,448.838 135.333,437.171 135.5,425.5C 223.536,425.987 311.536,425.487 399.5,424C 412.333,420.5 420.5,412.333 424,399.5C 425.141,376.04 425.641,352.54 425.5,329C 425.646,305.785 425.146,282.619 424,259.5C 419.645,247.81 411.478,240.31 399.5,237C 311.536,235.513 223.536,235.013 135.5,235.5C 135.333,173.832 135.5,112.166 136,50.5C 138.351,42.9841 143.184,37.9841 150.5,35.5 Z"/></g>
<g><path style="opacity:1" fill="#d2cae3" d="M 395.5,50.5 C 410.632,65.1315 425.632,79.9648 440.5,95C 425.504,95.4999 410.504,95.6666 395.5,95.5C 395.5,80.5 395.5,65.5 395.5,50.5 Z"/></g>
<g><path style="opacity:1" fill="#010101" d="M 171.5,85.5 C 200.169,85.3334 228.835,85.5 257.5,86C 264.665,88.5014 266.832,93.3347 264,100.5C 262.363,102.81 260.196,104.31 257.5,105C 229.167,105.667 200.833,105.667 172.5,105C 166.743,102.318 164.576,97.8175 166,91.5C 167.36,88.9774 169.193,86.9774 171.5,85.5 Z"/></g>
<g><path style="opacity:1" fill="#000000" d="M 171.5,125.5 C 226.834,125.333 282.168,125.5 337.5,126C 344.665,128.501 346.832,133.335 344,140.5C 342.363,142.81 340.196,144.31 337.5,145C 282.5,145.667 227.5,145.667 172.5,145C 166.743,142.318 164.576,137.818 166,131.5C 167.36,128.977 169.193,126.977 171.5,125.5 Z"/></g>
<g><path style="opacity:1" fill="#000000" d="M 171.5,165.5 C 226.834,165.333 282.168,165.5 337.5,166C 344.665,168.501 346.832,173.335 344,180.5C 342.363,182.81 340.196,184.31 337.5,185C 282.5,185.667 227.5,185.667 172.5,185C 166.743,182.318 164.576,177.818 166,171.5C 167.36,168.977 169.193,166.977 171.5,165.5 Z"/></g>
<g><path style="opacity:1" fill="#657ffd" d="M 70.5,195.5 C 85.5,195.5 100.5,195.5 115.5,195.5C 115.5,208.833 115.5,222.167 115.5,235.5C 100.496,235.667 85.4963,235.5 70.5,235C 59.0159,230.835 54.1826,222.668 56,210.5C 58.3509,202.984 63.1842,197.984 70.5,195.5 Z"/></g>
<g><path style="opacity:1" fill="#7fa9fd" d="M 55.5,250.5 C 59.3692,252.265 63.3692,253.765 67.5,255C 177.223,255.006 286.889,255.673 396.5,257C 401.062,258.627 403.895,261.794 405,266.5C 405.984,309.892 405.65,353.226 404,396.5C 402.181,401.336 398.681,404.169 393.5,405C 289.833,405.667 186.167,405.667 82.5,405C 69,400.833 60.1667,392 56,378.5C 55.5,335.835 55.3333,293.168 55.5,250.5 Z"/></g>
<g><path style="opacity:1" fill="#010102" d="M 81.5,275.5 C 93.2859,274.937 104.953,275.771 116.5,278C 146.146,289.451 158.646,310.951 154,342.5C 145.007,371.64 125.174,385.973 94.5,385.5C 90.5,385.333 86.5,385.167 82.5,385C 79.9427,384.315 78.1094,382.815 77,380.5C 75.355,347.894 75.0217,315.227 76,282.5C 76.9668,279.379 78.8001,277.046 81.5,275.5 Z"/></g>
<g><path style="opacity:1" fill="#010102" d="M 193.5,275.5 C 214.816,274.014 228.65,283.347 235,303.5C 235.667,320.5 235.667,337.5 235,354.5C 229.36,378.75 214.193,388.583 189.5,384C 175.716,378.885 167.883,369.052 166,354.5C 165.053,336.114 165.387,317.781 167,299.5C 171.944,287.05 180.777,279.05 193.5,275.5 Z"/></g>
<g><path style="opacity:1" fill="#020204" d="M 291.5,275.5 C 297.072,274.99 302.405,275.823 307.5,278C 311.759,284.019 311.093,289.352 305.5,294C 275.957,296.526 263.123,312.359 267,341.5C 273.634,357.125 285.467,365.291 302.5,366C 310.674,369.212 312.508,374.712 308,382.5C 304.685,384.715 301.018,385.715 297,385.5C 264.854,380.353 247.687,361.519 245.5,329C 248.501,300.503 263.835,282.669 291.5,275.5 Z"/></g>
<g><path style="opacity:1" fill="#020204" d="M 332.5,275.5 C 336.327,275.387 339.827,276.387 343,278.5C 346.91,287.319 351.077,295.986 355.5,304.5C 359.926,295.728 364.259,286.894 368.5,278C 375.032,274.175 380.532,275.342 385,281.5C 385.652,284.594 385.318,287.594 384,290.5C 377.889,303.721 372.056,317.055 366.5,330.5C 372.568,344.536 378.735,358.536 385,372.5C 386.243,380.686 382.743,385.02 374.5,385.5C 372.029,385.205 369.863,384.205 368,382.5C 364.09,373.681 359.923,365.014 355.5,356.5C 351.088,365.657 346.422,374.657 341.5,383.5C 328.724,387.225 323.89,382.558 327,369.5C 332.833,356.5 338.667,343.5 344.5,330.5C 338.43,316.458 332.264,302.458 326,288.5C 324.881,282.469 327.048,278.136 332.5,275.5 Z"/></g>
<g><path style="opacity:1" fill="#7fa8fd" d="M 95.5,295.5 C 119.447,295.117 132.78,306.784 135.5,330.5C 132.78,354.216 119.447,365.883 95.5,365.5C 95.5,342.167 95.5,318.833 95.5,295.5 Z"/></g>
<g><path style="opacity:1" fill="#7fa8fd" d="M 196.5,295.5 C 205.479,294.729 211.645,298.396 215,306.5C 215.667,322.167 215.667,337.833 215,353.5C 213.116,361.288 208.116,365.288 200,365.5C 192.346,365.004 187.679,361.004 186,353.5C 185.333,337.833 185.333,322.167 186,306.5C 187.684,300.984 191.184,297.318 196.5,295.5 Z"/></g>
</svg>
