<svg xmlns="http://www.w3.org/2000/svg" width="640" height="640" style="shape-rendering:geometricPrecision;text-rendering:geometricPrecision;image-rendering:optimizeQuality;fill-rule:evenodd;clip-rule:evenodd"><path fill="#a79e8f" d="M528.5 105.5h-366q.25 24.005-.5 48-.41 2.744-2.5 4.5-7.323 2.332-15 1l-3.5-3.5a760 760 0 0 1-.5-39h4q-.25 18.007.5 36 .75 1.75 2.5 2.5 5.239 1.506 9.5-1.5.75-23.995.5-48-9.783.485-19-1h20q-1.608-16.283-17-9.5-3.637 4-4 9.5-1.344 1.509-2 0-2.044-13.493 12-15 14.674.337 14 15 183.751-.5 367 1m-390-1h-1q.363-5.5 4-9.5 15.392-6.783 17 9.5z" style="opacity:1"/><path fill="#9d9588" d="M110.5 105.5q-.498 222.105 1 444-2-110.496-2-222 0-111.25 1-222" style="opacity:1"/><path fill="#ebd6af" d="M415.5 528.5q-2.847.884-6 .5-4.432 3.108-10 4 2 1 0 2-5.263-.032-9.5 2.5-4.62-1.821-9 1-4.627-1.48-9 1-2.082-1.58-4.5-.5-2 1 0 2-1.89 1.67-3.5.5a336 336 0 0 0-24 3q-1.902-.174-4-1l-1 2q-3.504-1.406-7.5 0-11.017-.085-21.5 2-85.366-1.433-177 0a3156 3156 0 0 1-16.5-2l-1-2a23443 23443 0 0 0 0-433 10.8 10.8 0 0 1 2.5-3q8.309.618 17 0a54 54 0 0 1 5.5 2 213 213 0 0 0 10.5-3q2.133.141 4.5 1 1.712 1.388 0 2.5 3.808 1.649 2 5l2 10q-1.446 7.61 0 16-3.157 4.327 0 9a36 36 0 0 0-4.5 3.5l-3.5-3.5q-.048-14.091.5-31.5-4.101-1.293-.5-2.5l-5.5-3.5q-2.23 1.13-.5 2.5a23 23 0 0 1-5 2l2 3a758 758 0 0 1-2 26l2 4q-.174 1.903-1 4 3.157 2.003 2 5 3.637.439 5.5 3.5a7.25 7.25 0 0 1 2.5-2q2.645.291 5.5 0a6.55 6.55 0 0 1 3 3q3.526-3.505 8.5-4.5-2.05-3.572 1-6.5-1.543-19.695-.5-41 2.23-1.13.5-2.5 3.075-.789 5.5-2.5l1 2q175.763-.764 352-1a20.5 20.5 0 0 1 3.5 2.5q-1.464 164.671 0 320a2540 2540 0 0 0-2 18.5 3.65 3.65 0 0 0 1 1.5 115 115 0 0 0-3.5 12.5q-.981 3.761-3.5 6.5l1 1q-4.071 3.725-8 1.5-.747 1.654-1 3-4.515-1.154-9-2.5a50.6 50.6 0 0 0-12-6q-10.327-12.27-19-4a7.3 7.3 0 0 0 3 2q-1.781 5.947-7 11l1 1q-3.626 3.023-5 6l1 1q-5.982 4.48-8.5 11.5a85.4 85.4 0 0 0-14.5 16.5q-9.913 5.697-18 11.5v3q-2.835-.305-4.5 2l-3-1a2.43 2.43 0 0 0-.5 2" style="opacity:1"/><path fill="#e5d5b8" d="M135.5 104.5q.656 1.509 2 0h1q9.217 1.485 19 1 .25 24.005-.5 48-4.261 3.006-9.5 1.5-1.75-.75-2.5-2.5a648 648 0 0 1-.5-36h-4q-.25 19.506.5 39l3.5 3.5q7.677 1.332 15-1 2.09-1.756 2.5-4.5.75-23.995.5-48h366q.99 2.196 1 5a61055 61055 0 0 0-1.5 344 44.8 44.8 0 0 1-5 16q-2.604 4.859-7.5 7-2.506-2.262-5.5-1a26.7 26.7 0 0 0-6.5-1.5 291 291 0 0 0-24.5-13.5q-14.568 29.585-38.5 52.5a165 165 0 0 0-14 11.5q-5.011 3-11 3a2.43 2.43 0 0 1 .5-2l3 1q1.665-2.305 4.5-2v-3q8.087-5.803 18-11.5a85.4 85.4 0 0 1 14.5-16.5q2.518-7.02 8.5-11.5l-1-1q1.374-2.977 5-6l-1-1q5.219-5.053 7-11a7.3 7.3 0 0 1-3-2q8.673-8.27 19 4a50.6 50.6 0 0 1 12 6q4.485 1.346 9 2.5.253-1.346 1-3 3.929 2.225 8-1.5l-1-1q2.519-2.739 3.5-6.5 1.41-6.393 3.5-12.5a3.65 3.65 0 0 1-1-1.5q.97-9.296 2-18.5-1.464-155.329 0-320a20.5 20.5 0 0 0-3.5-2.5q-176.237.236-352 1l-1-2q-2.425 1.711-5.5 2.5 1.73 1.37-.5 2.5-1.043 21.305.5 41-3.05 2.928-1 6.5-4.974.995-8.5 4.5a6.55 6.55 0 0 0-3-3 26 26 0 0 1-5.5 0 7.25 7.25 0 0 0-2.5 2q-1.863-3.061-5.5-3.5 1.157-2.997-2-5 .826-2.097 1-4l-2-4a758 758 0 0 0 2-26l-2-3a23 23 0 0 0 5-2q-1.73-1.37.5-2.5l5.5 3.5q-3.601 1.207.5 2.5-.548 17.409-.5 31.5l3.5 3.5a36 36 0 0 1 4.5-3.5q-3.157-4.673 0-9-1.446-8.39 0-16l-2-10q1.808-3.351-2-5 1.712-1.112 0-2.5-2.367-.859-4.5-1a213 213 0 0 1-10.5 3 54 54 0 0 0-5.5-2q-8.691.618-17 0a10.8 10.8 0 0 0-2.5 3 23443 23443 0 0 1 0 433l1 2q8.328 1.032 16.5 2 91.634-1.433 177 0 10.483-2.085 21.5-2l-3 2a124 124 0 0 1-21 1 8534 8534 0 0 1-184.5-1q-1.492.85-2.5 2h-5a49396 49396 0 0 1-1-444q12.225-1.49 25-1" style="opacity:1"/><path fill="#faf9f4" d="M515.5 477.5q-40.662 27.84-86 48h-3a165 165 0 0 1 14-11.5q23.932-22.915 38.5-52.5a291 291 0 0 1 24.5 13.5 26.7 26.7 0 0 1 6.5 1.5q2.994-1.262 5.5 1" style="opacity:1"/><path fill="#dfd0b5" d="M426.5 525.5h3q-32.398 14.354-68 18.5a347 347 0 0 1-37 3.5l3-2q3.996-1.406 7.5 0l1-2q2.098.826 4 1a336 336 0 0 1 24-3q1.61 1.17 3.5-.5-2-1 0-2 2.418-1.08 4.5.5 4.373-2.48 9-1 4.38-2.821 9-1 4.237-2.532 9.5-2.5 2-1 0-2 5.568-.892 10-4 3.153.384 6-.5 5.989 0 11-3" style="opacity:1"/><path fill="#d6cab4" d="M303.5 548.5a8746 8746 0 0 1-187 1q1.008-1.15 2.5-2a8534 8534 0 0 0 184.5 1" style="opacity:1"/></svg>