<svg xmlns="http://www.w3.org/2000/svg" width="100" height="100" style="shape-rendering:geometricPrecision;text-rendering:geometricPrecision;image-rendering:optimizeQuality;fill-rule:evenodd;clip-rule:evenodd"><path fill="#2d302c" d="M39.5-.5h20q32.17 8.67 40 41v18q-5.265 21.018-23 33.5-8.649 5.09-18 7.5h-18q-32.335-7.834-41-40v-20Q8 8 39.5-.5" style="opacity:.984"/><path fill="#f20e08" d="M71.5 14.5q15.84-1.928 11.5 13L51.5 63q-7.422 3.218-15 5-2.166-1.689-2-4.5a82 82 0 0 1 3.5-12 1801 1801 0 0 1 33.5-37" style="opacity:1"/><path fill="#ef0f0a" d="M24.5 20.5a513 513 0 0 1 32 .5q3.38 1.581 1 4.5a483 483 0 0 1-31 1.5 6.98 6.98 0 0 0-3.5 2.5 248.6 248.6 0 0 0-1 44l3.5 3.5q22.64 1.45 45-1a11.4 11.4 0 0 0 1.5-3.5l1-29q1.967-3.236 5-1a240.5 240.5 0 0 1 0 31q-1.05 5.35-5.5 8.5a307.4 307.4 0 0 1-49 1q-4.98-3.677-7.5-9.5a463 463 0 0 1 0-43q2.967-6.207 8.5-10" style="opacity:1"/><path fill="#2c2f2c" d="M73.5 20.5q5.457-1.145 4.5 4a495 495 0 0 0-25 28q-1.076 1.425-2.5.5-1.898-2.006-1.5-4.5a808 808 0 0 0 24.5-28" style="opacity:1"/><path fill="#382f2c" d="M43.5 54.5q7.578 5.28-2 5 1.011-2.544 2-5" style="opacity:1"/></svg>