<?xml version="1.0" encoding="UTF-8"?>
<!DOCTYPE svg PUBLIC "-//W3C//DTD SVG 1.1//EN" "http://www.w3.org/Graphics/SVG/1.1/DTD/svg11.dtd">
<svg xmlns="http://www.w3.org/2000/svg" version="1.1" width="512px" height="512px" style="shape-rendering:geometricPrecision; text-rendering:geometricPrecision; image-rendering:optimizeQuality; fill-rule:evenodd; clip-rule:evenodd" xmlns:xlink="http://www.w3.org/1999/xlink">
<g><path style="opacity:0.995" fill="#2d302d" d="M 220.5,-0.5 C 243.833,-0.5 267.167,-0.5 290.5,-0.5C 385.041,15.8787 452.541,67.5454 493,154.5C 501.754,175.908 507.92,197.908 511.5,220.5C 511.5,243.833 511.5,267.167 511.5,290.5C 495.121,385.041 443.455,452.541 356.5,493C 335.092,501.754 313.092,507.92 290.5,511.5C 267.167,511.5 243.833,511.5 220.5,511.5C 125.959,495.121 58.4586,443.455 18,356.5C 9.24626,335.092 3.07959,313.092 -0.5,290.5C -0.5,267.167 -0.5,243.833 -0.5,220.5C 15.8787,125.959 67.5454,58.4586 154.5,18C 175.908,9.24626 197.908,3.07959 220.5,-0.5 Z"/></g>
<g><path style="opacity:1" fill="#fd0302" d="M 384.5,74.5 C 418.564,75.7323 434.731,93.3989 433,127.5C 430.832,134.172 427.832,140.505 424,146.5C 370.833,205.667 317.667,264.833 264.5,324C 243.02,334.273 221.187,343.773 199,352.5C 184.204,349.675 177.871,340.675 180,325.5C 186,306.833 192,288.167 198,269.5C 199.667,266.833 201.333,264.167 203,261.5C 253.704,205.798 304.037,149.798 354,93.5C 362.157,83.6848 372.323,77.3515 384.5,74.5 Z"/></g>
<g><path style="opacity:1" fill="#2e2f2d" d="M 385.5,103.5 C 396.555,102.399 403.221,107.232 405.5,118C 405.327,121.872 404.16,125.372 402,128.5C 357.13,177.702 312.63,227.202 268.5,277C 267.5,277.667 266.5,277.667 265.5,277C 259.636,270.801 253.469,264.968 247,259.5C 246.333,258.167 246.333,256.833 247,255.5C 290.371,207.798 333.371,159.798 376,111.5C 378.772,108.217 381.939,105.55 385.5,103.5 Z"/></g>
<g><path style="opacity:1" fill="#fc0704" d="M 148.5,107.5 C 194.501,107.333 240.501,107.5 286.5,108C 299.242,111.883 302.408,119.716 296,131.5C 294.269,133.617 292.102,135.117 289.5,136C 241.167,136.333 192.833,136.667 144.5,137C 126.197,141.967 115.697,153.8 113,172.5C 112.333,237.167 112.333,301.833 113,366.5C 115.923,386.09 127.09,397.924 146.5,402C 211.5,402.667 276.5,402.667 341.5,402C 346.477,401.675 351.144,400.341 355.5,398C 365.949,391.564 372.449,382.397 375,370.5C 375.333,323.167 375.667,275.833 376,228.5C 380.39,217.15 387.89,214.317 398.5,220C 400.969,222.441 402.802,225.274 404,228.5C 404.667,274.5 404.667,320.5 404,366.5C 399.582,402.914 379.416,424.414 343.5,431C 277.167,431.667 210.833,431.667 144.5,431C 111.728,424.83 91.8951,405.33 85,372.5C 84.3333,303.833 84.3333,235.167 85,166.5C 92.6364,132.023 113.803,112.356 148.5,107.5 Z"/></g>
<g><path style="opacity:1" fill="#312f2d" d="M 225.5,279.5 C 233.118,285.782 240.452,292.448 247.5,299.5C 247.023,300.478 246.357,301.311 245.5,302C 240.295,303.954 235.295,306.287 230.5,309C 225.153,311.726 219.487,313.56 213.5,314.5C 216.7,302.568 220.7,290.902 225.5,279.5 Z"/></g>
</svg>
