<svg xmlns="http://www.w3.org/2000/svg" width="50" height="50" style="shape-rendering:geometricPrecision;text-rendering:geometricPrecision;image-rendering:optimizeQuality;fill-rule:evenodd;clip-rule:evenodd"><path fill="#fdfefd" d="M23.5 3.5q6.608 4.344 12 10.5a10.8 10.8 0 0 1-3 2.5 39 39 0 0 1-5.5-5q-.75 10.488-.5 21h-4q.25-10.512-.5-21a39 39 0 0 1-5.5 5 10.8 10.8 0 0 1-3-2.5q4.294-6.042 10-10.5" style="opacity:.933"/><path fill="#fdfefd" d="M4.5 28.5h3q-.44 5.905 1 11.5 15.993.75 32 .5.22-6.03 1-12 1.983-.255 3.5 1 1.318 7.18-1 14a9.5 9.5 0 0 1-2.5 1.5l-17 .5a96 96 0 0 1-19-1.5q-3.357-7.542-1-15.5" style="opacity:.864"/></svg>