<?xml version="1.0" encoding="UTF-8"?>
<!DOCTYPE svg PUBLIC "-//W3C//DTD SVG 1.1//EN" "http://www.w3.org/Graphics/SVG/1.1/DTD/svg11.dtd">
<svg xmlns="http://www.w3.org/2000/svg" version="1.1" width="800px" height="800px" style="shape-rendering:geometricPrecision; text-rendering:geometricPrecision; image-rendering:optimizeQuality; fill-rule:evenodd; clip-rule:evenodd" xmlns:xlink="http://www.w3.org/1999/xlink">
<g><path style="opacity:0.977" fill="#fefefe" d="M 392.5,65.5 C 404.043,64.1345 414.376,66.9679 423.5,74C 468.667,119.167 513.833,164.333 559,209.5C 568.462,222.329 569.795,235.996 563,250.5C 552.045,265.707 537.545,270.541 519.5,265C 515.835,263.503 512.502,261.503 509.5,259C 483.972,233.805 458.805,208.305 434,182.5C 433.667,290.833 433.333,399.167 433,507.5C 425.235,529.136 410.068,537.303 387.5,532C 376.406,527.242 369.24,519.075 366,507.5C 365.667,399.167 365.333,290.833 365,182.5C 340.195,208.305 315.028,233.805 289.5,259C 275.301,269.391 260.634,270.058 245.5,261C 229.175,245.403 227.341,228.237 240,209.5C 285.167,164.333 330.333,119.167 375.5,74C 380.712,70.0607 386.379,67.2273 392.5,65.5 Z"/></g>
<g><path style="opacity:0.979" fill="#fefefe" d="M 91.5,465.5 C 112.522,462.918 126.355,471.584 133,491.5C 133.333,539.833 133.667,588.167 134,636.5C 137.619,652.452 147.452,661.952 163.5,665C 320.833,665.667 478.167,665.667 635.5,665C 652,661.833 661.833,652 665,635.5C 665.019,586.121 665.685,536.788 667,487.5C 676.202,468.651 691.035,461.818 711.5,467C 722.585,471.75 729.751,479.917 733,491.5C 733.667,542.833 733.667,594.167 733,645.5C 727.273,683.222 707.107,710.055 672.5,726C 663.79,729.427 654.79,731.761 645.5,733C 481.5,733.667 317.5,733.667 153.5,733C 115.778,727.273 88.945,707.107 73,672.5C 70.3816,666.028 68.3816,659.362 67,652.5C 65.3638,598.861 65.0305,545.194 66,491.5C 70.0168,478.318 78.5168,469.651 91.5,465.5 Z"/></g>
</svg>
