<svg xmlns="http://www.w3.org/2000/svg" width="50" height="50" style="shape-rendering:geometricPrecision;text-rendering:geometricPrecision;image-rendering:optimizeQuality;fill-rule:evenodd;clip-rule:evenodd"><path fill="#fcfcfc" d="M18.5-.5h12q14.656 5.155 19 20v10q-4.5 15.5-20 20h-10q-14.845-4.344-20-19v-12q5-14 19-19m3 5q30.548 3.59 18.5 32Q28.453 47.745 13.5 41q-17.808-16.473 0-33 3.987-2.217 8-3.5" style="opacity:.931"/><path fill="#fcfcfc" d="M23.5 11.5q7.374 1.87 1 6-5.212-2.376-1-6" style="opacity:.854"/><path fill="#fcfcfc" d="M22.5 19.5q2.927-.41 4.5 2a49.3 49.3 0 0 1 0 14q-2.5 2-5 0-1.173-8.125.5-16" style="opacity:.89"/></svg>