<?xml version="1.0" encoding="UTF-8"?>
<!DOCTYPE svg PUBLIC "-//W3C//DTD SVG 1.1//EN" "http://www.w3.org/Graphics/SVG/1.1/DTD/svg11.dtd">
<svg xmlns="http://www.w3.org/2000/svg" version="1.1" width="256px" height="256px" style="shape-rendering:geometricPrecision; text-rendering:geometricPrecision; image-rendering:optimizeQuality; fill-rule:evenodd; clip-rule:evenodd" xmlns:xlink="http://www.w3.org/1999/xlink">
<g><path style="opacity:0.994" fill="#fdfdfd" d="M 113.5,-0.5 C 122.833,-0.5 132.167,-0.5 141.5,-0.5C 195.273,8.09288 231.439,38.0929 250,89.5C 252.175,97.5627 254.009,105.563 255.5,113.5C 255.5,122.833 255.5,132.167 255.5,141.5C 246.619,195.051 216.619,231.218 165.5,250C 157.437,252.175 149.437,254.009 141.5,255.5C 132.167,255.5 122.833,255.5 113.5,255.5C 59.9489,246.619 23.7823,216.619 5,165.5C 2.82468,157.437 0.991345,149.437 -0.5,141.5C -0.5,132.167 -0.5,122.833 -0.5,113.5C 8.09288,59.7274 38.0929,23.5607 89.5,5C 97.5627,2.82468 105.563,0.991345 113.5,-0.5 Z M 117.5,26.5 C 160.821,24.571 193.654,41.9043 216,78.5C 235.398,118.255 232.065,155.922 206,191.5C 176.579,224.237 140.412,235.071 97.5,224C 56.4373,209.593 32.9373,180.76 27,137.5C 24.5845,94.1557 41.7512,61.3223 78.5,39C 90.8796,32.4965 103.88,28.3298 117.5,26.5 Z"/></g>
<g><path style="opacity:0.995" fill="#fbfbfb" d="M 126.5,62.5 C 138.972,64.7958 143.139,71.7958 139,83.5C 131.333,92.8333 123.667,92.8333 116,83.5C 112.003,72.8271 115.503,65.8271 126.5,62.5 Z"/></g>
<g><path style="opacity:1" fill="#fcfcfc" d="M 123.5,101.5 C 132.904,100.443 138.737,104.443 141,113.5C 141.667,135.5 141.667,157.5 141,179.5C 137.914,190.626 131.081,194.126 120.5,190C 116.675,187.512 114.508,184.012 114,179.5C 113.333,157.5 113.333,135.5 114,113.5C 115.155,107.851 118.322,103.851 123.5,101.5 Z"/></g>
</svg>
