<?xml version="1.0" encoding="UTF-8"?>
<!DOCTYPE svg PUBLIC "-//W3C//DTD SVG 1.1//EN" "http://www.w3.org/Graphics/SVG/1.1/DTD/svg11.dtd">
<svg xmlns="http://www.w3.org/2000/svg" version="1.1" width="1024px" height="1024px" style="shape-rendering:geometricPrecision; text-rendering:geometricPrecision; image-rendering:optimizeQuality; fill-rule:evenodd; clip-rule:evenodd" xmlns:xlink="http://www.w3.org/1999/xlink">
<g><path style="opacity:1" fill="#fdfdfd" d="M 1023.5,508.5 C 1023.5,513.833 1023.5,519.167 1023.5,524.5C 1020.53,528.32 1017.7,532.32 1015,536.5C 1002.06,550.1 989.892,564.267 978.5,579C 975.977,579.518 973.977,580.852 972.5,583C 965.551,584.153 958.884,583.486 952.5,581C 946.932,577.44 941.932,573.107 937.5,568C 932.939,565.447 928.939,562.114 925.5,558C 920.939,555.447 916.939,552.114 913.5,548C 908.939,545.447 904.939,542.114 901.5,538C 896.939,535.447 892.939,532.114 889.5,528C 884.939,525.447 880.939,522.114 877.5,518C 872.939,515.447 868.939,512.114 865.5,508C 860.939,505.447 856.939,502.114 853.5,498C 848.939,495.447 844.939,492.114 841.5,488C 836.939,485.447 832.939,482.114 829.5,478C 824.939,475.447 820.939,472.114 817.5,468C 812.939,465.447 808.939,462.114 805.5,458C 800.939,455.447 796.939,452.114 793.5,448C 788.939,445.447 784.939,442.114 781.5,438C 776.939,435.447 772.939,432.114 769.5,428C 764.939,425.447 760.939,422.114 757.5,418C 752.939,415.447 748.939,412.114 745.5,408C 740.939,405.447 736.939,402.114 733.5,398C 728.939,395.447 724.939,392.114 721.5,388C 716.939,385.447 712.939,382.114 709.5,378C 704.939,375.447 700.939,372.114 697.5,368C 692.939,365.447 688.939,362.114 685.5,358C 680.939,355.447 676.939,352.114 673.5,348C 668.939,345.447 664.939,342.114 661.5,338C 656.939,335.447 652.939,332.114 649.5,328C 644.939,325.447 640.939,322.114 637.5,318C 632.939,315.447 628.939,312.114 625.5,308C 620.939,305.447 616.939,302.114 613.5,298C 608.939,295.447 604.939,292.114 601.5,288C 596.939,285.447 592.939,282.114 589.5,278C 584.939,275.447 580.939,272.114 577.5,268C 572.939,265.447 568.939,262.114 565.5,258C 560.939,255.447 556.939,252.114 553.5,248C 548.939,245.447 544.939,242.114 541.5,238C 536.939,235.447 532.939,232.114 529.5,228C 524.939,225.447 520.939,222.114 517.5,218C 515.101,217.269 512.935,216.102 511,214.5C 505.6,217.892 500.767,222.059 496.5,227C 491.939,229.553 487.939,232.886 484.5,237C 479.939,239.553 475.939,242.886 472.5,247C 467.939,249.553 463.939,252.886 460.5,257C 455.939,259.553 451.939,262.886 448.5,267C 443.939,269.553 439.939,272.886 436.5,277C 431.939,279.553 427.939,282.886 424.5,287C 419.939,289.553 415.939,292.886 412.5,297C 407.939,299.553 403.939,302.886 400.5,307C 395.939,309.553 391.939,312.886 388.5,317C 383.939,319.553 379.939,322.886 376.5,327C 371.939,329.553 367.939,332.886 364.5,337C 359.939,339.553 355.939,342.886 352.5,347C 347.939,349.553 343.939,352.886 340.5,357C 335.939,359.553 331.939,362.886 328.5,367C 323.939,369.553 319.939,372.886 316.5,377C 311.939,379.553 307.939,382.886 304.5,387C 299.939,389.553 295.939,392.886 292.5,397C 287.939,399.553 283.939,402.886 280.5,407C 275.939,409.553 271.939,412.886 268.5,417C 263.939,419.553 259.939,422.886 256.5,427C 251.939,429.553 247.939,432.886 244.5,437C 239.939,439.553 235.939,442.886 232.5,447C 227.939,449.553 223.939,452.886 220.5,457C 215.939,459.553 211.939,462.886 208.5,467C 203.939,469.553 199.939,472.886 196.5,477C 191.939,479.553 187.939,482.886 184.5,487C 179.939,489.553 175.939,492.886 172.5,497C 167.939,499.553 163.939,502.886 160.5,507C 155.939,509.553 151.939,512.886 148.5,517C 143.939,519.553 139.939,522.886 136.5,527C 131.939,529.553 127.939,532.886 124.5,537C 119.939,539.553 115.939,542.886 112.5,547C 107.939,549.553 103.939,552.886 100.5,557C 95.9388,559.553 91.9388,562.886 88.5,567C 83.9388,569.553 79.9388,572.886 76.5,577C 73.0252,579.24 69.3585,581.24 65.5,583C 60.5,583.667 55.5,583.667 50.5,583C 49.0226,580.852 47.0226,579.518 44.5,579C 33.1084,564.267 20.9417,550.1 8,536.5C 5.30357,532.32 2.47023,528.32 -0.5,524.5C -0.5,519.167 -0.5,513.833 -0.5,508.5C 3.85382,501.814 9.52049,496.481 16.5,492.5C 19.1667,491.833 20.8333,490.167 21.5,487.5C 49.8948,464.617 77.8948,441.117 105.5,417C 107.193,416.153 108.86,415.32 110.5,414.5C 113.833,413.167 116.167,410.833 117.5,407.5C 161.895,371.284 205.895,334.45 249.5,297C 262.084,287.753 274.084,277.753 285.5,267C 298.084,257.753 310.084,247.753 321.5,237C 334.084,227.753 346.084,217.753 357.5,207C 362.42,204.084 366.753,200.418 370.5,196C 374.725,193.784 378.392,190.784 381.5,187C 398.833,173 416.167,159 433.5,145C 446.722,131.731 461.389,120.398 477.5,111C 503.482,100.514 528.815,101.848 553.5,115C 566.73,124.888 579.397,135.555 591.5,147C 628.811,177.639 666.144,208.306 703.5,239C 706.667,242.167 709.833,245.333 713,248.5C 714.328,206.977 714.995,165.31 715,123.5C 716.918,113.251 723.084,107.417 733.5,106C 775.5,105.333 817.5,105.333 859.5,106C 871.899,107.739 877.732,114.905 877,127.5C 877.333,213.5 877.667,299.5 878,385.5C 923.144,422.639 968.311,459.806 1013.5,497C 1017.45,500.435 1020.78,504.268 1023.5,508.5 Z"/></g>
<g><path style="opacity:1" fill="#fefefe" d="M 510.5,267.5 C 516.857,272.578 523.19,277.744 529.5,283C 530.5,283.333 531.5,283.667 532.5,284C 539.5,290.333 546.5,296.667 553.5,303C 554.5,303.333 555.5,303.667 556.5,304C 566.833,313 577.167,322 587.5,331C 592.061,333.553 596.061,336.886 599.5,341C 603.833,344 608.167,347 612.5,350C 619.5,356.333 626.5,362.667 633.5,369C 637.833,372 642.167,375 646.5,378C 653.5,384.333 660.5,390.667 667.5,397C 671.833,400 676.167,403 680.5,406C 691.5,415.667 702.5,425.333 713.5,435C 717.833,438 722.167,441 726.5,444C 733.5,450.333 740.5,456.667 747.5,463C 751.833,466 756.167,469 760.5,472C 767.5,478.333 774.5,484.667 781.5,491C 785.833,494 790.167,497 794.5,500C 801.5,506.333 808.5,512.667 815.5,519C 819.833,522 824.167,525 828.5,528C 831.939,532.114 835.939,535.447 840.5,538C 852.105,548.947 864.271,559.113 877,568.5C 877.667,674.5 877.667,780.5 877,886.5C 872.448,905.388 860.615,916.222 841.5,919C 758.501,919.5 675.501,919.667 592.5,919.5C 592.667,838.499 592.5,757.499 592,676.5C 565.238,675.835 538.404,675.502 511.5,675.5C 484.596,675.502 457.762,675.835 431,676.5C 430.5,757.499 430.333,838.499 430.5,919.5C 347.499,919.667 264.499,919.5 181.5,919C 162.802,916.305 150.968,905.805 146,887.5C 145.333,781.167 145.333,674.833 146,568.5C 158.729,559.113 170.895,548.947 182.5,538C 187.061,535.447 191.061,532.114 194.5,528C 198.833,525 203.167,522 207.5,519C 214.5,512.667 221.5,506.333 228.5,500C 232.833,497 237.167,494 241.5,491C 248.5,484.667 255.5,478.333 262.5,472C 266.833,469 271.167,466 275.5,463C 282.5,456.667 289.5,450.333 296.5,444C 300.833,441 305.167,438 309.5,435C 320.5,425.333 331.5,415.667 342.5,406C 346.833,403 351.167,400 355.5,397C 362.5,390.667 369.5,384.333 376.5,378C 380.833,375 385.167,372 389.5,369C 396.5,362.667 403.5,356.333 410.5,350C 414.833,347 419.167,344 423.5,341C 434.5,331.333 445.5,321.667 456.5,312C 460.833,309 465.167,306 469.5,303C 472.939,298.886 476.939,295.553 481.5,293C 484.5,290 487.5,287 490.5,284C 494.833,281 499.167,278 503.5,275C 506.039,272.63 508.372,270.13 510.5,267.5 Z"/></g>
<g><path style="opacity:1" fill="#bababa" d="M 117.5,407.5 C 116.167,410.833 113.833,413.167 110.5,414.5C 112.5,411.833 114.833,409.5 117.5,407.5 Z"/></g>
<g><path style="opacity:1" fill="#bcbcbc" d="M 21.5,487.5 C 20.8333,490.167 19.1667,491.833 16.5,492.5C 17.8333,490.5 19.5,488.833 21.5,487.5 Z"/></g>
</svg>
