<svg xmlns="http://www.w3.org/2000/svg" width="24" height="24" style="shape-rendering:geometricPrecision;text-rendering:geometricPrecision;image-rendering:optimizeQuality;fill-rule:evenodd;clip-rule:evenodd"><path fill="#fdfdfd" d="M23.5 10.5v2q-1.5 2-3 0 0-1-1-1-.512-1.258-2-1 0-1-1-1 0-1-1-1 0-1-1-1 0-1-1-1-2-2-4 0-1 0-1 1-1 0-1 1-1 0-1 1-1 0-1 1-1.487-.258-2 1-1 0-1 1-1.5 2-3 0v-2a131 131 0 0 0 11-8.5q2.876.04 5 2.5 1.329-1.238 1-3 1.983-.255 3.5 1 .279 3.6 1.5 7 1.025.544 2 1" style="opacity:.839"/><path fill="#fdfefd" d="M9.5 6.5h4q1 0 1 1 1 0 1 1 1 0 1 1 1 0 1 1 .512 1.258 2 1 1 0 1 1a32.4 32.4 0 0 1-.5 8q-3.06 1.384-6.5 1v-6h-4v6q-3.44.384-6.5-1a32.4 32.4 0 0 1-.5-8q1 0 1-1 1.487.258 2-1 1 0 1-1 1 0 1-1 1 0 1-1 1 0 1-1" style="opacity:.912"/></svg>