<?xml version="1.0" encoding="UTF-8"?>
<!DOCTYPE svg PUBLIC "-//W3C//DTD SVG 1.1//EN" "http://www.w3.org/Graphics/SVG/1.1/DTD/svg11.dtd">
<svg xmlns="http://www.w3.org/2000/svg" version="1.1" width="360px" height="360px" style="shape-rendering:geometricPrecision; text-rendering:geometricPrecision; image-rendering:optimizeQuality; fill-rule:evenodd; clip-rule:evenodd" xmlns:xlink="http://www.w3.org/1999/xlink">
<g><path style="opacity:0.951" fill="#fefefe" d="M 174.5,37.5 C 179.449,36.9589 184.116,37.7922 188.5,40C 190.894,41.9522 192.394,44.4522 193,47.5C 193.333,92.8333 193.667,138.167 194,183.5C 199.167,178.333 204.333,173.167 209.5,168C 216.637,164.163 223.137,164.996 229,170.5C 232.333,176.5 232.333,182.5 229,188.5C 215.5,202 202,215.5 188.5,229C 182.5,232.333 176.5,232.333 170.5,229C 157,215.5 143.5,202 130,188.5C 126.667,182.5 126.667,176.5 130,170.5C 135.863,164.996 142.363,164.163 149.5,168C 154.667,173.167 159.833,178.333 165,183.5C 165.333,138.167 165.667,92.8333 166,47.5C 167.261,42.7452 170.095,39.4118 174.5,37.5 Z"/></g>
<g><path style="opacity:0.977" fill="#fcfcfc" d="M 298.5,288.5 C 298.435,288.938 298.601,289.272 299,289.5C 300.5,288 302,286.5 303.5,285C 303.272,284.601 302.938,284.435 302.5,284.5C 304.674,280.818 306.174,276.818 307,272.5C 307.333,239.833 307.667,207.167 308,174.5C 312.983,165.508 320.15,163.341 329.5,168C 331.617,169.731 333.117,171.898 334,174.5C 334.667,209.167 334.667,243.833 334,278.5C 329.257,301.576 315.424,315.742 292.5,321C 217.167,321.667 141.833,321.667 66.5,321C 43.5759,315.742 29.7425,301.576 25,278.5C 24.3333,243.833 24.3333,209.167 25,174.5C 29.983,165.508 37.1497,163.341 46.5,168C 48.6166,169.731 50.1166,171.898 51,174.5C 51.3333,207.167 51.6667,239.833 52,272.5C 54.3877,283.888 61.221,291.055 72.5,294C 143.833,294.667 215.167,294.667 286.5,294C 290.915,292.957 294.915,291.124 298.5,288.5 Z"/></g>
<g><path style="opacity:1" fill="#e9e9e9" d="M 302.5,284.5 C 302.938,284.435 303.272,284.601 303.5,285C 302,286.5 300.5,288 299,289.5C 298.601,289.272 298.435,288.938 298.5,288.5C 299.5,286.833 300.833,285.5 302.5,284.5 Z"/></g>
</svg>
