<?xml version="1.0" encoding="UTF-8"?>
<!DOCTYPE svg PUBLIC "-//W3C//DTD SVG 1.1//EN" "http://www.w3.org/Graphics/SVG/1.1/DTD/svg11.dtd">
<svg xmlns="http://www.w3.org/2000/svg" version="1.1" width="360px" height="360px" style="shape-rendering:geometricPrecision; text-rendering:geometricPrecision; image-rendering:optimizeQuality; fill-rule:evenodd; clip-rule:evenodd" xmlns:xlink="http://www.w3.org/1999/xlink">
<g><path style="opacity:0.949" fill="#fefefe" d="M 258.5,26.5 C 267.184,25.1024 273.017,28.4357 276,36.5C 276.667,127.167 276.667,217.833 276,308.5C 274.281,315.196 269.948,318.53 263,318.5C 255.988,318.337 251.321,315.003 249,308.5C 248.333,217.833 248.333,127.167 249,36.5C 250.996,32.0048 254.163,28.6715 258.5,26.5 Z"/></g>
<g><path style="opacity:0.948" fill="#fefefe" d="M 84.5,297.5 C 84.9382,297.565 85.2716,297.399 85.5,297C 84.9341,296.005 84.2674,295.172 83.5,294.5C 82.3344,213.334 82.1677,132.001 83,50.5C 86.8895,40.9799 93.7228,38.1466 103.5,42C 106,43.1667 107.833,45 109,47.5C 110.658,129.777 110.992,212.11 110,294.5C 105.304,304.782 97.8042,307.282 87.5,302C 85.8588,300.871 84.8588,299.371 84.5,297.5 Z"/></g>
<g><path style="opacity:0.948" fill="#fefefe" d="M 215.5,82.5 C 224.906,80.6629 231.406,83.9962 235,92.5C 235.667,146.167 235.667,199.833 235,253.5C 232.364,260.28 227.364,263.613 220,263.5C 212.729,262.559 208.396,258.559 207,251.5C 206.333,198.5 206.333,145.5 207,92.5C 208.698,88.043 211.531,84.7097 215.5,82.5 Z"/></g>
<g><path style="opacity:0.945" fill="#fefefe" d="M 54.5,95.5 C 62.0858,96.3525 66.9191,100.352 69,107.5C 69.6667,151.167 69.6667,194.833 69,238.5C 66.9232,245.738 62.0898,249.405 54.5,249.5C 47.8449,249.004 43.3449,245.671 41,239.5C 40.3333,194.833 40.3333,150.167 41,105.5C 43.4348,99.2148 47.9348,95.8814 54.5,95.5 Z"/></g>
<g><path style="opacity:0.942" fill="#fefefe" d="M 135.5,109.5 C 144.555,108.765 150.055,112.765 152,121.5C 152.667,156.167 152.667,190.833 152,225.5C 146.238,236.155 138.071,238.321 127.5,232C 126.206,229.913 125.039,227.746 124,225.5C 123.333,190.167 123.333,154.833 124,119.5C 126.185,114.14 130.019,110.807 135.5,109.5 Z"/></g>
<g><path style="opacity:0.943" fill="#fefefe" d="M 301.5,109.5 C 309.398,109.059 314.898,112.393 318,119.5C 318.667,154.833 318.667,190.167 318,225.5C 313.103,235.522 305.603,238.022 295.5,233C 292.246,230.658 290.412,227.491 290,223.5C 289.333,189.167 289.333,154.833 290,120.5C 291.789,114.541 295.622,110.875 301.5,109.5 Z"/></g>
<g><path style="opacity:0.943" fill="#fdfdfd" d="M -0.5,198.5 C -0.5,181.167 -0.5,163.833 -0.5,146.5C 5.47833,136.764 13.4783,134.93 23.5,141C 24.3041,142.771 25.4708,144.271 27,145.5C 27.6667,163.167 27.6667,180.833 27,198.5C 22.2559,207.425 15.0892,209.925 5.5,206C 2.87819,203.891 0.878192,201.391 -0.5,198.5 Z"/></g>
<g><path style="opacity:0.935" fill="#fefefe" d="M 167.5,200.5 C 167.938,200.565 168.272,200.399 168.5,200C 167.934,199.005 167.267,198.172 166.5,197.5C 165.834,189.34 165.5,181.007 165.5,172.5C 165.374,163.096 165.874,153.763 167,144.5C 171.933,137.509 178.433,135.675 186.5,139C 189,140.167 190.833,142 192,144.5C 193.127,153.93 193.627,163.43 193.5,173C 193.627,182.57 193.127,192.07 192,201.5C 185.779,208.046 178.613,209.213 170.5,205C 168.859,203.871 167.859,202.371 167.5,200.5 Z"/></g>
<g><path style="opacity:0.94" fill="#fefefe" d="M 359.5,146.5 C 359.5,163.833 359.5,181.167 359.5,198.5C 353.491,208.217 345.491,210.05 335.5,204C 334.333,202.167 333.167,200.333 332,198.5C 331.333,181.167 331.333,163.833 332,146.5C 337.282,137.17 344.782,135.004 354.5,140C 356.55,141.965 358.217,144.132 359.5,146.5 Z"/></g>
<g><path style="opacity:1" fill="#dbdbdb" d="M 166.5,197.5 C 167.267,198.172 167.934,199.005 168.5,200C 168.272,200.399 167.938,200.565 167.5,200.5C 166.596,199.791 166.263,198.791 166.5,197.5 Z"/></g>
<g><path style="opacity:1" fill="#dbdbdb" d="M 83.5,294.5 C 84.2674,295.172 84.9341,296.005 85.5,297C 85.2716,297.399 84.9382,297.565 84.5,297.5C 83.596,296.791 83.2627,295.791 83.5,294.5 Z"/></g>
</svg>
