<svg xmlns="http://www.w3.org/2000/svg" width="50" height="50" style="shape-rendering:geometricPrecision;text-rendering:geometricPrecision;image-rendering:optimizeQuality;fill-rule:evenodd;clip-rule:evenodd"><path fill="#fdfdfd" d="M23.5 4.5q1.494-.129 2.5 1l1 19q1.665-2.305 4.5-2-3.21 14.986-13.5 4a8.43 8.43 0 0 1-.5-4q2.835-.305 4.5 2 .307-10.12 1.5-20" style="opacity:.886"/><path fill="#fdfdfd" d="M3.5 22.5h3q-.606 8.685 1.5 17a133.4 133.4 0 0 0 32.5 0 4.45 4.45 0 0 0 1.5-2q.75-7.483.5-15 2.436-.21 3.5 2 5.055 26.405-21.5 20-29.094 6.41-21-22" style="opacity:.876"/></svg>