<svg xmlns="http://www.w3.org/2000/svg" width="50" height="50" style="shape-rendering:geometricPrecision;text-rendering:geometricPrecision;image-rendering:optimizeQuality;fill-rule:evenodd;clip-rule:evenodd"><path fill="#fdfefd" d="M34.5 3.5h3v40q-1.983.255-3.5-1a259 259 0 0 1 .5-39" style="opacity:.845"/><path fill="#fdfefd" d="M11.5 5.5h3v36q-1.983.255-3.5-1-1.216-17.615.5-35" style="opacity:.849"/><path fill="#fdfefd" d="M29.5 10.5q.975.456 2 1a96.6 96.6 0 0 1 .5 24q-1.5 2-3 0a108 108 0 0 1 .5-25" style="opacity:.873"/><path fill="#fdfefd" d="M6.5 12.5q1.875.116 2.5 2a90.5 90.5 0 0 1 0 19q-1.5 2-3 0-1.192-10.62.5-21" style="opacity:.856"/><path fill="#fdfefd" d="M17.5 14.5q1.494-.129 2.5 1a64.3 64.3 0 0 1 0 16q-1.5 2-3 0-1.177-8.625.5-17" style="opacity:.889"/><path fill="#fdfefd" d="M40.5 14.5q1.495-.129 2.5 1a64.3 64.3 0 0 1 0 16q-1.5 2-3 0-1.177-8.625.5-17" style="opacity:.878"/><path fill="#fdfefd" d="M-.5 27.5v-8q5.086-1.925 4 4 1.085 5.926-4 4" style="opacity:.875"/><path fill="#fdfefd" d="M23.5 18.5q1.494-.128 2.5 1a16.25 16.25 0 0 1 0 8q-1.5 2-3 0-1.105-4.638.5-9" style="opacity:.854"/><path fill="#fdfefd" d="M49.5 19.5v8q-5.086 1.925-4-4-1.086-5.925 4-4" style="opacity:.879"/></svg>