<svg xmlns="http://www.w3.org/2000/svg" width="100" height="100" style="shape-rendering:geometricPrecision;text-rendering:geometricPrecision;image-rendering:optimizeQuality;fill-rule:evenodd;clip-rule:evenodd"><path fill="#2b2e2c" d="M39.5-.5h20q32.17 8.67 40 41v18q-5.265 21.018-23 33.5-8.649 5.09-18 7.5h-18q-32.335-7.834-41-40v-20Q8 8 39.5-.5" style="opacity:.983"/><path fill="#2b2e2c" d="M64.5 18.5v8q-7.295-.48-14 1a61 61 0 0 0-11 .5q-1.32 1.063-2 2.5a474 474 0 0 0-1 43q-6.799.477-13-1a4.93 4.93 0 0 0 3-.5q-2.967-25.894-2-52.5 6.303.475 12-1-.307-8.364 8-10 7.551 1.8 8 9.5 5.979.749 12 .5" style="opacity:1"/><path fill="#dfdfdf" d="M39.5 82.5q19.506.25 39-.5a735 735 0 0 0-37-2.5h36a381 381 0 0 0 1-39h-8q-2.415-4.055-3-9h-27a5.73 5.73 0 0 0-3-1q.68-1.437 2-2.5a61 61 0 0 1 11-.5h15q.465-4.82-1-9a72.4 72.4 0 0 1-12-.5q-.449-7.7-8-9.5-8.307 1.636-8 10h-13q5.718-1.236 12-1.5-7.308-2.084-15-1.5 6.201-1.477 13-1 1.616-9.11 11-10 8.135 1.313 11 9a43.1 43.1 0 0 0 13 1v13a4.93 4.93 0 0 1 3 .5L82 38.5q1.448 21.64-1 43L79.5 83q-20.26 1.24-40-.5" style="opacity:1"/><path fill="#000201" d="M23.5 18.5h13q-5.697 1.475-12 1-.967 26.606 2 52.5a4.93 4.93 0 0 1-3 .5z" style="opacity:1"/><path fill="#595b59" d="M64.5 18.5q1.465 4.18 1 9h-15q6.705-1.48 14-1z" style="opacity:1"/><path fill="#e7e7e7" d="M20.5 15.5q7.692-.584 15 1.5-6.282.264-12 1.5v54q6.201 1.477 13 1a474 474 0 0 1 1-43 5.73 5.73 0 0 1 3 1 577 577 0 0 0 1 48 735 735 0 0 1 37 2.5q-19.494.75-39 .5-2.198-1.359-3-4a3172 3172 0 0 0-16.5-2 622 622 0 0 1 .5-61" style="opacity:1"/><path fill="#2a2d2b" d="M67.5 31.5q.585 4.945 3 9 3.16 1.453 7 1v37h-35v-46q12.775.49 25-1" style="opacity:1"/><path fill="#555756" d="M71.5 34.5q2.544.278 4 2.5-3.667 1.364-4-2.5" style="opacity:1"/><path fill="#242625" d="M40.5 31.5h27q-12.225 1.49-25 1v46h35v1h-36a577 577 0 0 1-1-48" style="opacity:1"/><path fill="#5e5f5e" d="M70.5 40.5h8a381 381 0 0 1-1 39v-38q-3.84.453-7-1" style="opacity:1"/><path fill="#e2e2e2" d="M47.5 48.5q11.51-.25 23 .5 2 1.5 0 3-11 1-22 0-1.255-1.517-1-3.5" style="opacity:1"/><path fill="#dbdbdb" d="M48.5 57.5q11.01-.25 22 .5 2 1.5 0 3-11.49.75-23 .5-.1-2.188 1-4" style="opacity:1"/><path fill="#dcdcdc" d="M47.5 67.5q11.51-.25 23 .5 2 1.5 0 3-11 1-22 0-1.255-1.517-1-3.5" style="opacity:1"/></svg>