<?xml version="1.0" encoding="UTF-8"?>
<!DOCTYPE svg PUBLIC "-//W3C//DTD SVG 1.1//EN" "http://www.w3.org/Graphics/SVG/1.1/DTD/svg11.dtd">
<svg xmlns="http://www.w3.org/2000/svg" version="1.1" width="512px" height="512px" style="shape-rendering:geometricPrecision; text-rendering:geometricPrecision; image-rendering:optimizeQuality; fill-rule:evenodd; clip-rule:evenodd" xmlns:xlink="http://www.w3.org/1999/xlink">
<g><path style="opacity:0.993" fill="#2d302e" d="M 220.5,-0.5 C 243.833,-0.5 267.167,-0.5 290.5,-0.5C 385.041,15.8787 452.541,67.5454 493,154.5C 501.754,175.908 507.92,197.908 511.5,220.5C 511.5,243.833 511.5,267.167 511.5,290.5C 495.121,385.041 443.455,452.541 356.5,493C 335.092,501.754 313.092,507.92 290.5,511.5C 267.167,511.5 243.833,511.5 220.5,511.5C 125.959,495.121 58.4586,443.455 18,356.5C 9.24626,335.092 3.07959,313.092 -0.5,290.5C -0.5,267.167 -0.5,243.833 -0.5,220.5C 15.8787,125.959 67.5454,58.4586 154.5,18C 175.908,9.24626 197.908,3.07959 220.5,-0.5 Z"/></g>
<g><path style="opacity:1" fill="#f8f8f8" d="M 223.5,28.5 C 245.585,27.3826 263.085,35.7159 276,53.5C 280.641,61.6081 284.141,70.1081 286.5,79C 308.588,79.0212 330.588,79.6879 352.5,81C 353.126,81.7504 353.626,82.5838 354,83.5C 354.333,103.167 354.667,122.833 355,142.5C 358.147,143.278 361.313,144.111 364.5,145C 384.022,162.189 402.522,180.356 420,199.5C 421.977,268.832 421.977,338.166 420,407.5C 417.417,417.085 411.584,423.918 402.5,428C 340.203,429.648 277.87,429.981 215.5,429C 204.954,426.79 197.788,420.623 194,410.5C 193.067,405.641 192.234,400.808 191.5,396C 163.833,395.667 136.167,395.333 108.5,395C 106.641,393.442 105.141,391.609 104,389.5C 103.333,287.833 103.333,186.167 104,84.5C 104.785,82.714 105.951,81.214 107.5,80C 129.5,79.6667 151.5,79.3333 173.5,79C 179.053,50.9474 195.72,34.1141 223.5,28.5 Z"/></g>
<g><path style="opacity:1" fill="#2d302e" d="M 337.5,142.5 C 297.069,143.161 256.736,143.828 216.5,144.5C 212.56,144.758 208.893,145.924 205.5,148C 202.667,150.833 199.833,153.667 197,156.5C 194.715,160.187 193.548,164.187 193.5,168.5C 192.83,238.402 192.163,308.402 191.5,378.5C 167.925,378.827 144.425,378.494 121,377.5C 120.333,283.833 120.333,190.167 121,96.5C 142.427,95.6725 163.927,95.1725 185.5,95C 186.787,93.5905 187.954,92.0905 189,90.5C 188.74,73.8543 195.24,60.6877 208.5,51C 228.213,41.6751 245.713,44.8418 261,60.5C 266.824,69.6574 269.49,79.6574 269,90.5C 269.956,91.5786 270.789,92.7453 271.5,94C 293.078,95.3118 314.745,95.9785 336.5,96C 337.491,111.422 337.824,126.922 337.5,142.5 Z"/></g>
<g><path style="opacity:1" fill="#adaead" d="M 337.5,142.5 C 297.514,144.494 257.18,145.161 216.5,144.5C 256.736,143.828 297.069,143.161 337.5,142.5 Z"/></g>
<g><path style="opacity:1" fill="#2d302e" d="M 216.5,161.5 C 261.835,161.333 307.168,161.5 352.5,162C 353.324,175.758 353.824,189.592 354,203.5C 354.45,205.519 355.283,207.352 356.5,209C 372.316,210.144 388.149,210.977 404,211.5C 404.667,276.5 404.667,341.5 404,406.5C 402.52,409.663 400.02,411.496 396.5,412C 336.5,412.667 276.5,412.667 216.5,412C 214,410.833 212.167,409 211,406.5C 210.333,326.833 210.333,247.167 211,167.5C 212.36,164.977 214.193,162.977 216.5,161.5 Z"/></g>
<g><path style="opacity:1" fill="#adaead" d="M 193.5,168.5 C 194.163,238.841 193.497,308.841 191.5,378.5C 192.163,308.402 192.83,238.402 193.5,168.5 Z"/></g>
<g><path style="opacity:1" fill="#343735" d="M 369.5,175.5 C 370.873,175.343 372.207,175.51 373.5,176C 378.032,180.867 382.866,185.367 388,189.5C 388.667,190.5 388.667,191.5 388,192.5C 382.25,193.641 376.416,193.807 370.5,193C 369.525,187.259 369.192,181.425 369.5,175.5 Z"/></g>
<g><path style="opacity:1" fill="#f9f9f9" d="M 254.5,251.5 C 289.168,251.333 323.835,251.5 358.5,252C 365.54,253.384 368.04,257.551 366,264.5C 364.833,265.667 363.667,266.833 362.5,268C 325.167,268.667 287.833,268.667 250.5,268C 244.166,260.427 245.5,254.927 254.5,251.5 Z"/></g>
<g><path style="opacity:1" fill="#f5f5f5" d="M 251.5,300.5 C 288.168,300.333 324.835,300.5 361.5,301C 368.413,306.908 368.08,312.241 360.5,317C 324.5,317.667 288.5,317.667 252.5,317C 246.456,314.068 244.956,309.568 248,303.5C 249.145,302.364 250.312,301.364 251.5,300.5 Z"/></g>
<g><path style="opacity:1" fill="#f5f5f5" d="M 252.5,348.5 C 288.502,348.333 324.502,348.5 360.5,349C 368.024,353.864 368.357,359.197 361.5,365C 324.833,365.667 288.167,365.667 251.5,365C 244.622,358.997 244.956,353.497 252.5,348.5 Z"/></g>
</svg>
