<?xml version="1.0" encoding="UTF-8"?>
<!DOCTYPE svg PUBLIC "-//W3C//DTD SVG 1.1//EN" "http://www.w3.org/Graphics/SVG/1.1/DTD/svg11.dtd">
<svg xmlns="http://www.w3.org/2000/svg" version="1.1" width="512px" height="512px" style="shape-rendering:geometricPrecision; text-rendering:geometricPrecision; image-rendering:optimizeQuality; fill-rule:evenodd; clip-rule:evenodd" xmlns:xlink="http://www.w3.org/1999/xlink">
<g><path style="opacity:0.994" fill="#fe0100" d="M 227.5,-0.5 C 246.167,-0.5 264.833,-0.5 283.5,-0.5C 371.615,11.9523 437.781,56.619 482,133.5C 497.406,163.211 507.239,194.544 511.5,227.5C 511.5,246.167 511.5,264.833 511.5,283.5C 499.048,371.615 454.381,437.781 377.5,482C 347.789,497.406 316.456,507.239 283.5,511.5C 264.833,511.5 246.167,511.5 227.5,511.5C 139.385,499.048 73.2188,454.381 29,377.5C 13.5942,347.789 3.76083,316.456 -0.5,283.5C -0.5,264.833 -0.5,246.167 -0.5,227.5C 11.9523,139.385 56.619,73.2188 133.5,29C 163.211,13.5942 194.544,3.76083 227.5,-0.5 Z"/></g>
<g><path style="opacity:1" fill="#fffefe" d="M 178.5,153.5 C 195.5,153.5 212.5,153.5 229.5,153.5C 229.5,221.5 229.5,289.5 229.5,357.5C 212.5,357.5 195.5,357.5 178.5,357.5C 178.5,289.5 178.5,221.5 178.5,153.5 Z"/></g>
<g><path style="opacity:1" fill="#fffefe" d="M 281.5,153.5 C 298.5,153.5 315.5,153.5 332.5,153.5C 332.5,221.5 332.5,289.5 332.5,357.5C 315.5,357.5 298.5,357.5 281.5,357.5C 281.5,289.5 281.5,221.5 281.5,153.5 Z"/></g>
</svg>
