<?xml version="1.0" encoding="UTF-8"?>
<!DOCTYPE svg PUBLIC "-//W3C//DTD SVG 1.1//EN" "http://www.w3.org/Graphics/SVG/1.1/DTD/svg11.dtd">
<svg xmlns="http://www.w3.org/2000/svg" version="1.1" width="290px" height="350px" style="shape-rendering:geometricPrecision; text-rendering:geometricPrecision; image-rendering:optimizeQuality; fill-rule:evenodd; clip-rule:evenodd" xmlns:xlink="http://www.w3.org/1999/xlink">
<g><path style="opacity:1" fill="#d35f5f" d="M 139.5,16.5 C 108.486,16.2192 77.4861,16.7192 46.5,18C 41.489,18.5847 36.489,19.2514 31.5,20C 33.7947,20.9836 33.4614,21.8169 30.5,22.5C 29.5832,21.8728 28.5832,21.5394 27.5,21.5C 28.9746,19.5905 30.9746,18.4238 33.5,18C 37.7727,16.9695 42.106,16.3028 46.5,16C 77.6715,13.9135 108.672,14.0801 139.5,16.5 Z"/></g>
<g><path style="opacity:1" fill="#dd524e" d="M 139.5,16.5 C 139.833,16.5 140.167,16.5 140.5,16.5C 154.854,19.1145 169.521,20.1145 184.5,19.5C 184.5,20.8333 184.5,22.1667 184.5,23.5C 187.946,22.2931 191.279,22.4598 194.5,24C 193.427,25.3129 192.76,26.8129 192.5,28.5C 192.365,46.4983 192.699,64.4983 193.5,82.5C 194.5,82.5 195.5,82.5 196.5,82.5C 198.808,91.3064 204.475,96.4731 213.5,98C 232.229,98.9638 250.895,98.4638 269.5,96.5C 271.86,123.721 273.027,151.054 273,178.5C 273.66,223.837 273.494,269.171 272.5,314.5C 272.5,314.833 272.5,315.167 272.5,315.5C 270.688,317.829 269.021,320.329 267.5,323C 265.277,325.223 262.611,326.556 259.5,327C 198.833,327.333 138.167,327.667 77.5,328C 65.2052,329.315 52.8719,329.815 40.5,329.5C 33.0919,329.149 26.7585,326.482 21.5,321.5C 18.5606,318.044 16.5606,314.044 15.5,309.5C 15.2852,307.821 15.9519,306.821 17.5,306.5C 18.7348,306.721 19.7348,307.388 20.5,308.5C 21.6559,307.424 21.4892,306.424 20,305.5C 19.6667,300.5 19.3333,295.5 19,290.5C 18.1678,215.666 18.3345,140.999 19.5,66.5C 19.0033,141.308 19.5033,215.975 21,290.5C 21.6667,210.5 21.6667,130.5 21,50.5C 19.7087,46.3819 18.542,42.2152 17.5,38C 18.0001,33.8098 19.3334,29.9765 21.5,26.5C 22.865,24.1402 24.865,22.4735 27.5,21.5C 28.5832,21.5394 29.5832,21.8728 30.5,22.5C 33.4614,21.8169 33.7947,20.9836 31.5,20C 36.489,19.2514 41.489,18.5847 46.5,18C 77.4861,16.7192 108.486,16.2192 139.5,16.5 Z"/></g>
<g><path style="opacity:1" fill="#d45a56" d="M 140.5,16.5 C 159.39,16.7744 178.057,18.1077 196.5,20.5C 193.879,41.1908 193.879,61.8575 196.5,82.5C 195.5,82.5 194.5,82.5 193.5,82.5C 192.699,64.4983 192.365,46.4983 192.5,28.5C 192.76,26.8129 193.427,25.3129 194.5,24C 191.279,22.4598 187.946,22.2931 184.5,23.5C 184.5,22.1667 184.5,20.8333 184.5,19.5C 169.521,20.1145 154.854,19.1145 140.5,16.5 Z"/></g>
<g><path style="opacity:1" fill="#e68481" d="M 196.5,20.5 C 221.031,45.3657 245.697,70.3657 270.5,95.5C 269.833,95.5 269.5,95.8333 269.5,96.5C 250.895,98.4638 232.229,98.9638 213.5,98C 204.475,96.4731 198.808,91.3064 196.5,82.5C 193.879,61.8575 193.879,41.1908 196.5,20.5 Z"/></g>
<g><path style="opacity:1" fill="#d9544f" d="M 21.5,26.5 C 19.3334,29.9765 18.0001,33.8098 17.5,38C 18.542,42.2152 19.7087,46.3819 21,50.5C 21.6667,130.5 21.6667,210.5 21,290.5C 19.5033,215.975 19.0033,141.308 19.5,66.5C 19.9761,59.6423 19.1428,52.9756 17,46.5C 16.6667,46.8333 16.3333,47.1667 16,47.5C 15.3333,128.833 15.3333,210.167 16,291.5C 16.9122,296.464 17.4122,301.464 17.5,306.5C 15.9519,306.821 15.2852,307.821 15.5,309.5C 14.5006,220.335 14.1673,131.002 14.5,41.5C 14.9761,35.5518 17.3094,30.5518 21.5,26.5 Z"/></g>
<g><path style="opacity:1" fill="#d05658" d="M 14.5,41.5 C 14.1673,131.002 14.5006,220.335 15.5,309.5C 16.5606,314.044 18.5606,318.044 21.5,321.5C 16.624,317.758 13.7906,312.758 13,306.5C 12.3333,219.833 12.3333,133.167 13,46.5C 13.1981,44.6183 13.6981,42.9516 14.5,41.5 Z"/></g>
<g><path style="opacity:1" fill="#e15249" d="M 19.5,66.5 C 18.3345,140.999 18.1678,215.666 19,290.5C 19.3333,295.5 19.6667,300.5 20,305.5C 21.4892,306.424 21.6559,307.424 20.5,308.5C 19.7348,307.388 18.7348,306.721 17.5,306.5C 17.4122,301.464 16.9122,296.464 16,291.5C 15.3333,210.167 15.3333,128.833 16,47.5C 16.3333,47.1667 16.6667,46.8333 17,46.5C 19.1428,52.9756 19.9761,59.6423 19.5,66.5 Z"/></g>
<g><path style="opacity:1" fill="#ca5d5d" d="M 270.5,95.5 C 272.624,115.622 273.791,135.955 274,156.5C 274.667,200.5 274.667,244.5 274,288.5C 273.83,297.343 273.33,306.01 272.5,314.5C 273.494,269.171 273.66,223.837 273,178.5C 273.027,151.054 271.86,123.721 269.5,96.5C 269.5,95.8333 269.833,95.5 270.5,95.5 Z"/></g>
<g><path style="opacity:1" fill="#d7716c" d="M 58.5,162.5 C 68.6584,161.341 78.9917,161.175 89.5,162C 91.437,162.122 92.7703,162.955 93.5,164.5C 81.9286,162.7 70.2619,162.034 58.5,162.5 Z"/></g>
<g><path style="opacity:1" fill="#c96865" d="M 160.5,165.5 C 158.883,164.962 157.216,164.629 155.5,164.5C 154.609,163.89 153.609,163.557 152.5,163.5C 143.348,162.506 134.015,162.173 124.5,162.5C 124.5,186.5 124.5,210.5 124.5,234.5C 123.502,210.339 123.169,186.006 123.5,161.5C 133.839,161.334 144.172,161.5 154.5,162C 157.019,162.586 159.019,163.753 160.5,165.5 Z"/></g>
<g><path style="opacity:1" fill="#fef0f0" d="M 191.5,162.5 C 207.342,162.17 223.009,162.504 238.5,163.5C 223.167,163.5 207.833,163.5 192.5,163.5C 192.222,187.1 192.556,210.433 193.5,233.5C 191.51,210.19 190.843,186.524 191.5,162.5 Z"/></g>
<g><path style="opacity:1" fill="#f7f4f6" d="M 58.5,162.5 C 70.2619,162.034 81.9286,162.7 93.5,164.5C 98.2447,165.707 102.578,167.707 106.5,170.5C 106.833,171.167 107.167,171.833 107.5,172.5C 103.514,170.86 99.5142,169.194 95.5,167.5C 92.2423,168.417 88.909,168.751 85.5,168.5C 85.33,169.822 85.6634,170.989 86.5,172C 91.9251,171.822 96.9251,173.155 101.5,176C 97.6437,176.177 93.977,176.677 90.5,177.5C 89.1667,177.167 87.8333,176.833 86.5,176.5C 82.3537,175.353 78.0204,175.186 73.5,176C 73,176.5 72.5,177 72,177.5C 71.3333,183.5 71.3333,189.5 72,195.5C 72.5,196 73,196.5 73.5,197C 77.4862,197.499 81.4862,197.666 85.5,197.5C 83.0314,198.317 80.3647,198.817 77.5,199C 76.5,200.667 75.5,202.333 74.5,204C 72.8659,204.494 71.1992,204.66 69.5,204.5C 69.8303,211.532 69.497,218.532 68.5,225.5C 67.8072,207.818 67.1405,190.152 66.5,172.5C 66.9812,169.917 67.6479,167.417 68.5,165C 67.2068,164.51 65.8734,164.343 64.5,164.5C 63.5899,184.753 63.5899,205.419 64.5,226.5C 66.026,227.906 67.6927,229.072 69.5,230C 66.1322,230.543 62.7989,230.376 59.5,229.5C 58.2213,210.188 58.2213,190.855 59.5,171.5C 59.3795,168.559 58.7128,165.892 57.5,163.5C 57.5,162.833 57.8333,162.5 58.5,162.5 Z"/></g>
<g><path style="opacity:1" fill="#c15859" d="M 106.5,170.5 C 108.017,170.511 109.184,171.177 110,172.5C 112.951,176.472 114.118,180.972 113.5,186C 113.481,189.252 112.814,192.085 111.5,194.5C 113.802,186.345 112.469,179.011 107.5,172.5C 107.167,171.833 106.833,171.167 106.5,170.5 Z"/></g>
<g><path style="opacity:1" fill="#fcefeb" d="M 163.5,188.5 C 161.521,185.901 159.521,183.235 157.5,180.5C 155.929,178.585 153.929,177.585 151.5,177.5C 148.092,175.398 144.425,175.065 140.5,176.5C 139.334,191.155 139.167,205.822 140,220.5C 140.383,221.056 140.883,221.389 141.5,221.5C 141.5,221.833 141.5,222.167 141.5,222.5C 138.686,222.597 136.686,221.431 135.5,219C 136.713,217.37 137.546,215.536 138,213.5C 138.874,200.684 138.54,188.017 137,175.5C 142.881,171.989 148.881,171.989 155,175.5C 155.414,175.043 155.914,174.709 156.5,174.5C 157.354,175.522 158.354,176.355 159.5,177C 159.167,177.333 158.833,177.667 158.5,178C 160.883,181.199 162.55,184.699 163.5,188.5 Z"/></g>
<g><path style="opacity:1" fill="#ca7470" d="M 238.5,175.5 C 229.342,176.33 220.009,176.83 210.5,177C 210,177.5 209.5,178 209,178.5C 208.501,183.155 208.334,187.821 208.5,192.5C 207.175,187.099 207.175,181.599 208.5,176C 218.494,175.5 228.494,175.334 238.5,175.5 Z"/></g>
<g><path style="opacity:1" fill="#c46c69" d="M 56.5,165.5 C 56.1873,188.545 56.5206,211.545 57.5,234.5C 56.1677,223.353 55.501,211.853 55.5,200C 55.5001,188.328 55.8335,176.828 56.5,165.5 Z"/></g>
<g><path style="opacity:1" fill="#f7f3f1" d="M 57.5,163.5 C 58.7128,165.892 59.3795,168.559 59.5,171.5C 58.2213,190.855 58.2213,210.188 59.5,229.5C 62.7989,230.376 66.1322,230.543 69.5,230C 67.6927,229.072 66.026,227.906 64.5,226.5C 63.5899,205.419 63.5899,184.753 64.5,164.5C 65.8734,164.343 67.2068,164.51 68.5,165C 67.6479,167.417 66.9812,169.917 66.5,172.5C 67.1405,190.152 67.8072,207.818 68.5,225.5C 69.497,218.532 69.8303,211.532 69.5,204.5C 71.1992,204.66 72.8659,204.494 74.5,204C 75.5,202.333 76.5,200.667 77.5,199C 80.3647,198.817 83.0314,198.317 85.5,197.5C 89.3183,196.756 92.3183,194.756 94.5,191.5C 98.0129,185.385 96.6796,180.718 90.5,177.5C 93.977,176.677 97.6437,176.177 101.5,176C 96.9251,173.155 91.9251,171.822 86.5,172C 85.6634,170.989 85.33,169.822 85.5,168.5C 88.909,168.751 92.2423,168.417 95.5,167.5C 99.5142,169.194 103.514,170.86 107.5,172.5C 112.469,179.011 113.802,186.345 111.5,194.5C 111.5,195.167 111.5,195.833 111.5,196.5C 107.107,202.872 101.107,207.039 93.5,209C 86.542,210.064 79.542,210.731 72.5,211C 71.5183,218.747 71.185,226.58 71.5,234.5C 66.8333,234.5 62.1667,234.5 57.5,234.5C 56.5206,211.545 56.1873,188.545 56.5,165.5C 56.3284,164.508 56.6618,163.842 57.5,163.5 Z"/></g>
<g><path style="opacity:1" fill="#c96763" d="M 86.5,176.5 C 82.2325,176.203 78.0659,176.536 74,177.5C 73.3333,183.167 73.3333,188.833 74,194.5C 78.7477,195.635 83.581,195.802 88.5,195C 90.6642,193.978 92.6642,192.811 94.5,191.5C 92.3183,194.756 89.3183,196.756 85.5,197.5C 81.4862,197.666 77.4862,197.499 73.5,197C 73,196.5 72.5,196 72,195.5C 71.3333,189.5 71.3333,183.5 72,177.5C 72.5,177 73,176.5 73.5,176C 78.0204,175.186 82.3537,175.353 86.5,176.5 Z"/></g>
<g><path style="opacity:1" fill="#f6f6f5" d="M 238.5,163.5 C 239.791,167.399 239.791,171.399 238.5,175.5C 228.494,175.334 218.494,175.5 208.5,176C 207.175,181.599 207.175,187.099 208.5,192.5C 215.768,194.305 223.435,195.139 231.5,195C 232.984,195.662 234.317,196.496 235.5,197.5C 235.552,199.903 235.219,202.236 234.5,204.5C 233.527,204.987 232.527,205.487 231.5,206C 223.588,206.183 215.754,206.683 208,207.5C 207.5,216.494 207.334,225.494 207.5,234.5C 202.712,235.316 198.045,234.983 193.5,233.5C 192.556,210.433 192.222,187.1 192.5,163.5C 207.833,163.5 223.167,163.5 238.5,163.5 Z"/></g>
<g><path style="opacity:1" fill="#dd524e" d="M 86.5,176.5 C 87.8333,176.833 89.1667,177.167 90.5,177.5C 96.6796,180.718 98.0129,185.385 94.5,191.5C 92.6642,192.811 90.6642,193.978 88.5,195C 83.581,195.802 78.7477,195.635 74,194.5C 73.3333,188.833 73.3333,183.167 74,177.5C 78.0659,176.536 82.2325,176.203 86.5,176.5 Z"/></g>
<g><path style="opacity:1" fill="#fee0d9" d="M 208.5,192.5 C 208.833,192.5 209.167,192.5 209.5,192.5C 216.989,193.329 224.656,193.829 232.5,194C 234.426,194.422 235.426,195.589 235.5,197.5C 234.317,196.496 232.984,195.662 231.5,195C 223.435,195.139 215.768,194.305 208.5,192.5 Z"/></g>
<g><path style="opacity:1" fill="#c65c58" d="M 234.5,204.5 C 235.219,202.236 235.552,199.903 235.5,197.5C 235.426,195.589 234.426,194.422 232.5,194C 224.656,193.829 216.989,193.329 209.5,192.5C 217.916,192.325 226.249,192.325 234.5,192.5C 238.249,196.691 238.249,200.691 234.5,204.5 Z"/></g>
<g><path style="opacity:1" fill="#fccbca" d="M 178.5,186.5 C 179.738,188.214 180.405,190.214 180.5,192.5C 180.817,196.702 180.483,200.702 179.5,204.5C 179.64,198.464 179.307,192.464 178.5,186.5 Z"/></g>
<g><path style="opacity:1" fill="#d46767" d="M 234.5,204.5 C 234.426,206.411 233.426,207.578 231.5,208C 224.253,208.185 217.087,208.685 210,209.5C 210.141,218.227 209.308,226.56 207.5,234.5C 207.334,225.494 207.5,216.494 208,207.5C 215.754,206.683 223.588,206.183 231.5,206C 232.527,205.487 233.527,204.987 234.5,204.5 Z"/></g>
<g><path style="opacity:1" fill="#cd595b" d="M 180.5,192.5 C 181.702,199.684 181.702,207.018 180.5,214.5C 179.5,214.5 178.5,214.5 177.5,214.5C 179.023,211.365 179.69,208.032 179.5,204.5C 180.483,200.702 180.817,196.702 180.5,192.5 Z"/></g>
<g><path style="opacity:1" fill="#d16a69" d="M 111.5,196.5 C 107.628,204.957 100.962,209.791 91.5,211C 85.5092,211.499 79.5092,211.666 73.5,211.5C 73.6664,219.174 73.4997,226.841 73,234.5C 72.3109,235.357 71.4776,236.023 70.5,236.5C 66.0331,235.886 61.6998,235.22 57.5,234.5C 62.1667,234.5 66.8333,234.5 71.5,234.5C 71.185,226.58 71.5183,218.747 72.5,211C 79.542,210.731 86.542,210.064 93.5,209C 101.107,207.039 107.107,202.872 111.5,196.5 Z"/></g>
<g><path style="opacity:1" fill="#feeee7" d="M 152.5,163.5 C 143.494,163.334 134.494,163.5 125.5,164C 125.385,186.391 125.552,208.891 126,231.5C 134.566,233.454 143.399,234.12 152.5,233.5C 143.682,234.493 134.682,234.827 125.5,234.5C 125.167,234.5 124.833,234.5 124.5,234.5C 124.5,210.5 124.5,186.5 124.5,162.5C 134.015,162.173 143.348,162.506 152.5,163.5 Z"/></g>
<g><path style="opacity:1" fill="#f9f2f1" d="M 155.5,164.5 C 157.216,164.629 158.883,164.962 160.5,165.5C 169.051,170.24 175.051,177.24 178.5,186.5C 179.307,192.464 179.64,198.464 179.5,204.5C 179.69,208.032 179.023,211.365 177.5,214.5C 176.326,215.514 175.66,216.847 175.5,218.5C 169.898,226.038 162.564,231.038 153.5,233.5C 153.082,232.778 152.416,232.278 151.5,232C 145.785,231.977 140.118,231.811 134.5,231.5C 134.709,230.914 135.043,230.414 135.5,230C 140.863,229.736 146.197,229.236 151.5,228.5C 153.569,228.824 153.902,229.658 152.5,231C 155.901,232.135 157.901,230.968 158.5,227.5C 157.975,223.609 155.975,222.275 152.5,223.5C 153.167,224.167 153.833,224.833 154.5,225.5C 154,225.833 153.5,226.167 153,226.5C 151.374,225.711 149.874,224.711 148.5,223.5C 147.614,224.325 147.281,225.325 147.5,226.5C 145.396,226.799 143.396,226.466 141.5,225.5C 142.729,224.719 144.062,224.219 145.5,224C 144.263,223.768 143.263,223.268 142.5,222.5C 147.636,223.337 151.969,222.003 155.5,218.5C 158.977,215.56 161.477,211.893 163,207.5C 163.499,202.511 163.666,197.511 163.5,192.5C 164.794,198.858 164.794,205.358 163.5,212C 163.667,212.5 163.833,213 164,213.5C 165.657,209.639 167.157,209.639 168.5,213.5C 167.197,215.589 167.697,217.256 170,218.5C 171.351,216.981 172.851,215.648 174.5,214.5C 175.04,211.214 176.206,208.214 178,205.5C 179.141,197.341 177.807,189.674 174,182.5C 173.138,184.087 172.471,185.754 172,187.5C 170.848,185.351 169.348,183.518 167.5,182C 171.219,175.612 169.553,172.112 162.5,171.5C 160.371,168.854 158.037,166.521 155.5,164.5 Z"/></g>
<g><path style="opacity:1" fill="#d85954" d="M 151.5,177.5 C 153.929,177.585 155.929,178.585 157.5,180.5C 159.521,183.235 161.521,185.901 163.5,188.5C 163.5,189.833 163.5,191.167 163.5,192.5C 163.666,197.511 163.499,202.511 163,207.5C 161.477,211.893 158.977,215.56 155.5,218.5C 153.5,218.5 151.5,218.5 149.5,218.5C 149.5,219.5 149.5,220.5 149.5,221.5C 146.833,221.5 144.167,221.5 141.5,221.5C 140.883,221.389 140.383,221.056 140,220.5C 139.167,205.822 139.334,191.155 140.5,176.5C 144.425,175.065 148.092,175.398 151.5,177.5 Z"/></g>
<g><path style="opacity:1" fill="#d27270" d="M 155.5,218.5 C 151.969,222.003 147.636,223.337 142.5,222.5C 142.167,222.5 141.833,222.5 141.5,222.5C 141.5,222.167 141.5,221.833 141.5,221.5C 144.167,221.5 146.833,221.5 149.5,221.5C 149.5,220.5 149.5,219.5 149.5,218.5C 151.5,218.5 153.5,218.5 155.5,218.5 Z"/></g>
<g><path style="opacity:1" fill="#f5f6f5" d="M 152.5,163.5 C 153.609,163.557 154.609,163.89 155.5,164.5C 158.037,166.521 160.371,168.854 162.5,171.5C 169.553,172.112 171.219,175.612 167.5,182C 169.348,183.518 170.848,185.351 172,187.5C 172.471,185.754 173.138,184.087 174,182.5C 177.807,189.674 179.141,197.341 178,205.5C 176.206,208.214 175.04,211.214 174.5,214.5C 172.851,215.648 171.351,216.981 170,218.5C 167.697,217.256 167.197,215.589 168.5,213.5C 167.157,209.639 165.657,209.639 164,213.5C 163.833,213 163.667,212.5 163.5,212C 164.794,205.358 164.794,198.858 163.5,192.5C 163.5,191.167 163.5,189.833 163.5,188.5C 162.55,184.699 160.883,181.199 158.5,178C 158.833,177.667 159.167,177.333 159.5,177C 158.354,176.355 157.354,175.522 156.5,174.5C 155.914,174.709 155.414,175.043 155,175.5C 148.881,171.989 142.881,171.989 137,175.5C 138.54,188.017 138.874,200.684 138,213.5C 137.546,215.536 136.713,217.37 135.5,219C 136.686,221.431 138.686,222.597 141.5,222.5C 141.833,222.5 142.167,222.5 142.5,222.5C 143.263,223.268 144.263,223.768 145.5,224C 144.062,224.219 142.729,224.719 141.5,225.5C 143.396,226.466 145.396,226.799 147.5,226.5C 147.281,225.325 147.614,224.325 148.5,223.5C 149.874,224.711 151.374,225.711 153,226.5C 153.5,226.167 154,225.833 154.5,225.5C 153.833,224.833 153.167,224.167 152.5,223.5C 155.975,222.275 157.975,223.609 158.5,227.5C 157.901,230.968 155.901,232.135 152.5,231C 153.902,229.658 153.569,228.824 151.5,228.5C 146.197,229.236 140.863,229.736 135.5,230C 135.043,230.414 134.709,230.914 134.5,231.5C 140.118,231.811 145.785,231.977 151.5,232C 152.416,232.278 153.082,232.778 153.5,233.5C 153.167,233.5 152.833,233.5 152.5,233.5C 143.399,234.12 134.566,233.454 126,231.5C 125.552,208.891 125.385,186.391 125.5,164C 134.494,163.5 143.494,163.334 152.5,163.5 Z"/></g>
<g><path style="opacity:1" fill="#df534d" d="M 151.5,177.5 C 151.25,181.714 152.25,185.547 154.5,189C 152.808,190.401 152.141,192.234 152.5,194.5C 153.5,194.5 154.5,194.5 155.5,194.5C 155.5,199.833 155.5,205.167 155.5,210.5C 156.5,210.5 157.5,210.5 158.5,210.5C 158.919,213.325 157.919,215.491 155.5,217C 150.877,216.774 146.21,216.607 141.5,216.5C 141.168,203.816 141.501,191.149 142.5,178.5C 145.421,177.593 148.421,177.26 151.5,177.5 Z"/></g>
<g><path style="opacity:1" fill="#d2615e" d="M 175.5,218.5 C 174.523,221.989 172.523,224.823 169.5,227C 166.345,230.081 162.678,232.414 158.5,234C 159.672,234.419 160.672,235.085 161.5,236C 155.5,236.167 149.5,236.333 143.5,236.5C 137.128,236.496 131.128,235.829 125.5,234.5C 134.682,234.827 143.682,234.493 152.5,233.5C 152.833,233.5 153.167,233.5 153.5,233.5C 162.564,231.038 169.898,226.038 175.5,218.5 Z"/></g>
<g><path style="opacity:1" fill="#d56d6a" d="M 191.5,162.5 C 190.843,186.524 191.51,210.19 193.5,233.5C 198.045,234.983 202.712,235.316 207.5,234.5C 205.257,235.812 202.59,236.478 199.5,236.5C 196.579,236.476 193.746,236.143 191,235.5C 190.17,210.997 190.337,186.663 191.5,162.5 Z"/></g>
<g><path style="opacity:1" fill="#ce6361" d="M 272.5,315.5 C 272.065,320.786 269.399,324.619 264.5,327C 261.576,327.988 258.576,328.654 255.5,329C 190.33,329.241 125.164,329.741 60,330.5C 53.3245,330.5 46.8245,330.166 40.5,329.5C 52.8719,329.815 65.2052,329.315 77.5,328C 138.167,327.667 198.833,327.333 259.5,327C 262.611,326.556 265.277,325.223 267.5,323C 269.021,320.329 270.688,317.829 272.5,315.5 Z"/></g>
</svg>
