<svg xmlns="http://www.w3.org/2000/svg" width="40" height="40" style="shape-rendering:geometricPrecision;text-rendering:geometricPrecision;image-rendering:optimizeQuality;fill-rule:evenodd;clip-rule:evenodd"><path fill="#316da7" d="M17.5-.5h3q24.941 6.892 14.5 31-18.245 17.106-33-3-6.623-22.272 15.5-28" style="opacity:.983"/><path fill="#e5eaf0" d="M15.5 6.5q6.024-.9 10.5 3 1.67 7.668-5 12a4.93 4.93 0 0 0-.5 3h-3a8.43 8.43 0 0 1 .5-4 17.5 17.5 0 0 0 5.5-7.5q-2.36-5.178-7.5-2.5a4.93 4.93 0 0 0-.5 3q-2.217.393-4-1 1.45-3.435 4-6" style="opacity:1"/><path fill="#d0d8e5" d="M17.5 26.5h4v4h-4z" style="opacity:1"/></svg>