<?xml version="1.0" encoding="UTF-8"?>
<!DOCTYPE svg PUBLIC "-//W3C//DTD SVG 1.1//EN" "http://www.w3.org/Graphics/SVG/1.1/DTD/svg11.dtd">
<svg xmlns="http://www.w3.org/2000/svg" version="1.1" width="435px" height="435px" style="shape-rendering:geometricPrecision; text-rendering:geometricPrecision; image-rendering:optimizeQuality; fill-rule:evenodd; clip-rule:evenodd" xmlns:xlink="http://www.w3.org/1999/xlink">
<g><path style="opacity:1" fill="#326ea7" d="M 202.5,4.5 C 294.936,3.11105 362.436,43.1111 405,124.5C 433.783,191.822 430.449,257.488 395,321.5C 344.592,397.56 273.759,430.393 182.5,420C 110.855,406.612 58.6885,367.445 26,302.5C -2.7827,235.176 0.550632,169.509 36,105.5C 74.9467,44.7523 130.447,11.0856 202.5,4.5 Z"/></g>
<g><path style="opacity:1" fill="#fcfdfd" d="M 228.5,265.5 C 227.566,266.568 227.232,267.901 227.5,269.5C 218.167,269.5 208.833,269.5 199.5,269.5C 196.93,246.386 203.097,226.053 218,208.5C 225.234,200.596 233.067,193.429 241.5,187C 248.074,181.096 253.908,174.596 259,167.5C 269.687,138.861 261.021,118.194 233,105.5C 203.627,97.3574 182.627,107.024 170,134.5C 167.711,140.657 166.211,146.991 165.5,153.5C 155.201,152.17 144.868,151.17 134.5,150.5C 138.406,111.436 159.406,87.6029 197.5,79C 219.977,75.5746 241.31,78.908 261.5,89C 293.921,110.596 302.754,139.429 288,175.5C 285,179.833 282,184.167 279,188.5C 264.946,202.554 250.946,216.554 237,230.5C 230.881,241.309 228.048,252.976 228.5,265.5 Z"/></g>
<g><path style="opacity:1" fill="#c3d4e5" d="M 228.5,265.5 C 228.5,267.167 228.5,268.833 228.5,270.5C 218.652,270.827 208.986,270.494 199.5,269.5C 208.833,269.5 218.167,269.5 227.5,269.5C 227.232,267.901 227.566,266.568 228.5,265.5 Z"/></g>
<g><path style="opacity:1" fill="#c1d3e4" d="M 197.5,297.5 C 209.167,297.5 220.833,297.5 232.5,297.5C 232.5,309.167 232.5,320.833 232.5,332.5C 220.833,332.5 209.167,332.5 197.5,332.5C 197.5,320.833 197.5,309.167 197.5,297.5 Z"/></g>
<g><path style="opacity:1" fill="#fefffe" d="M 198.5,298.5 C 209.5,298.5 220.5,298.5 231.5,298.5C 231.5,309.5 231.5,320.5 231.5,331.5C 220.5,331.5 209.5,331.5 198.5,331.5C 198.5,320.5 198.5,309.5 198.5,298.5 Z"/></g>
</svg>
