<?xml version="1.0" encoding="UTF-8"?>
<!DOCTYPE svg PUBLIC "-//W3C//DTD SVG 1.1//EN" "http://www.w3.org/Graphics/SVG/1.1/DTD/svg11.dtd">
<svg xmlns="http://www.w3.org/2000/svg" version="1.1" width="512px" height="512px" style="shape-rendering:geometricPrecision; text-rendering:geometricPrecision; image-rendering:optimizeQuality; fill-rule:evenodd; clip-rule:evenodd" xmlns:xlink="http://www.w3.org/1999/xlink">
<g><path style="opacity:1" fill="#d5d5d3" d="M 319.5,23.5 C 319.5,55.5 319.5,87.5 319.5,119.5C 351.5,119.5 383.5,119.5 415.5,119.5C 415.5,178.167 415.5,236.833 415.5,295.5C 308.833,295.5 202.167,295.5 95.5,295.5C 95.3333,208.833 95.5,122.166 96,35.5C 97.8333,29.6667 101.667,25.8333 107.5,24C 178.166,23.5 248.833,23.3333 319.5,23.5 Z"/></g>
<g><path style="opacity:1" fill="#44546c" d="M 319.5,23.5 C 351.833,55.1667 383.833,87.1667 415.5,119.5C 383.5,119.5 351.5,119.5 319.5,119.5C 319.5,87.5 319.5,55.5 319.5,23.5 Z"/></g>
<g><path style="opacity:1" fill="#44546c" d="M 140.5,191.5 C 216.834,191.333 293.167,191.5 369.5,192C 375.448,194.433 376.948,198.6 374,204.5C 372.829,205.893 371.329,206.727 369.5,207C 293.167,207.667 216.833,207.667 140.5,207C 135.465,203.987 134.298,199.82 137,194.5C 138.145,193.364 139.312,192.364 140.5,191.5 Z"/></g>
<g><path style="opacity:1" fill="#44546c" d="M 140.5,239.5 C 216.834,239.333 293.167,239.5 369.5,240C 375.448,242.433 376.948,246.6 374,252.5C 372.829,253.893 371.329,254.727 369.5,255C 293.167,255.667 216.833,255.667 140.5,255C 135.465,251.987 134.298,247.82 137,242.5C 138.145,241.364 139.312,240.364 140.5,239.5 Z"/></g>
<g><path style="opacity:1" fill="#f25244" d="M 95.5,295.5 C 202.167,295.5 308.833,295.5 415.5,295.5C 424.083,293.793 431.25,296.127 437,302.5C 437.862,304.087 438.529,305.754 439,307.5C 439.667,352.833 439.667,398.167 439,443.5C 437.167,449.333 433.333,453.167 427.5,455C 423.514,455.499 419.514,455.666 415.5,455.5C 308.833,455.5 202.167,455.5 95.5,455.5C 86.917,457.207 79.7503,454.873 74,448.5C 73.1376,446.913 72.4709,445.246 72,443.5C 71.3333,398.167 71.3333,352.833 72,307.5C 73.8333,301.667 77.6667,297.833 83.5,296C 87.4862,295.501 91.4862,295.334 95.5,295.5 Z"/></g>
<g><path style="opacity:1" fill="#d6d4d2" d="M 160.5,332.5 C 172.838,332.333 185.171,332.5 197.5,333C 209.304,333.639 217.137,339.472 221,350.5C 223.258,361.735 221.091,371.902 214.5,381C 211.971,383.029 209.304,384.862 206.5,386.5C 211.92,395.672 217.087,405.006 222,414.5C 222.05,421.966 218.217,426.299 210.5,427.5C 208.701,427.423 207.034,426.923 205.5,426C 199.039,414.246 192.706,402.413 186.5,390.5C 183.572,389.516 180.572,389.183 177.5,389.5C 177.667,400.505 177.5,411.505 177,422.5C 172.828,426.051 167.994,427.218 162.5,426C 160.508,425.426 159.008,424.259 158,422.5C 157.333,393.5 157.333,364.5 158,335.5C 159.045,334.627 159.878,333.627 160.5,332.5 Z"/></g>
<g><path style="opacity:1" fill="#d6d5d3" d="M 228.5,332.5 C 249.169,332.333 269.836,332.5 290.5,333C 294.639,338.902 294.305,344.569 289.5,350C 282.842,350.5 276.175,350.666 269.5,350.5C 269.667,374.502 269.5,398.502 269,422.5C 264.828,426.051 259.994,427.218 254.5,426C 252.714,425.215 251.214,424.049 250,422.5C 249.5,398.502 249.333,374.502 249.5,350.5C 242.442,350.797 235.442,350.464 228.5,349.5C 224.569,343.771 224.569,338.104 228.5,332.5 Z"/></g>
<g><path style="opacity:1" fill="#d6d4d2" d="M 305.5,332.5 C 322.837,332.333 340.17,332.5 357.5,333C 358,333.5 358.5,334 359,334.5C 360.52,338.375 360.854,342.375 360,346.5C 359.5,348.333 358.333,349.5 356.5,350C 344.838,350.5 333.171,350.667 321.5,350.5C 321.5,357.833 321.5,365.167 321.5,372.5C 328.841,372.334 336.174,372.5 343.5,373C 347.432,377.596 347.432,382.263 343.5,387C 336.174,387.5 328.841,387.666 321.5,387.5C 321.667,399.171 321.5,410.838 321,422.5C 316.828,426.051 311.994,427.218 306.5,426C 304.508,425.426 303.008,424.259 302,422.5C 301.333,393.5 301.333,364.5 302,335.5C 303.145,334.364 304.312,333.364 305.5,332.5 Z"/></g>
<g><path style="opacity:1" fill="#f25446" d="M 177.5,349.5 C 182.844,349.334 188.177,349.501 193.5,350C 199.377,351.875 202.044,355.875 201.5,362C 202.105,367.125 200.105,370.792 195.5,373C 189.509,373.499 183.509,373.666 177.5,373.5C 177.5,365.5 177.5,357.5 177.5,349.5 Z"/></g>
<g><path style="opacity:0.999" fill="#d6d6d3" d="M 95.5,455.5 C 202.167,455.5 308.833,455.5 415.5,455.5C 415.896,463.253 415.396,470.92 414,478.5C 411.685,482.817 408.185,485.65 403.5,487C 304.833,487.667 206.167,487.667 107.5,487C 102.815,485.65 99.3151,482.817 97,478.5C 95.6039,470.92 95.1039,463.253 95.5,455.5 Z"/></g>
</svg>
