<svg xmlns="http://www.w3.org/2000/svg" width="100" height="100" style="shape-rendering:geometricPrecision;text-rendering:geometricPrecision;image-rendering:optimizeQuality;fill-rule:evenodd;clip-rule:evenodd"><path fill="#2d302e" d="M40.5-.5h18q21.018 5.265 33.5 23 5.526 9.013 7.5 19v15q-8 35-43 43h-16q-32.96-7.96-41-41v-18q8-33 41-41" style="opacity:.998"/><path fill="#ededed" d="M28.5 13.5q22.005-.25 44 .5a17.8 17.8 0 0 1 5.5 4.5q1.24 31.36-.5 62.5-3.432.626-6-2a498 498 0 0 0-21-16.5 437 437 0 0 0-22 17.5q-2.698 2.258-5.5.5a961 961 0 0 1 0-62 38 38 0 0 1 5.5-5" style="opacity:1"/><path fill="#020603" d="M70.5 69.5a577 577 0 0 0 1-48h-42a614 614 0 0 0 1 49q-1 0-1 1a626 626 0 0 1-1-50 485 485 0 0 1 44-1q.25 25.505-.5 51-1.076-.816-1.5-2" style="opacity:1"/><path fill="#2c2f2d" d="M70.5 69.5q-8.588-5.32-16-12.5a10.25 10.25 0 0 0-4-1.5 109 109 0 0 0-20 15 614 614 0 0 1-1-49h42a577 577 0 0 1-1 48" style="opacity:1"/><path fill="#acadac" d="M28.5 21.5a626 626 0 0 0 1 50q-.09.814-1 1-1.99-25.743 0-51" style="opacity:1"/></svg>