<?xml version="1.0" encoding="UTF-8"?>
<!DOCTYPE svg PUBLIC "-//W3C//DTD SVG 1.1//EN" "http://www.w3.org/Graphics/SVG/1.1/DTD/svg11.dtd">
<svg xmlns="http://www.w3.org/2000/svg" version="1.1" width="512px" height="512px" style="shape-rendering:geometricPrecision; text-rendering:geometricPrecision; image-rendering:optimizeQuality; fill-rule:evenodd; clip-rule:evenodd" xmlns:xlink="http://www.w3.org/1999/xlink">
<g><path style="opacity:1" fill="#2d302e" d="M 226.5,-0.5 C 245.833,-0.5 265.167,-0.5 284.5,-0.5C 295.958,1.18782 307.292,3.52115 318.5,6.5C 331.415,10.6413 344.248,15.308 357,20.5C 357.765,20.4301 358.265,20.0967 358.5,19.5C 359.71,19.9321 360.71,20.5987 361.5,21.5C 365.786,24.9792 371.119,27.6459 377.5,29.5C 420.998,53.1635 455.165,86.4968 480,129.5C 486.955,143.075 493.621,156.742 500,170.5C 504.501,189.15 508.334,207.817 511.5,226.5C 511.5,245.833 511.5,265.167 511.5,284.5C 510.833,286.833 510.167,289.167 509.5,291.5C 504.402,321.463 495.069,350.129 481.5,377.5C 457.167,422.5 422.5,457.167 377.5,481.5C 371.784,483.021 367.117,485.354 363.5,488.5C 362.035,489.737 360.368,490.737 358.5,491.5C 358.265,490.903 357.765,490.57 357,490.5C 335.793,499.422 313.96,505.756 291.5,509.5C 291.5,510.167 291.167,510.5 290.5,510.5C 289.551,509.848 288.385,509.514 287,509.5C 281.662,509.98 276.495,510.647 271.5,511.5C 256.5,511.5 241.5,511.5 226.5,511.5C 193.28,507.04 161.613,497.207 131.5,482C 128.833,481.333 126.167,480.667 123.5,480C 116.356,476.607 110.689,471.607 106.5,465C 77.4447,444.281 53.6114,418.781 35,388.5C 33.1401,384.78 31.3068,381.114 29.5,377.5C 27.6459,371.119 24.9792,365.786 21.5,361.5C 20.5987,360.71 19.9321,359.71 19.5,358.5C 20.0967,358.265 20.4301,357.765 20.5,357C 15.308,344.248 10.6413,331.415 6.5,318.5C 3.52115,307.292 1.18782,295.958 -0.5,284.5C -0.5,265.167 -0.5,245.833 -0.5,226.5C 0.5,221.833 1.5,217.167 2.5,212.5C 7.25955,189.55 14.2596,167.217 23.5,145.5C 34.0326,122.658 47.6993,101.991 64.5,83.5C 71.3022,78.2264 77.9689,72.0597 84.5,65C 84.2716,64.6012 83.9382,64.4346 83.5,64.5C 101.991,47.6993 122.658,34.0326 145.5,23.5C 161.012,17.22 176.678,11.5533 192.5,6.5C 203.708,3.52115 215.042,1.18782 226.5,-0.5 Z"/></g>
<g><path style="opacity:0.804" fill="#4a4c4a" d="M 192.5,6.5 C 176.678,11.5533 161.012,17.22 145.5,23.5C 160.292,15.6781 175.958,10.0115 192.5,6.5 Z"/></g>
<g><path style="opacity:0.804" fill="#4b4e4c" d="M 318.5,6.5 C 332.232,9.63285 345.565,13.9662 358.5,19.5C 358.265,20.0967 357.765,20.4301 357,20.5C 344.248,15.308 331.415,10.6413 318.5,6.5 Z"/></g>
<g><path style="opacity:0.635" fill="#595c5a" d="M 361.5,21.5 C 367.151,23.6588 372.484,26.3255 377.5,29.5C 371.119,27.6459 365.786,24.9792 361.5,21.5 Z"/></g>
<g><path style="opacity:0.871" fill="#575a58" d="M 83.5,64.5 C 83.9382,64.4346 84.2716,64.6012 84.5,65C 77.9689,72.0597 71.3022,78.2264 64.5,83.5C 70.5,76.8333 76.8333,70.5 83.5,64.5 Z"/></g>
<g><path style="opacity:1" fill="#fbfbfb" d="M 152.5,74.5 C 224.834,74.3333 297.167,74.5 369.5,75C 390.017,79.8499 401.851,92.6832 405,113.5C 405.667,211.167 405.667,308.833 405,406.5C 401.838,416.998 395.005,420.498 384.5,417C 343.866,383.354 302.866,350.187 261.5,317.5C 220.65,350.093 179.984,382.927 139.5,416C 128.724,420.86 121.557,417.694 118,406.5C 117.333,308.833 117.333,211.167 118,113.5C 121.251,93.0886 132.751,80.0886 152.5,74.5 Z"/></g>
<g><path style="opacity:1" fill="#2d302e" d="M 154.5,103.5 C 225.501,103.333 296.501,103.5 367.5,104C 370.902,105.4 373.736,107.567 376,110.5C 377.49,198.122 377.99,285.789 377.5,373.5C 376.448,373.649 375.448,373.483 374.5,373C 339.494,343.843 304.161,315.177 268.5,287C 264.289,285.466 259.956,285.133 255.5,286C 219.65,314.761 183.983,343.761 148.5,373C 147.552,373.483 146.552,373.649 145.5,373.5C 145.333,287.166 145.5,200.833 146,114.5C 146.333,113.167 146.667,111.833 147,110.5C 149.396,107.933 151.896,105.6 154.5,103.5 Z"/></g>
<g><path style="opacity:0.804" fill="#494c4a" d="M 23.5,145.5 C 14.2596,167.217 7.25955,189.55 2.5,212.5C 5.70833,188.88 12.7083,166.547 23.5,145.5 Z"/></g>
<g><path style="opacity:0.71" fill="#4e514f" d="M 509.5,291.5 C 505.953,322.139 496.62,350.806 481.5,377.5C 495.069,350.129 504.402,321.463 509.5,291.5 Z"/></g>
<g><path style="opacity:0.804" fill="#4b4e4c" d="M 6.5,318.5 C 10.6413,331.415 15.308,344.248 20.5,357C 20.4301,357.765 20.0967,358.265 19.5,358.5C 13.9662,345.565 9.63285,332.232 6.5,318.5 Z"/></g>
<g><path style="opacity:0.635" fill="#595c5a" d="M 29.5,377.5 C 26.3255,372.484 23.6588,367.151 21.5,361.5C 24.9792,365.786 27.6459,371.119 29.5,377.5 Z"/></g>
<g><path style="opacity:0.71" fill="#5d5f5d" d="M 377.5,481.5 C 373.151,484.341 368.484,486.674 363.5,488.5C 367.117,485.354 371.784,483.021 377.5,481.5 Z"/></g>
<g><path style="opacity:0.71" fill="#4c4e4c" d="M 358.5,491.5 C 337.057,500.778 314.724,506.778 291.5,509.5C 313.96,505.756 335.793,499.422 357,490.5C 357.765,490.57 358.265,490.903 358.5,491.5 Z"/></g>
<g><path style="opacity:0.71" fill="#545755" d="M 290.5,510.5 C 288.265,510.205 286.265,510.539 284.5,511.5C 280.167,511.5 275.833,511.5 271.5,511.5C 276.495,510.647 281.662,509.98 287,509.5C 288.385,509.514 289.551,509.848 290.5,510.5 Z"/></g>
</svg>
