<?xml version="1.0" encoding="UTF-8"?>
<!DOCTYPE svg PUBLIC "-//W3C//DTD SVG 1.1//EN" "http://www.w3.org/Graphics/SVG/1.1/DTD/svg11.dtd">
<svg xmlns="http://www.w3.org/2000/svg" version="1.1" width="512px" height="512px" style="shape-rendering:geometricPrecision; text-rendering:geometricPrecision; image-rendering:optimizeQuality; fill-rule:evenodd; clip-rule:evenodd" xmlns:xlink="http://www.w3.org/1999/xlink">
<g><path style="opacity:0.004" fill="#a2a3a2" d="M 72.5,-0.5 C 72.8333,-0.5 73.1667,-0.5 73.5,-0.5C 73.5,-0.166667 73.5,0.166667 73.5,0.5C 73.1667,0.166667 72.8333,-0.166667 72.5,-0.5 Z"/></g>
<g><path style="opacity:0.004" fill="#a2a3a2" d="M 441.5,-0.5 C 441.833,-0.5 442.167,-0.5 442.5,-0.5C 442.315,0.170143 441.981,0.170143 441.5,-0.5 Z"/></g>
<g><path style="opacity:1" fill="#fefefe" d="M 88.5,-0.5 C 202.833,-0.5 317.167,-0.5 431.5,-0.5C 434.625,0.479442 437.958,0.812775 441.5,0.5C 442.211,2.20136 443.545,3.20136 445.5,3.5C 446.183,5.17649 447.517,5.84316 449.5,5.5C 449.833,5.5 450.167,5.5 450.5,5.5C 452.185,9.29034 455.185,11.2903 459.5,11.5C 461.712,10.9531 463.379,11.9531 464.5,14.5C 464.782,15.7777 465.449,16.7777 466.5,17.5C 471.551,21.5491 475.884,26.2158 479.5,31.5C 480.167,31.5 480.833,31.5 481.5,31.5C 481.285,33.1788 481.952,34.1788 483.5,34.5C 483.833,36.5 484.167,38.5 484.5,40.5C 486.732,47.994 488.065,55.6607 488.5,63.5C 488.667,206.5 488.5,349.5 488,492.5C 486.862,497.762 484.695,502.429 481.5,506.5C 480.391,506.557 479.391,506.89 478.5,507.5C 471.488,508.502 464.488,508.502 457.5,507.5C 452.901,505.546 448.568,503.212 444.5,500.5C 443.934,498.922 442.934,497.588 441.5,496.5C 438.674,494.504 435.674,492.837 432.5,491.5C 431.833,491.5 431.167,491.5 430.5,491.5C 429.833,490.167 428.833,489.167 427.5,488.5C 426.544,486.484 425.21,484.651 423.5,483C 422.552,482.517 421.552,482.351 420.5,482.5C 420.167,482.5 419.833,482.5 419.5,482.5C 417.654,479.522 415.32,476.855 412.5,474.5C 409.809,472.974 407.143,471.64 404.5,470.5C 401.591,469.576 398.924,468.243 396.5,466.5C 396.5,465.833 396.167,465.5 395.5,465.5C 395.817,461.828 394.151,460.162 390.5,460.5C 389.833,460.5 389.167,460.5 388.5,460.5C 388.068,459.29 387.401,458.29 386.5,457.5C 385.965,455.554 384.632,454.554 382.5,454.5C 381.391,454.443 380.391,454.11 379.5,453.5C 379.5,452.167 378.833,451.5 377.5,451.5C 374.673,446.354 370.34,443.021 364.5,441.5C 364.167,441.5 363.833,441.5 363.5,441.5C 361.899,438.23 359.566,435.563 356.5,433.5C 351.686,429.356 346.353,426.023 340.5,423.5C 339.847,422.193 339.18,420.86 338.5,419.5C 331.604,415.605 325.271,410.939 319.5,405.5C 318.893,405.624 318.56,405.957 318.5,406.5C 317.833,406.5 317.167,406.5 316.5,406.5C 316.131,404.559 315.464,402.725 314.5,401C 310.856,398.344 306.856,396.511 302.5,395.5C 302.579,394.07 302.246,392.736 301.5,391.5C 299.118,390.649 297.118,389.316 295.5,387.5C 294.817,387.863 294.15,388.196 293.5,388.5C 292.408,385.937 290.742,383.77 288.5,382C 285.408,380.879 282.408,379.713 279.5,378.5C 278.5,377.833 277.5,377.167 276.5,376.5C 275.461,374.469 273.795,373.136 271.5,372.5C 270.5,371.833 269.5,371.167 268.5,370.5C 266.711,365.672 263.211,362.672 258,361.5C 256.05,361.707 254.884,362.707 254.5,364.5C 254.167,364.5 253.833,364.5 253.5,364.5C 250.206,365.466 247.872,367.466 246.5,370.5C 245.662,370.842 245.328,371.508 245.5,372.5C 244.833,372.5 244.167,372.5 243.5,372.5C 240.905,372.04 239.238,373.374 238.5,376.5C 237.5,377.167 236.5,377.833 235.5,378.5C 234.687,377.347 233.687,377.347 232.5,378.5C 229.818,381.013 226.818,383.179 223.5,385C 222.663,386.011 222.33,387.178 222.5,388.5C 220.81,388.856 219.81,389.856 219.5,391.5C 218.061,393.315 216.394,393.982 214.5,393.5C 212.554,394.035 211.554,395.368 211.5,397.5C 209.5,397.5 208.5,398.5 208.5,400.5C 207.209,400.263 206.209,400.596 205.5,401.5C 204.167,401.5 203.5,402.167 203.5,403.5C 201.5,403.5 200.5,404.5 200.5,406.5C 199.5,406.5 198.5,406.5 197.5,406.5C 196.749,405.427 195.749,405.26 194.5,406C 191.433,409.734 187.766,412.734 183.5,415C 182.748,415.671 182.414,416.504 182.5,417.5C 178.643,418.066 175.977,420.066 174.5,423.5C 168.598,425.409 164.264,429.076 161.5,434.5C 160.833,434.5 160.5,434.833 160.5,435.5C 159.833,435.5 159.167,435.5 158.5,435.5C 154.697,435.887 152.363,437.887 151.5,441.5C 151.167,441.5 150.833,441.5 150.5,441.5C 144.647,443.037 140.314,446.371 137.5,451.5C 133.263,451.776 130.263,453.776 128.5,457.5C 124.599,457.915 122.266,459.915 121.5,463.5C 120.167,463.5 119.5,464.167 119.5,465.5C 118.833,465.5 118.5,465.833 118.5,466.5C 116.5,466.5 115.5,467.5 115.5,469.5C 112.715,468.916 111.048,469.916 110.5,472.5C 108.5,472.5 107.5,473.5 107.5,475.5C 104.715,474.916 103.048,475.916 102.5,478.5C 100.052,480.284 97.385,481.618 94.5,482.5C 90.6968,482.887 88.3635,484.887 87.5,488.5C 87.1667,488.5 86.8333,488.5 86.5,488.5C 85.448,488.351 84.448,488.517 83.5,489C 79.2072,492.674 75.2072,496.507 71.5,500.5C 70.8333,500.5 70.5,500.833 70.5,501.5C 69.1266,501.343 67.7932,501.51 66.5,502C 59.8103,508.344 51.8103,510.677 42.5,509C 40.257,507.864 37.9237,507.03 35.5,506.5C 32.6333,506.631 30.9666,505.297 30.5,502.5C 29.2916,499.306 28.2916,495.973 27.5,492.5C 26.179,345.157 26.179,197.824 27.5,50.5C 29.8085,46.9996 31.4752,43.1663 32.5,39C 32.4301,38.2352 32.0967,37.7352 31.5,37.5C 31.5,36.5 31.5,35.5 31.5,34.5C 32.1667,34.5 32.8333,34.5 33.5,34.5C 34.5,34.5 35.5,34.5 36.5,34.5C 36.8782,32.079 37.5448,29.7457 38.5,27.5C 38.5,26.5 38.5,25.5 38.5,24.5C 40.1436,24.1898 41.1436,23.1898 41.5,21.5C 43.5,21.5 44.5,20.5 44.5,18.5C 45.4916,18.6716 46.1583,18.3382 46.5,17.5C 48.632,17.4456 49.9653,16.4456 50.5,14.5C 53.8479,12.8562 56.8479,10.1896 59.5,6.5C 61.5,6.16667 63.5,5.83333 65.5,5.5C 67.4832,5.84316 68.8166,5.17649 69.5,3.5C 69.8333,3.5 70.1667,3.5 70.5,3.5C 70.7352,4.09674 71.2352,4.43007 72,4.5C 76.4275,3.18114 80.9275,2.18114 85.5,1.5C 87.0296,1.36015 88.0296,0.693482 88.5,-0.5 Z"/></g>
<g><path style="opacity:0.004" fill="#999a99" d="M 70.5,2.5 C 69.8333,1.16667 69.8333,1.16667 70.5,2.5 Z"/></g>
<g><path style="opacity:0.941" fill="#bababa" d="M 81.5,-0.5 C 83.8333,-0.5 86.1667,-0.5 88.5,-0.5C 88.0296,0.693482 87.0296,1.36015 85.5,1.5C 80.9275,2.18114 76.4275,3.18114 72,4.5C 71.2352,4.43007 70.7352,4.09674 70.5,3.5C 70.5,3.16667 70.5,2.83333 70.5,2.5C 72.1788,2.71481 73.1788,2.04814 73.5,0.5C 76.3854,0.8064 79.0521,0.473067 81.5,-0.5 Z"/></g>
<g><path style="opacity:0.004" fill="#7f807f" d="M 65.5,3.5 C 64.8333,2.16667 64.8333,2.16667 65.5,3.5 Z"/></g>
<g><path style="opacity:0.004" fill="#7f807f" d="M 449.5,2.5 C 450.833,3.16667 450.833,3.16667 449.5,2.5 Z"/></g>
<g><path style="opacity:0.906" fill="#676767" d="M 65.5,3.5 C 66.8333,3.5 68.1667,3.5 69.5,3.5C 68.8166,5.17649 67.4832,5.84316 65.5,5.5C 65.5,4.83333 65.5,4.16667 65.5,3.5 Z"/></g>
<g><path style="opacity:0.973" fill="#6b6b6b" d="M 445.5,3.5 C 446.833,3.5 448.167,3.5 449.5,3.5C 449.5,4.16667 449.5,4.83333 449.5,5.5C 447.517,5.84316 446.183,5.17649 445.5,3.5 Z"/></g>
<g><path style="opacity:0.004" fill="#b0b1b0" d="M 57.5,6.5 C 58.1667,5.16667 58.8333,5.16667 59.5,6.5C 58.8333,6.5 58.1667,6.5 57.5,6.5 Z"/></g>
<g><path style="opacity:0.004" fill="#cacbca" d="M 454.5,5.5 C 455.833,6.16667 455.833,6.16667 454.5,5.5 Z"/></g>
<g><path style="opacity:0.004" fill="#c6c7c6" d="M 57.5,6.5 C 56.8333,7.16667 56.8333,7.16667 57.5,6.5 Z"/></g>
<g><path style="opacity:0.004" fill="#909190" d="M 457.5,6.5 C 458.833,7.16667 458.833,7.16667 457.5,6.5 Z"/></g>
<g><path style="opacity:0.004" fill="#cfd0cf" d="M 54.5,8.5 C 55.8333,9.16667 55.8333,9.16667 54.5,8.5 Z"/></g>
<g><path style="opacity:0.004" fill="#bcbdbc" d="M 459.5,8.5 C 460.833,9.16667 460.833,9.16667 459.5,8.5 Z"/></g>
<g><path style="opacity:0.004" fill="#cccdcc" d="M 51.5,9.5 C 52.8333,10.1667 52.8333,10.1667 51.5,9.5 Z"/></g>
<g><path style="opacity:0.624" fill="#b1b1b1" d="M 450.5,5.5 C 451.833,5.83333 453.167,6.16667 454.5,6.5C 456.222,7.99991 457.888,9.66657 459.5,11.5C 455.185,11.2903 452.185,9.29034 450.5,5.5 Z"/></g>
<g><path style="opacity:0.004" fill="#cbcccb" d="M 462.5,9.5 C 463.833,10.1667 463.833,10.1667 462.5,9.5 Z"/></g>
<g><path style="opacity:0.004" fill="#c6c7c6" d="M 49.5,11.5 C 50.8333,12.1667 50.8333,12.1667 49.5,11.5 Z"/></g>
<g><path style="opacity:0.004" fill="#c6c7c6" d="M 464.5,11.5 C 465.833,12.1667 465.833,12.1667 464.5,11.5 Z"/></g>
<g><path style="opacity:0.004" fill="#7c7d7c" d="M 46.5,12.5 C 47.8333,13.1667 47.8333,13.1667 46.5,12.5 Z"/></g>
<g><path style="opacity:0.004" fill="#7c7d7c" d="M 467.5,12.5 C 468.833,13.1667 468.833,13.1667 467.5,12.5 Z"/></g>
<g><path style="opacity:0.004" fill="#777877" d="M 46.5,15.5 C 45.8333,14.1667 45.8333,14.1667 46.5,15.5 Z"/></g>
<g><path style="opacity:0.004" fill="#777877" d="M 469.5,14.5 C 470.833,15.1667 470.833,15.1667 469.5,14.5 Z"/></g>
<g><path style="opacity:1" fill="#777777" d="M 50.5,14.5 C 49.9653,16.4456 48.632,17.4456 46.5,17.5C 46.5,16.8333 46.5,16.1667 46.5,15.5C 47.7498,15.4226 48.5831,14.756 49,13.5C 49.3826,14.056 49.8826,14.3893 50.5,14.5 Z"/></g>
<g><path style="opacity:1" fill="#757575" d="M 467.5,13.5 C 467.833,14.8333 468.167,16.1667 468.5,17.5C 467.833,17.5 467.167,17.5 466.5,17.5C 465.449,16.7777 464.782,15.7777 464.5,14.5C 465.391,13.8902 466.391,13.5569 467.5,13.5 Z"/></g>
<g><path style="opacity:0.004" fill="#e3e4e3" d="M 44.5,18.5 C 43.8333,17.1667 43.8333,17.1667 44.5,18.5 Z"/></g>
<g><path style="opacity:0.004" fill="#e3e4e3" d="M 470.5,17.5 C 471.833,18.1667 471.833,18.1667 470.5,17.5 Z"/></g>
<g><path style="opacity:0.004" fill="#d1d2d1" d="M 41.5,18.5 C 42.8333,19.1667 42.8333,19.1667 41.5,18.5 Z"/></g>
<g><path style="opacity:0.004" fill="#d1d2d1" d="M 472.5,18.5 C 473.833,19.1667 473.833,19.1667 472.5,18.5 Z"/></g>
<g><path style="opacity:0.004" fill="#cecfce" d="M 41.5,21.5 C 40.8333,20.1667 40.8333,20.1667 41.5,21.5 Z"/></g>
<g><path style="opacity:0.004" fill="#cecfce" d="M 473.5,20.5 C 474.833,21.1667 474.833,21.1667 473.5,20.5 Z"/></g>
<g><path style="opacity:0.004" fill="#d2d3d2" d="M 38.5,21.5 C 39.8333,22.1667 39.8333,22.1667 38.5,21.5 Z"/></g>
<g><path style="opacity:0.004" fill="#d2d3d2" d="M 475.5,21.5 C 476.833,22.1667 476.833,22.1667 475.5,21.5 Z"/></g>
<g><path style="opacity:0.004" fill="#b8b9b8" d="M 38.5,24.5 C 37.8333,23.1667 37.8333,23.1667 38.5,24.5 Z"/></g>
<g><path style="opacity:0.086" fill="#bfbfbf" d="M 466.5,17.5 C 467.167,17.5 467.833,17.5 468.5,17.5C 468.842,18.3382 469.508,18.6716 470.5,18.5C 470.5,20.5 471.5,21.5 473.5,21.5C 474.585,23.5869 476.251,24.9202 478.5,25.5C 478.285,27.1788 478.952,28.1788 480.5,28.5C 480.443,29.609 480.11,30.609 479.5,31.5C 475.884,26.2158 471.551,21.5491 466.5,17.5 Z"/></g>
<g><path style="opacity:0.004" fill="#b7b8b7" d="M 478.5,24.5 C 477.833,23.1667 477.833,23.1667 478.5,24.5 Z"/></g>
<g><path style="opacity:0.004" fill="#838483" d="M 478.5,24.5 C 479.833,25.1667 479.833,25.1667 478.5,24.5 Z"/></g>
<g><path style="opacity:0.004" fill="#9b9c9b" d="M 36.5,27.5 C 35.8333,26.1667 35.8333,26.1667 36.5,27.5 Z"/></g>
<g><path style="opacity:0.004" fill="#909190" d="M 33.5,27.5 C 34.8333,28.1667 34.8333,28.1667 33.5,27.5 Z"/></g>
<g><path style="opacity:0.004" fill="#909190" d="M 480.5,27.5 C 481.833,28.1667 481.833,28.1667 480.5,27.5 Z"/></g>
<g><path style="opacity:0.004" fill="#aeafae" d="M 33.5,31.5 C 32.8333,30.1667 32.8333,30.1667 33.5,31.5 Z"/></g>
<g><path style="opacity:0.004" fill="#aeafae" d="M 481.5,30.5 C 482.833,31.1667 482.833,31.1667 481.5,30.5 Z"/></g>
<g><path style="opacity:1" fill="#afafaf" d="M 36.5,27.5 C 37.1667,27.5 37.8333,27.5 38.5,27.5C 37.5448,29.7457 36.8782,32.079 36.5,34.5C 35.5,34.5 34.5,34.5 33.5,34.5C 33.5,33.5 33.5,32.5 33.5,31.5C 35.2014,30.7886 36.2014,29.4553 36.5,27.5 Z"/></g>
<g><path style="opacity:0.004" fill="#e3e4e3" d="M 31.5,34.5 C 30.8333,33.1667 30.8333,33.1667 31.5,34.5 Z"/></g>
<g><path style="opacity:0.004" fill="#e3e4e3" d="M 483.5,33.5 C 484.833,34.1667 484.833,34.1667 483.5,33.5 Z"/></g>
<g><path style="opacity:0.004" fill="#979897" d="M 30.5,37.5 C 29.8333,36.1667 29.8333,36.1667 30.5,37.5 Z"/></g>
<g><path style="opacity:0.004" fill="#979897" d="M 485.5,36.5 C 486.833,37.1667 486.833,37.1667 485.5,36.5 Z"/></g>
<g><path style="opacity:0.004" fill="#787978" d="M 28.5,40.5 C 27.8333,39.1667 27.8333,39.1667 28.5,40.5 Z"/></g>
<g><path style="opacity:0.004" fill="#787978" d="M 486.5,39.5 C 487.833,40.1667 487.833,40.1667 486.5,39.5 Z"/></g>
<g><path style="opacity:0.004" fill="#8d8e8d" d="M 26.5,43.5 C 25.8333,42.1667 25.8333,42.1667 26.5,43.5 Z"/></g>
<g><path style="opacity:0.945" fill="#9e9e9e" d="M 30.5,37.5 C 30.8333,37.5 31.1667,37.5 31.5,37.5C 32.0967,37.7352 32.4301,38.2352 32.5,39C 31.4752,43.1663 29.8085,46.9996 27.5,50.5C 26.8333,50.5 26.1667,50.5 25.5,50.5C 25.5106,48.9826 26.1772,47.8159 27.5,47C 26.6634,45.9887 26.33,44.8221 26.5,43.5C 28.0481,43.1788 28.7148,42.1788 28.5,40.5C 30.0481,40.1788 30.7148,39.1788 30.5,37.5 Z"/></g>
<g><path style="opacity:0.004" fill="#8d8e8d" d="M 488.5,42.5 C 489.833,43.1667 489.833,43.1667 488.5,42.5 Z"/></g>
<g><path style="opacity:0.004" fill="#7f807f" d="M 24.5,46.5 C 25.8333,47.1667 25.8333,47.1667 24.5,46.5 Z"/></g>
<g><path style="opacity:0.004" fill="#7e7f7e" d="M 489.5,46.5 C 490.833,47.1667 490.833,47.1667 489.5,46.5 Z"/></g>
<g><path style="opacity:0.004" fill="#b8b9b8" d="M 23.5,58.5 C 22.8333,57.1667 22.8333,57.1667 23.5,58.5 Z"/></g>
<g><path style="opacity:0.004" fill="#b8b9b8" d="M 491.5,57.5 C 492.833,58.1667 492.833,58.1667 491.5,57.5 Z"/></g>
<g><path style="opacity:0.918" fill="#b6b6b6" d="M 484.5,40.5 C 485.167,40.5 485.833,40.5 486.5,40.5C 486.285,42.1788 486.952,43.1788 488.5,43.5C 488.52,48.9536 489.52,53.9536 491.5,58.5C 491.5,203.5 491.5,348.5 491.5,493.5C 490.833,493.5 490.167,493.5 489.5,493.5C 489.833,349.999 489.5,206.666 488.5,63.5C 488.065,55.6607 486.732,47.994 484.5,40.5 Z"/></g>
<g><path style="opacity:1" fill="#d2d2d2" d="M 488.5,63.5 C 489.5,206.666 489.833,349.999 489.5,493.5C 489.692,497.253 488.692,500.587 486.5,503.5C 484.5,503.5 483.5,504.5 483.5,506.5C 482.833,506.5 482.167,506.5 481.5,506.5C 484.695,502.429 486.862,497.762 488,492.5C 488.5,349.5 488.667,206.5 488.5,63.5 Z"/></g>
<g><path style="opacity:1" fill="#cdcdcd" d="M 25.5,50.5 C 26.1667,50.5 26.8333,50.5 27.5,50.5C 26.179,197.824 26.179,345.157 27.5,492.5C 28.2916,495.973 29.2916,499.306 30.5,502.5C 26.6892,500.69 25.0225,497.69 25.5,493.5C 25.5,348.5 25.5,203.5 25.5,58.5C 25.5,55.8333 25.5,53.1667 25.5,50.5 Z"/></g>
<g><path style="opacity:0.459" fill="#b4b4b4" d="M 23.5,58.5 C 24.1667,58.5 24.8333,58.5 25.5,58.5C 25.5,203.5 25.5,348.5 25.5,493.5C 24.8333,493.5 24.1667,493.5 23.5,493.5C 23.5,348.5 23.5,203.5 23.5,58.5 Z"/></g>
<g><path style="opacity:1" fill="#a7a7a7" d="M 268.5,370.5 C 267.833,370.5 267.167,370.5 266.5,370.5C 265.415,368.413 263.749,367.08 261.5,366.5C 259.807,363.827 257.474,363.16 254.5,364.5C 254.884,362.707 256.05,361.707 258,361.5C 263.211,362.672 266.711,365.672 268.5,370.5 Z"/></g>
<g><path style="opacity:0.004" fill="#8b8c8b" d="M 257.5,365.5 C 258.833,366.167 258.833,366.167 257.5,365.5 Z"/></g>
<g><path style="opacity:0.004" fill="#9a9b9a" d="M 253.5,366.5 C 254.833,367.167 254.833,367.167 253.5,366.5 Z"/></g>
<g><path style="opacity:0.004" fill="#9a9b9a" d="M 261.5,366.5 C 260.833,367.167 260.833,367.167 261.5,366.5 Z"/></g>
<g><path style="opacity:0.153" fill="#999999" d="M 253.5,364.5 C 253.5,365.167 253.5,365.833 253.5,366.5C 251.167,367.833 248.833,369.167 246.5,370.5C 247.872,367.466 250.206,365.466 253.5,364.5 Z"/></g>
<g><path style="opacity:0.004" fill="#b0b1b0" d="M 250.5,369.5 C 251.833,370.167 251.833,370.167 250.5,369.5 Z"/></g>
<g><path style="opacity:0.004" fill="#b0b1b0" d="M 263.5,369.5 C 264.833,370.167 264.833,370.167 263.5,369.5 Z"/></g>
<g><path style="opacity:0.004" fill="#989998" d="M 266.5,370.5 C 265.833,371.167 265.833,371.167 266.5,370.5 Z"/></g>
<g><path style="opacity:0.698" fill="#989898" d="M 243.5,372.5 C 242.5,373.833 241.5,375.167 240.5,376.5C 239.833,376.5 239.167,376.5 238.5,376.5C 239.238,373.374 240.905,372.04 243.5,372.5 Z"/></g>
<g><path style="opacity:0.004" fill="#dcdddc" d="M 245.5,372.5 C 246.833,373.167 246.833,373.167 245.5,372.5 Z"/></g>
<g><path style="opacity:0.004" fill="#dcdddc" d="M 268.5,372.5 C 269.833,373.167 269.833,373.167 268.5,372.5 Z"/></g>
<g><path style="opacity:0.004" fill="#9d9e9d" d="M 271.5,373.5 C 270.833,374.167 270.833,374.167 271.5,373.5 Z"/></g>
<g><path style="opacity:0.395" fill="#7f7f7f" d="M 271.5,373.5 C 271.5,373.167 271.5,372.833 271.5,372.5C 273.795,373.136 275.461,374.469 276.5,376.5C 275.833,376.5 275.167,376.5 274.5,376.5C 273.833,375.167 272.833,374.167 271.5,373.5 Z"/></g>
<g><path style="opacity:0.004" fill="#a3a4a3" d="M 242.5,375.5 C 243.833,376.167 243.833,376.167 242.5,375.5 Z"/></g>
<g><path style="opacity:0.004" fill="#a3a4a3" d="M 271.5,375.5 C 272.833,376.167 272.833,376.167 271.5,375.5 Z"/></g>
<g><path style="opacity:0.004" fill="#898a89" d="M 240.5,376.5 C 241.833,377.167 241.833,377.167 240.5,376.5 Z"/></g>
<g><path style="opacity:0.004" fill="#898a89" d="M 274.5,376.5 C 273.833,377.167 273.833,377.167 274.5,376.5 Z"/></g>
<g><path style="opacity:0.004" fill="#dadbda" d="M 237.5,378.5 C 238.833,379.167 238.833,379.167 237.5,378.5 Z"/></g>
<g><path style="opacity:0.004" fill="#dadbda" d="M 276.5,378.5 C 277.833,379.167 277.833,379.167 276.5,378.5 Z"/></g>
<g><path style="opacity:0.004" fill="#969796" d="M 237.5,379.5 C 236.833,380.167 236.833,380.167 237.5,379.5 Z"/></g>
<g><path style="opacity:0.004" fill="#969796" d="M 279.5,379.5 C 278.833,380.167 278.833,380.167 279.5,379.5 Z"/></g>
<g><path style="opacity:0.004" fill="#999a99" d="M 234.5,381.5 C 235.833,382.167 235.833,382.167 234.5,381.5 Z"/></g>
<g><path style="opacity:0.004" fill="#999a99" d="M 279.5,381.5 C 280.833,382.167 280.833,382.167 279.5,381.5 Z"/></g>
<g><path style="opacity:0.004" fill="#949594" d="M 232.5,382.5 C 233.833,383.167 233.833,383.167 232.5,382.5 Z"/></g>
<g><path style="opacity:0.004" fill="#949594" d="M 282.5,382.5 C 281.833,383.167 281.833,383.167 282.5,382.5 Z"/></g>
<g><path style="opacity:0.604" fill="#9f9f9f" d="M 235.5,378.5 C 234.5,379.833 233.5,381.167 232.5,382.5C 230.712,383.36 229.045,384.36 227.5,385.5C 225.81,385.856 224.81,386.856 224.5,388.5C 223.833,388.5 223.167,388.5 222.5,388.5C 222.33,387.178 222.663,386.011 223.5,385C 226.818,383.179 229.818,381.013 232.5,378.5C 233.687,377.347 234.687,377.347 235.5,378.5 Z"/></g>
<g><path style="opacity:1" fill="#ababab" d="M 279.5,379.5 C 279.5,379.167 279.5,378.833 279.5,378.5C 282.408,379.713 285.408,380.879 288.5,382C 290.742,383.77 292.408,385.937 293.5,388.5C 292.5,388.5 291.5,388.5 290.5,388.5C 290.5,386.5 289.5,385.5 287.5,385.5C 285.955,384.36 284.288,383.36 282.5,382.5C 282.5,380.5 281.5,379.5 279.5,379.5 Z"/></g>
<g><path style="opacity:0.004" fill="#7b7c7b" d="M 231.5,384.5 C 232.833,385.167 232.833,385.167 231.5,384.5 Z"/></g>
<g><path style="opacity:0.004" fill="#cecfce" d="M 227.5,385.5 C 228.239,385.369 228.906,385.536 229.5,386C 228.563,386.692 227.897,386.525 227.5,385.5 Z"/></g>
<g><path style="opacity:0.004" fill="#cccdcc" d="M 287.5,385.5 C 286.833,386.167 286.833,386.167 287.5,385.5 Z"/></g>
<g><path style="opacity:0.004" fill="#bbbcbb" d="M 226.5,387.5 C 227.833,388.167 227.833,388.167 226.5,387.5 Z"/></g>
<g><path style="opacity:0.004" fill="#bbbcbb" d="M 287.5,387.5 C 288.833,388.167 288.833,388.167 287.5,387.5 Z"/></g>
<g><path style="opacity:0.004" fill="#848584" d="M 224.5,388.5 C 225.833,389.167 225.833,389.167 224.5,388.5 Z"/></g>
<g><path style="opacity:0.004" fill="#848584" d="M 290.5,388.5 C 289.833,389.167 289.833,389.167 290.5,388.5 Z"/></g>
<g><path style="opacity:0.004" fill="#dfe0df" d="M 221.5,390.5 C 222.833,391.167 222.833,391.167 221.5,390.5 Z"/></g>
<g><path style="opacity:0.004" fill="#dfe0df" d="M 292.5,390.5 C 293.833,391.167 293.833,391.167 292.5,390.5 Z"/></g>
<g><path style="opacity:0.004" fill="#c0c1c0" d="M 219.5,391.5 C 220.833,392.167 220.833,392.167 219.5,391.5 Z"/></g>
<g><path style="opacity:0.004" fill="#c0c1c0" d="M 295.5,391.5 C 294.833,392.167 294.833,392.167 295.5,391.5 Z"/></g>
<g><path style="opacity:0.004" fill="#b7b8b7" d="M 218.5,393.5 C 219.833,394.167 219.833,394.167 218.5,393.5 Z"/></g>
<g><path style="opacity:0.184" fill="#626262" d="M 214.5,393.5 C 214.167,394.833 213.833,396.167 213.5,397.5C 212.833,397.5 212.167,397.5 211.5,397.5C 211.554,395.368 212.554,394.035 214.5,393.5 Z"/></g>
<g><path style="opacity:0.004" fill="#7b7c7b" d="M 213.5,397.5 C 214.833,398.167 214.833,398.167 213.5,397.5 Z"/></g>
<g><path style="opacity:0.004" fill="#7b7c7b" d="M 300.5,397.5 C 301.833,398.167 301.833,398.167 300.5,397.5 Z"/></g>
<g><path style="opacity:1" fill="#d1d1d1" d="M 316.5,406.5 C 315.833,406.5 315.167,406.5 314.5,406.5C 314.5,404.5 313.5,403.5 311.5,403.5C 310.952,400.916 309.285,399.916 306.5,400.5C 303.694,398.476 301.361,395.809 299.5,392.5C 298.914,392.709 298.414,393.043 298,393.5C 297.583,392.244 296.75,391.577 295.5,391.5C 295.218,390.222 294.551,389.222 293.5,388.5C 294.15,388.196 294.817,387.863 295.5,387.5C 297.118,389.316 299.118,390.649 301.5,391.5C 302.246,392.736 302.579,394.07 302.5,395.5C 306.856,396.511 310.856,398.344 314.5,401C 315.464,402.725 316.131,404.559 316.5,406.5 Z"/></g>
<g><path style="opacity:0.004" fill="#cfd0cf" d="M 208.5,400.5 C 209.833,401.167 209.833,401.167 208.5,400.5 Z"/></g>
<g><path style="opacity:0.004" fill="#cfd0cf" d="M 306.5,400.5 C 305.833,401.167 305.833,401.167 306.5,400.5 Z"/></g>
<g><path style="opacity:0.004" fill="#dadbda" d="M 205.5,401.5 C 206.833,402.167 206.833,402.167 205.5,401.5 Z"/></g>
<g><path style="opacity:0.004" fill="#dadbda" d="M 308.5,401.5 C 309.833,402.167 309.833,402.167 308.5,401.5 Z"/></g>
<g><path style="opacity:0.004" fill="#c8c9c8" d="M 203.5,403.5 C 204.833,404.167 204.833,404.167 203.5,403.5 Z"/></g>
<g><path style="opacity:0.004" fill="#c8c9c8" d="M 311.5,403.5 C 311.5,403.833 311.5,404.167 311.5,404.5C 310.83,404.019 310.83,403.685 311.5,403.5 Z"/></g>
<g><path style="opacity:0.004" fill="#b8b9b8" d="M 203.5,404.5 C 202.833,405.167 202.833,405.167 203.5,404.5 Z"/></g>
<g><path style="opacity:0.004" fill="#b8b9b8" d="M 311.5,404.5 C 312.833,405.167 312.833,405.167 311.5,404.5 Z"/></g>
<g><path style="opacity:0.004" fill="#c4c5c4" d="M 200.5,406.5 C 201.833,407.167 201.833,407.167 200.5,406.5 Z"/></g>
<g><path style="opacity:0.004" fill="#c4c5c4" d="M 314.5,406.5 C 313.833,407.167 313.833,407.167 314.5,406.5 Z"/></g>
<g><path style="opacity:0.004" fill="#cacbca" d="M 197.5,407.5 C 198.833,408.167 198.833,408.167 197.5,407.5 Z"/></g>
<g><path style="opacity:0.004" fill="#cacbca" d="M 316.5,407.5 C 317.833,408.167 317.833,408.167 316.5,407.5 Z"/></g>
<g><path style="opacity:0.004" fill="#cbcccb" d="M 195.5,409.5 C 196.833,410.167 196.833,410.167 195.5,409.5 Z"/></g>
<g><path style="opacity:0.004" fill="#cbcccb" d="M 319.5,410.5 C 318.833,409.167 318.833,409.167 319.5,410.5 Z"/></g>
<g><path style="opacity:0.004" fill="#d6d7d6" d="M 195.5,410.5 C 194.833,411.167 194.833,411.167 195.5,410.5 Z"/></g>
<g><path style="opacity:0.004" fill="#d6d7d6" d="M 319.5,410.5 C 320.833,411.167 320.833,411.167 319.5,410.5 Z"/></g>
<g><path style="opacity:0.004" fill="#c9cac9" d="M 192.5,412.5 C 193.833,413.167 193.833,413.167 192.5,412.5 Z"/></g>
<g><path style="opacity:0.004" fill="#c9cac9" d="M 321.5,412.5 C 322.833,413.167 322.833,413.167 321.5,412.5 Z"/></g>
<g><path style="opacity:0.004" fill="#a6a7a6" d="M 192.5,413.5 C 191.833,414.167 191.833,414.167 192.5,413.5 Z"/></g>
<g><path style="opacity:0.004" fill="#a6a7a6" d="M 324.5,413.5 C 323.833,414.167 323.833,414.167 324.5,413.5 Z"/></g>
<g><path style="opacity:0.082" fill="#bcbcbc" d="M 197.5,406.5 C 197.5,406.833 197.5,407.167 197.5,407.5C 194.569,409.091 191.902,411.091 189.5,413.5C 188.29,413.932 187.29,414.599 186.5,415.5C 185.395,416.6 184.062,417.267 182.5,417.5C 182.414,416.504 182.748,415.671 183.5,415C 187.766,412.734 191.433,409.734 194.5,406C 195.749,405.26 196.749,405.427 197.5,406.5 Z"/></g>
<g><path style="opacity:0.047" fill="#333333" d="M 189.5,413.5 C 189.5,414.167 189.5,414.833 189.5,415.5C 188.5,415.5 187.5,415.5 186.5,415.5C 187.29,414.599 188.29,413.932 189.5,413.5 Z"/></g>
<g><path style="opacity:0.004" fill="#848584" d="M 189.5,415.5 C 190.833,416.167 190.833,416.167 189.5,415.5 Z"/></g>
<g><path style="opacity:0.004" fill="#848584" d="M 324.5,415.5 C 325.833,416.167 325.833,416.167 324.5,415.5 Z"/></g>
<g><path style="opacity:0.514" fill="#b3b3b3" d="M 340.5,423.5 C 339.391,423.443 338.391,423.11 337.5,422.5C 337.294,420.451 336.461,420.117 335,421.5C 334.583,420.244 333.75,419.577 332.5,419.5C 332.19,417.856 331.19,416.856 329.5,416.5C 327.955,415.36 326.288,414.36 324.5,413.5C 322.5,411.167 320.5,408.833 318.5,406.5C 318.56,405.957 318.893,405.624 319.5,405.5C 325.271,410.939 331.604,415.605 338.5,419.5C 339.18,420.86 339.847,422.193 340.5,423.5 Z"/></g>
<g><path style="opacity:0.004" fill="#cdcecd" d="M 186.5,416.5 C 187.833,417.167 187.833,417.167 186.5,416.5 Z"/></g>
<g><path style="opacity:0.004" fill="#cdcecd" d="M 329.5,416.5 C 329.103,417.525 328.437,417.692 327.5,417C 328.094,416.536 328.761,416.369 329.5,416.5 Z"/></g>
<g><path style="opacity:0.004" fill="#bbbcbb" d="M 184.5,418.5 C 185.833,419.167 185.833,419.167 184.5,418.5 Z"/></g>
<g><path style="opacity:0.004" fill="#bbbcbb" d="M 329.5,418.5 C 330.833,419.167 330.833,419.167 329.5,418.5 Z"/></g>
<g><path style="opacity:0.004" fill="#929392" d="M 182.5,419.5 C 183.167,419.5 183.833,419.5 184.5,419.5C 183.833,420.833 183.167,420.833 182.5,419.5 Z"/></g>
<g><path style="opacity:0.004" fill="#929392" d="M 332.5,419.5 C 331.833,420.167 331.833,420.167 332.5,419.5 Z"/></g>
<g><path style="opacity:0.031" fill="#a2a2a2" d="M 182.5,417.5 C 182.5,418.167 182.5,418.833 182.5,419.5C 179.798,420.064 177.131,421.397 174.5,423.5C 175.977,420.066 178.643,418.066 182.5,417.5 Z"/></g>
<g><path style="opacity:0.004" fill="#7e7f7e" d="M 181.5,421.5 C 182.833,422.167 182.833,422.167 181.5,421.5 Z"/></g>
<g><path style="opacity:0.004" fill="#7e7f7e" d="M 332.5,421.5 C 333.833,422.167 333.833,422.167 332.5,421.5 Z"/></g>
<g><path style="opacity:0.004" fill="#c8c9c8" d="M 178.5,422.5 C 179.833,423.167 179.833,423.167 178.5,422.5 Z"/></g>
<g><path style="opacity:0.004" fill="#c8c9c8" d="M 337.5,422.5 C 337.103,423.525 336.437,423.692 335.5,423C 336.094,422.536 336.761,422.369 337.5,422.5 Z"/></g>
<g><path style="opacity:0.004" fill="#c9cac9" d="M 176.5,424.5 C 177.833,425.167 177.833,425.167 176.5,424.5 Z"/></g>
<g><path style="opacity:0.004" fill="#c9cac9" d="M 337.5,424.5 C 338.833,425.167 338.833,425.167 337.5,424.5 Z"/></g>
<g><path style="opacity:0.004" fill="#aaabaa" d="M 174.5,425.5 C 175.167,425.5 175.833,425.5 176.5,425.5C 175.833,426.833 175.167,426.833 174.5,425.5 Z"/></g>
<g><path style="opacity:0.004" fill="#a4a5a4" d="M 340.5,425.5 C 339.833,426.167 339.833,426.167 340.5,425.5 Z"/></g>
<g><path style="opacity:0.184" fill="#a1a1a1" d="M 174.5,423.5 C 174.5,424.167 174.5,424.833 174.5,425.5C 172.5,425.5 171.5,426.5 171.5,428.5C 170.209,428.263 169.209,428.596 168.5,429.5C 167.167,429.5 166.5,430.167 166.5,431.5C 164.5,431.5 163.5,432.5 163.5,434.5C 162.833,434.5 162.167,434.5 161.5,434.5C 164.264,429.076 168.598,425.409 174.5,423.5 Z"/></g>
<g><path style="opacity:0.314" fill="#9f9f9f" d="M 340.5,423.5 C 346.353,426.023 351.686,429.356 356.5,433.5C 359.566,435.563 361.899,438.23 363.5,441.5C 362.833,441.5 362.167,441.5 361.5,441.5C 359.214,437.529 355.881,435.196 351.5,434.5C 351.5,432.5 350.5,431.5 348.5,431.5C 347.952,428.916 346.285,427.916 343.5,428.5C 343.5,426.5 342.5,425.5 340.5,425.5C 340.5,424.833 340.5,424.167 340.5,423.5 Z"/></g>
<g><path style="opacity:0.004" fill="#9d9e9d" d="M 171.5,428.5 C 172.833,429.167 172.833,429.167 171.5,428.5 Z"/></g>
<g><path style="opacity:0.004" fill="#9d9e9d" d="M 343.5,428.5 C 342.833,429.167 342.833,429.167 343.5,428.5 Z"/></g>
<g><path style="opacity:0.004" fill="#b8b9b8" d="M 168.5,429.5 C 169.833,430.167 169.833,430.167 168.5,429.5 Z"/></g>
<g><path style="opacity:0.004" fill="#b8b9b8" d="M 345.5,429.5 C 346.833,430.167 346.833,430.167 345.5,429.5 Z"/></g>
<g><path style="opacity:0.004" fill="#9c9d9c" d="M 166.5,431.5 C 167.833,432.167 167.833,432.167 166.5,431.5 Z"/></g>
<g><path style="opacity:0.004" fill="#9c9d9c" d="M 348.5,431.5 C 348.5,431.833 348.5,432.167 348.5,432.5C 347.83,432.019 347.83,431.685 348.5,431.5 Z"/></g>
<g><path style="opacity:0.004" fill="#7c7d7c" d="M 166.5,432.5 C 165.833,433.167 165.833,433.167 166.5,432.5 Z"/></g>
<g><path style="opacity:0.004" fill="#7c7d7c" d="M 348.5,432.5 C 349.833,433.167 349.833,433.167 348.5,432.5 Z"/></g>
<g><path style="opacity:0.004" fill="#909190" d="M 163.5,434.5 C 164.833,435.167 164.833,435.167 163.5,434.5 Z"/></g>
<g><path style="opacity:0.004" fill="#909190" d="M 351.5,434.5 C 350.833,435.167 350.833,435.167 351.5,434.5 Z"/></g>
<g><path style="opacity:0.004" fill="#a7a8a7" d="M 160.5,435.5 C 161.833,436.167 161.833,436.167 160.5,435.5 Z"/></g>
<g><path style="opacity:0.004" fill="#a7a8a7" d="M 353.5,435.5 C 354.833,436.167 354.833,436.167 353.5,435.5 Z"/></g>
<g><path style="opacity:0.843" fill="#9c9c9c" d="M 158.5,435.5 C 156.761,438.243 154.427,440.243 151.5,441.5C 152.363,437.887 154.697,435.887 158.5,435.5 Z"/></g>
<g><path style="opacity:0.004" fill="#a2a3a2" d="M 158.5,437.5 C 159.833,438.167 159.833,438.167 158.5,437.5 Z"/></g>
<g><path style="opacity:0.004" fill="#a2a3a2" d="M 356.5,438.5 C 355.833,437.167 355.833,437.167 356.5,438.5 Z"/></g>
<g><path style="opacity:0.004" fill="#a4a5a4" d="M 158.5,438.5 C 157.833,439.167 157.833,439.167 158.5,438.5 Z"/></g>
<g><path style="opacity:0.004" fill="#a4a5a4" d="M 356.5,438.5 C 357.833,439.167 357.833,439.167 356.5,438.5 Z"/></g>
<g><path style="opacity:0.004" fill="#949594" d="M 155.5,440.5 C 156.833,441.167 156.833,441.167 155.5,440.5 Z"/></g>
<g><path style="opacity:0.004" fill="#949594" d="M 358.5,440.5 C 359.833,441.167 359.833,441.167 358.5,440.5 Z"/></g>
<g><path style="opacity:0.004" fill="#797a79" d="M 155.5,441.5 C 154.833,442.167 154.833,442.167 155.5,441.5 Z"/></g>
<g><path style="opacity:0.004" fill="#797a79" d="M 361.5,441.5 C 360.833,442.167 360.833,442.167 361.5,441.5 Z"/></g>
<g><path style="opacity:0.004" fill="#939493" d="M 150.5,443.5 C 151.833,444.167 151.833,444.167 150.5,443.5 Z"/></g>
<g><path style="opacity:0.004" fill="#939493" d="M 364.5,444.5 C 363.833,443.167 363.833,443.167 364.5,444.5 Z"/></g>
<g><path style="opacity:0.541" fill="#acacac" d="M 150.5,441.5 C 149.075,442.922 148.075,444.589 147.5,446.5C 146.504,446.586 145.671,446.252 145,445.5C 142.894,448.118 140.394,450.118 137.5,451.5C 140.314,446.371 144.647,443.037 150.5,441.5 Z"/></g>
<g><path style="opacity:0.004" fill="#999a99" d="M 150.5,444.5 C 149.833,445.167 149.833,445.167 150.5,444.5 Z"/></g>
<g><path style="opacity:0.004" fill="#999a99" d="M 364.5,444.5 C 365.833,445.167 365.833,445.167 364.5,444.5 Z"/></g>
<g><path style="opacity:0.429" fill="#9f9f9f" d="M 364.5,441.5 C 370.34,443.021 374.673,446.354 377.5,451.5C 376.391,451.443 375.391,451.11 374.5,450.5C 373.258,448.75 371.758,447.083 370,445.5C 369.329,446.252 368.496,446.586 367.5,446.5C 366.925,444.589 365.925,442.922 364.5,441.5 Z"/></g>
<g><path style="opacity:0.004" fill="#878887" d="M 147.5,446.5 C 148.833,447.167 148.833,447.167 147.5,446.5 Z"/></g>
<g><path style="opacity:0.004" fill="#878887" d="M 367.5,446.5 C 366.833,447.167 366.833,447.167 367.5,446.5 Z"/></g>
<g><path style="opacity:0.004" fill="#dcdddc" d="M 144.5,447.5 C 145.833,448.167 145.833,448.167 144.5,447.5 Z"/></g>
<g><path style="opacity:0.004" fill="#dcdddc" d="M 369.5,447.5 C 370.833,448.167 370.833,448.167 369.5,447.5 Z"/></g>
<g><path style="opacity:0.004" fill="#888988" d="M 142.5,449.5 C 143.833,450.167 143.833,450.167 142.5,449.5 Z"/></g>
<g><path style="opacity:0.004" fill="#888988" d="M 372.5,450.5 C 371.833,449.167 371.833,449.167 372.5,450.5 Z"/></g>
<g><path style="opacity:0.004" fill="#999a99" d="M 142.5,450.5 C 141.833,451.167 141.833,451.167 142.5,450.5 Z"/></g>
<g><path style="opacity:0.004" fill="#999a99" d="M 372.5,450.5 C 373.167,450.5 373.833,450.5 374.5,450.5C 373.833,451.833 373.167,451.833 372.5,450.5 Z"/></g>
<g><path style="opacity:0.004" fill="#9c9d9c" d="M 139.5,452.5 C 140.833,453.167 140.833,453.167 139.5,452.5 Z"/></g>
<g><path style="opacity:0.004" fill="#9c9d9c" d="M 374.5,452.5 C 375.833,453.167 375.833,453.167 374.5,452.5 Z"/></g>
<g><path style="opacity:0.298" fill="#545454" d="M 377.5,451.5 C 378.833,451.5 379.5,452.167 379.5,453.5C 378.833,453.5 378.167,453.5 377.5,453.5C 377.5,452.833 377.5,452.167 377.5,451.5 Z"/></g>
<g><path style="opacity:0.004" fill="#7f807f" d="M 137.5,453.5 C 138.167,453.5 138.833,453.5 139.5,453.5C 138.833,454.833 138.167,454.833 137.5,453.5 Z"/></g>
<g><path style="opacity:0.004" fill="#7a7b7a" d="M 377.5,453.5 C 376.833,454.167 376.833,454.167 377.5,453.5 Z"/></g>
<g><path style="opacity:0.004" fill="#dbdcdb" d="M 134.5,455.5 C 135.833,456.167 135.833,456.167 134.5,455.5 Z"/></g>
<g><path style="opacity:0.004" fill="#dadbda" d="M 380.5,456.5 C 379.833,455.167 379.833,455.167 380.5,456.5 Z"/></g>
<g><path style="opacity:0.365" fill="#878787" d="M 382.5,454.5 C 384.632,454.554 385.965,455.554 386.5,457.5C 385.041,457.567 383.708,457.234 382.5,456.5C 382.5,455.833 382.5,455.167 382.5,454.5 Z"/></g>
<g><path style="opacity:0.667" fill="#a0a0a0" d="M 137.5,451.5 C 137.5,452.167 137.5,452.833 137.5,453.5C 134.5,454.833 131.5,456.167 128.5,457.5C 130.263,453.776 133.263,451.776 137.5,451.5 Z"/></g>
<g><path style="opacity:0.004" fill="#9fa09f" d="M 134.5,456.5 C 133.833,457.167 133.833,457.167 134.5,456.5 Z"/></g>
<g><path style="opacity:0.004" fill="#9fa09f" d="M 380.5,456.5 C 381.167,456.5 381.833,456.5 382.5,456.5C 381.833,457.833 381.167,457.833 380.5,456.5 Z"/></g>
<g><path style="opacity:0.929" fill="#afafaf" d="M 128.5,457.5 C 127.833,458.5 127.167,459.5 126.5,460.5C 124.856,460.81 123.856,461.81 123.5,463.5C 122.833,463.5 122.167,463.5 121.5,463.5C 122.266,459.915 124.599,457.915 128.5,457.5 Z"/></g>
<g><path style="opacity:0.004" fill="#e3e4e3" d="M 128.5,459.5 C 129.833,460.167 129.833,460.167 128.5,459.5 Z"/></g>
<g><path style="opacity:0.004" fill="#e3e4e3" d="M 385.5,459.5 C 386.833,460.167 386.833,460.167 385.5,459.5 Z"/></g>
<g><path style="opacity:0.004" fill="#cccdcc" d="M 126.5,460.5 C 127.833,461.167 127.833,461.167 126.5,460.5 Z"/></g>
<g><path style="opacity:0.004" fill="#cdcecd" d="M 388.5,460.5 C 387.833,461.167 387.833,461.167 388.5,460.5 Z"/></g>
<g><path style="opacity:0.004" fill="#9a9b9a" d="M 125.5,462.5 C 126.833,463.167 126.833,463.167 125.5,462.5 Z"/></g>
<g><path style="opacity:0.004" fill="#9a9b9a" d="M 390.5,462.5 C 390.5,462.833 390.5,463.167 390.5,463.5C 389.83,463.019 389.83,462.685 390.5,462.5 Z"/></g>
<g><path style="opacity:1" fill="#919191" d="M 390.5,460.5 C 394.151,460.162 395.817,461.828 395.5,465.5C 394.833,465.5 394.167,465.5 393.5,465.5C 393.5,463.5 392.5,462.5 390.5,462.5C 390.5,461.833 390.5,461.167 390.5,460.5 Z"/></g>
<g><path style="opacity:0.004" fill="#808180" d="M 123.5,463.5 C 124.833,464.167 124.833,464.167 123.5,463.5 Z"/></g>
<g><path style="opacity:0.004" fill="#808180" d="M 390.5,463.5 C 391.833,464.167 391.833,464.167 390.5,463.5 Z"/></g>
<g><path style="opacity:0.149" fill="#575757" d="M 121.5,463.5 C 121.5,464.167 121.5,464.833 121.5,465.5C 120.833,465.5 120.167,465.5 119.5,465.5C 119.5,464.167 120.167,463.5 121.5,463.5 Z"/></g>
<g><path style="opacity:0.004" fill="#797a79" d="M 121.5,465.5 C 122.833,466.167 122.833,466.167 121.5,465.5 Z"/></g>
<g><path style="opacity:0.004" fill="#797a79" d="M 393.5,465.5 C 392.833,466.167 392.833,466.167 393.5,465.5 Z"/></g>
<g><path style="opacity:0.004" fill="#d7d8d7" d="M 118.5,466.5 C 119.833,467.167 119.833,467.167 118.5,466.5 Z"/></g>
<g><path style="opacity:0.004" fill="#d7d8d7" d="M 396.5,466.5 C 395.833,467.167 395.833,467.167 396.5,466.5 Z"/></g>
<g><path style="opacity:0.004" fill="#b7b8b7" d="M 117.5,468.5 C 118.833,469.167 118.833,469.167 117.5,468.5 Z"/></g>
<g><path style="opacity:0.004" fill="#b7b8b7" d="M 398.5,469.5 C 397.833,468.167 397.833,468.167 398.5,469.5 Z"/></g>
<g><path style="opacity:0.004" fill="#bebfbe" d="M 115.5,469.5 C 116.833,470.167 116.833,470.167 115.5,469.5 Z"/></g>
<g><path style="opacity:0.004" fill="#bebfbe" d="M 398.5,469.5 C 399.833,470.167 399.833,470.167 398.5,469.5 Z"/></g>
<g><path style="opacity:0.004" fill="#e7e8e7" d="M 112.5,471.5 C 113.833,472.167 113.833,472.167 112.5,471.5 Z"/></g>
<g><path style="opacity:0.004" fill="#e7e8e7" d="M 401.5,471.5 C 402.833,472.167 402.833,472.167 401.5,471.5 Z"/></g>
<g><path style="opacity:0.004" fill="#c9cac9" d="M 110.5,472.5 C 111.833,473.167 111.833,473.167 110.5,472.5 Z"/></g>
<g><path style="opacity:0.004" fill="#c9cac9" d="M 404.5,472.5 C 403.833,473.167 403.833,473.167 404.5,472.5 Z"/></g>
<g><path style="opacity:0.004" fill="#aaabaa" d="M 406.5,475.5 C 405.833,474.167 405.833,474.167 406.5,475.5 Z"/></g>
<g><path style="opacity:0.004" fill="#b9bab9" d="M 107.5,475.5 C 108.833,476.167 108.833,476.167 107.5,475.5 Z"/></g>
<g><path style="opacity:0.004" fill="#b9bab9" d="M 406.5,475.5 C 407.833,476.167 407.833,476.167 406.5,475.5 Z"/></g>
<g><path style="opacity:0.004" fill="#d9dad9" d="M 104.5,477.5 C 105.833,478.167 105.833,478.167 104.5,477.5 Z"/></g>
<g><path style="opacity:0.702" fill="#c1c1c1" d="M 404.5,470.5 C 407.143,471.64 409.809,472.974 412.5,474.5C 415.32,476.855 417.654,479.522 419.5,482.5C 417.167,481.167 414.833,479.833 412.5,478.5C 412.586,477.504 412.252,476.671 411.5,476C 409.03,475.011 406.697,473.845 404.5,472.5C 404.5,471.833 404.5,471.167 404.5,470.5 Z"/></g>
<g><path style="opacity:0.004" fill="#cfd0cf" d="M 102.5,478.5 C 103.833,479.167 103.833,479.167 102.5,478.5 Z"/></g>
<g><path style="opacity:0.004" fill="#cfd0cf" d="M 412.5,478.5 C 411.833,479.167 411.833,479.167 412.5,478.5 Z"/></g>
<g><path style="opacity:0.004" fill="#c6c7c6" d="M 414.5,481.5 C 413.833,480.167 413.833,480.167 414.5,481.5 Z"/></g>
<g><path style="opacity:0.004" fill="#bdbebd" d="M 99.5,481.5 C 100.833,482.167 100.833,482.167 99.5,481.5 Z"/></g>
<g><path style="opacity:0.004" fill="#bdbebd" d="M 414.5,481.5 C 415.833,482.167 415.833,482.167 414.5,481.5 Z"/></g>
<g><path style="opacity:0.737" fill="#b3b3b3" d="M 94.5,482.5 C 94.5,483.167 94.5,483.833 94.5,484.5C 92.2512,485.08 90.5846,486.413 89.5,488.5C 88.8333,488.5 88.1667,488.5 87.5,488.5C 88.3635,484.887 90.6968,482.887 94.5,482.5 Z"/></g>
<g><path style="opacity:0.004" fill="#b8b9b8" d="M 97.5,483.5 C 98.8333,484.167 98.8333,484.167 97.5,483.5 Z"/></g>
<g><path style="opacity:0.004" fill="#b8b9b8" d="M 416.5,483.5 C 417.833,484.167 417.833,484.167 416.5,483.5 Z"/></g>
<g><path style="opacity:0.004" fill="#bfc0bf" d="M 94.5,484.5 C 95.8333,485.167 95.8333,485.167 94.5,484.5 Z"/></g>
<g><path style="opacity:0.004" fill="#bfc0bf" d="M 419.5,484.5 C 420.833,485.167 420.833,485.167 419.5,484.5 Z"/></g>
<g><path style="opacity:0.686" fill="#adadad" d="M 420.5,482.5 C 421.552,482.351 422.552,482.517 423.5,483C 425.21,484.651 426.544,486.484 427.5,488.5C 426.833,488.5 426.167,488.5 425.5,488.5C 423.833,486.5 422.167,484.5 420.5,482.5 Z"/></g>
<g><path style="opacity:0.004" fill="#b4b5b4" d="M 91.5,487.5 C 92.8333,488.167 92.8333,488.167 91.5,487.5 Z"/></g>
<g><path style="opacity:0.004" fill="#b4b5b4" d="M 422.5,487.5 C 423.833,488.167 423.833,488.167 422.5,487.5 Z"/></g>
<g><path style="opacity:0.004" fill="#a5a6a5" d="M 89.5,488.5 C 90.8333,489.167 90.8333,489.167 89.5,488.5 Z"/></g>
<g><path style="opacity:0.004" fill="#a5a6a5" d="M 425.5,488.5 C 424.833,489.167 424.833,489.167 425.5,488.5 Z"/></g>
<g><path style="opacity:0.004" fill="#b0b1b0" d="M 86.5,490.5 C 87.8333,491.167 87.8333,491.167 86.5,490.5 Z"/></g>
<g><path style="opacity:0.004" fill="#b0b1b0" d="M 427.5,490.5 C 428.833,491.167 428.833,491.167 427.5,490.5 Z"/></g>
<g><path style="opacity:0.004" fill="#c0c1c0" d="M 430.5,491.5 C 429.833,492.167 429.833,492.167 430.5,491.5 Z"/></g>
<g><path style="opacity:0.694" fill="#b0b0b0" d="M 432.5,491.5 C 435.674,492.837 438.674,494.504 441.5,496.5C 442.934,497.588 443.934,498.922 444.5,500.5C 443.5,500.5 442.5,500.5 441.5,500.5C 441.586,499.504 441.252,498.671 440.5,498C 438.03,497.011 435.697,495.845 433.5,494.5C 432.89,493.609 432.557,492.609 432.5,491.5 Z"/></g>
<g><path style="opacity:0.004" fill="#a7a8a7" d="M 23.5,493.5 C 22.8333,494.167 22.8333,494.167 23.5,493.5 Z"/></g>
<g><path style="opacity:0.004" fill="#cccdcc" d="M 83.5,493.5 C 84.8333,494.167 84.8333,494.167 83.5,493.5 Z"/></g>
<g><path style="opacity:0.004" fill="#cccdcc" d="M 430.5,493.5 C 431.833,494.167 431.833,494.167 430.5,493.5 Z"/></g>
<g><path style="opacity:0.004" fill="#a4a5a4" d="M 491.5,493.5 C 492.833,494.167 492.833,494.167 491.5,493.5 Z"/></g>
<g><path style="opacity:0.004" fill="#a8a9a8" d="M 81.5,494.5 C 82.8333,495.167 82.8333,495.167 81.5,494.5 Z"/></g>
<g><path style="opacity:0.004" fill="#b2b3b2" d="M 433.5,494.5 C 432.833,495.167 432.833,495.167 433.5,494.5 Z"/></g>
<g><path style="opacity:0.004" fill="#828382" d="M 80.5,496.5 C 81.8333,497.167 81.8333,497.167 80.5,496.5 Z"/></g>
<g><path style="opacity:0.004" fill="#858685" d="M 435.5,497.5 C 434.833,496.167 434.833,496.167 435.5,497.5 Z"/></g>
<g><path style="opacity:0.004" fill="#878887" d="M 78.5,497.5 C 79.8333,498.167 79.8333,498.167 78.5,497.5 Z"/></g>
<g><path style="opacity:0.004" fill="#878887" d="M 435.5,497.5 C 436.833,498.167 436.833,498.167 435.5,497.5 Z"/></g>
<g><path style="opacity:0.424" fill="#9d9d9d" d="M 86.5,488.5 C 86.5,489.167 86.5,489.833 86.5,490.5C 84.2512,491.08 82.5846,492.413 81.5,494.5C 79.8564,494.81 78.8564,495.81 78.5,497.5C 76.0672,497.273 74.4006,498.273 73.5,500.5C 72.8333,500.5 72.1667,500.5 71.5,500.5C 75.2072,496.507 79.2072,492.674 83.5,489C 84.448,488.517 85.448,488.351 86.5,488.5 Z"/></g>
<g><path style="opacity:0.004" fill="#888988" d="M 25.5,500.5 C 24.8333,499.167 24.8333,499.167 25.5,500.5 Z"/></g>
<g><path style="opacity:0.004" fill="#bfc0bf" d="M 75.5,499.5 C 76.8333,500.167 76.8333,500.167 75.5,499.5 Z"/></g>
<g><path style="opacity:0.004" fill="#bfc0bf" d="M 438.5,499.5 C 439.833,500.167 439.833,500.167 438.5,499.5 Z"/></g>
<g><path style="opacity:0.004" fill="#888988" d="M 489.5,499.5 C 490.833,500.167 490.833,500.167 489.5,499.5 Z"/></g>
<g><path style="opacity:0.004" fill="#a9aaa9" d="M 25.5,500.5 C 26.8333,501.167 26.8333,501.167 25.5,500.5 Z"/></g>
<g><path style="opacity:0.004" fill="#a2a3a2" d="M 73.5,500.5 C 74.8333,501.167 74.8333,501.167 73.5,500.5 Z"/></g>
<g><path style="opacity:0.004" fill="#a2a3a2" d="M 441.5,500.5 C 440.833,501.167 440.833,501.167 441.5,500.5 Z"/></g>
<g><path style="opacity:0.004" fill="#aeafae" d="M 27.5,502.5 C 28.8333,503.167 28.8333,503.167 27.5,502.5 Z"/></g>
<g><path style="opacity:0.004" fill="#808180" d="M 488.5,502.5 C 489.833,503.167 489.833,503.167 488.5,502.5 Z"/></g>
<g><path style="opacity:0.004" fill="#818281" d="M 70.5,503.5 C 71.8333,504.167 71.8333,504.167 70.5,503.5 Z"/></g>
<g><path style="opacity:0.004" fill="#808180" d="M 444.5,503.5 C 443.833,504.167 443.833,504.167 444.5,503.5 Z"/></g>
<g><path style="opacity:0.004" fill="#9a9b9a" d="M 486.5,503.5 C 487.833,504.167 487.833,504.167 486.5,503.5 Z"/></g>
<g><path style="opacity:0.004" fill="#b5b6b5" d="M 30.5,506.5 C 29.8333,505.167 29.8333,505.167 30.5,506.5 Z"/></g>
<g><path style="opacity:0.004" fill="#b3b4b3" d="M 67.5,505.5 C 68.8333,506.167 68.8333,506.167 67.5,505.5 Z"/></g>
<g><path style="opacity:0.004" fill="#b3b4b3" d="M 446.5,505.5 C 447.833,506.167 447.833,506.167 446.5,505.5 Z"/></g>
<g><path style="opacity:0.004" fill="#b5b6b5" d="M 485.5,505.5 C 486.833,506.167 486.833,506.167 485.5,505.5 Z"/></g>
<g><path style="opacity:0.004" fill="#b9bab9" d="M 30.5,506.5 C 31.8333,507.167 31.8333,507.167 30.5,506.5 Z"/></g>
<g><path style="opacity:0.004" fill="#abacab" d="M 65.5,506.5 C 66.8333,507.167 66.8333,507.167 65.5,506.5 Z"/></g>
<g><path style="opacity:0.004" fill="#abacab" d="M 449.5,506.5 C 448.833,507.167 448.833,507.167 449.5,506.5 Z"/></g>
<g><path style="opacity:0.004" fill="#b9bab9" d="M 483.5,506.5 C 484.833,507.167 484.833,507.167 483.5,506.5 Z"/></g>
<g><path style="opacity:0.004" fill="#959695" d="M 451.5,509.5 C 450.833,508.167 450.833,508.167 451.5,509.5 Z"/></g>
<g><path style="opacity:0.004" fill="#adaead" d="M 480.5,508.5 C 481.833,509.167 481.833,509.167 480.5,508.5 Z"/></g>
<g><path style="opacity:0.004" fill="#8e8f8e" d="M 36.5,509.5 C 35.8333,510.167 35.8333,510.167 36.5,509.5 Z"/></g>
<g><path style="opacity:0.32" fill="#bdbdbd" d="M 70.5,501.5 C 70.5,502.167 70.5,502.833 70.5,503.5C 67.715,502.916 66.0483,503.916 65.5,506.5C 63.5,506.5 62.5,507.5 62.5,509.5C 59.9899,509.054 57.9899,509.72 56.5,511.5C 51.1667,511.5 45.8333,511.5 40.5,511.5C 39.8166,509.824 38.4832,509.157 36.5,509.5C 36.4431,508.391 36.1098,507.391 35.5,506.5C 37.9237,507.03 40.257,507.864 42.5,509C 51.8103,510.677 59.8103,508.344 66.5,502C 67.7932,501.51 69.1266,501.343 70.5,501.5 Z"/></g>
<g><path style="opacity:0.004" fill="#797a79" d="M 62.5,509.5 C 63.8333,510.167 63.8333,510.167 62.5,509.5 Z"/></g>
<g><path style="opacity:0.004" fill="#797a79" d="M 451.5,509.5 C 452.833,510.167 452.833,510.167 451.5,509.5 Z"/></g>
<g><path style="opacity:0.32" fill="#c6c6c6" d="M 444.5,500.5 C 448.568,503.212 452.901,505.546 457.5,507.5C 464.488,508.502 471.488,508.502 478.5,507.5C 478.5,508.167 478.5,508.833 478.5,509.5C 476.62,509.229 475.287,509.896 474.5,511.5C 469.167,511.5 463.833,511.5 458.5,511.5C 455.487,509.981 452.487,508.314 449.5,506.5C 448.952,503.916 447.285,502.916 444.5,503.5C 444.5,502.5 444.5,501.5 444.5,500.5 Z"/></g>
<g><path style="opacity:0.004" fill="#8e8f8e" d="M 478.5,509.5 C 479.833,510.167 479.833,510.167 478.5,509.5 Z"/></g>
</svg>
