<svg xmlns="http://www.w3.org/2000/svg" width="100" height="100" style="shape-rendering:geometricPrecision;text-rendering:geometricPrecision;image-rendering:optimizeQuality;fill-rule:evenodd;clip-rule:evenodd"><path fill="#fefefe" d="M13.5 9.5q36.003-.25 72 .5 1.374.561 2.5 1.5a351 351 0 0 1 1.5 37l-.5 35a9.5 9.5 0 0 1-1.5 2.5 554 554 0 0 1-66 1L10 75.5a961 961 0 0 1 0-62q1.034-2.776 3.5-4m7 9h58v26h-58zm6 36q20.005-.25 40 .5 1.72 11.63.5 23.5L65.5 80a259 259 0 0 1-39-.5q-1.95-12.588 0-25" style="opacity:.943"/><path fill="#fefefe" d="M30.5 57.5h13v20h-13z" style="opacity:.937"/></svg>