<svg xmlns="http://www.w3.org/2000/svg" width="24" height="24" style="shape-rendering:geometricPrecision;text-rendering:geometricPrecision;image-rendering:optimizeQuality;fill-rule:evenodd;clip-rule:evenodd"><path fill="#fdfefd" d="M9.5-.5h4l1.5 3Q21.964-.024 20.5 7q.945 1.966 3 2.5v4a7.47 7.47 0 0 0-3 2q1.483 4.124-3 6-3.174-1.884-4 2h-4q-1.133-3.942-4.5-2-5.024-1.862-2.5-6.5l-3-1.5v-4a7.47 7.47 0 0 0 3-2q-2-7 5-5a7.47 7.47 0 0 0 2-3m0 9q6.988-.728 4 5.5-7.158 1.215-4-5.5" style="opacity:.962"/></svg>