<?xml version="1.0" encoding="UTF-8"?>
<!DOCTYPE svg PUBLIC "-//W3C//DTD SVG 1.1//EN" "http://www.w3.org/Graphics/SVG/1.1/DTD/svg11.dtd">
<svg xmlns="http://www.w3.org/2000/svg" version="1.1" width="2048px" height="2046px" style="shape-rendering:geometricPrecision; text-rendering:geometricPrecision; image-rendering:optimizeQuality; fill-rule:evenodd; clip-rule:evenodd" xmlns:xlink="http://www.w3.org/1999/xlink">
<g><path style="opacity:1" fill="#fefefe" d="M 926.5,-0.5 C 991.167,-0.5 1055.83,-0.5 1120.5,-0.5C 1191.93,10.7663 1243.77,48.7663 1276,113.5C 1285.9,135.445 1291.57,158.445 1293,182.5C 1293.33,203.167 1293.67,223.833 1294,244.5C 1302.98,266.246 1319.15,274.746 1342.5,270C 1344.5,269 1346.5,268 1348.5,267C 1364.47,252.029 1380.14,236.696 1395.5,221C 1445.51,178.407 1503.18,162.074 1568.5,172C 1606.36,178.932 1639.69,194.932 1668.5,220C 1709,260.5 1749.5,301 1790,341.5C 1833.12,393.657 1846.12,452.657 1829,518.5C 1822.77,539.952 1813.11,559.619 1800,577.5C 1790.37,588.799 1780.37,599.799 1770,610.5C 1754.81,634.514 1751.48,660.181 1760,687.5C 1771.37,721.87 1794.53,743.37 1829.5,752C 1907.79,747.901 1969.62,777.401 2015,840.5C 2033.94,869.822 2044.77,901.822 2047.5,936.5C 2047.5,993.833 2047.5,1051.17 2047.5,1108.5C 2038.81,1188.05 1998.15,1244.55 1925.5,1278C 1905.59,1285.98 1884.92,1290.65 1863.5,1292C 1847.5,1292.33 1831.5,1292.67 1815.5,1293C 1788.23,1301.27 1771.73,1319.44 1766,1347.5C 1763.12,1365.31 1767.12,1381.31 1778,1395.5C 1832.39,1445.34 1851.39,1506.34 1835,1578.5C 1827.69,1603.8 1815.69,1626.46 1799,1646.5C 1747.14,1698.69 1694.97,1750.53 1642.5,1802C 1588.89,1841.52 1530.55,1850.18 1467.5,1828C 1451.39,1821.12 1436.39,1812.45 1422.5,1802C 1412.5,1792.67 1402.5,1783.33 1392.5,1774C 1369.09,1761.13 1345.75,1761.47 1322.5,1775C 1307.46,1784.56 1297.96,1798.06 1294,1815.5C 1293.67,1831.17 1293.33,1846.83 1293,1862.5C 1285.67,1938.38 1248.17,1993.55 1180.5,2028C 1161.5,2036.49 1141.83,2042.33 1121.5,2045.5C 1056.17,2045.5 990.833,2045.5 925.5,2045.5C 862.83,2035.76 814.664,2004.09 781,1950.5C 759.587,1913.05 750.254,1872.72 753,1829.5C 745.327,1795.15 724.827,1771.98 691.5,1760C 664.75,1750.82 639.084,1753.15 614.5,1767C 602.5,1777.67 590.5,1788.33 578.5,1799C 517.25,1840.62 452.583,1846.62 384.5,1817C 368.958,1809.07 354.624,1799.4 341.5,1788C 301.333,1747.83 261.167,1707.67 221,1667.5C 174.023,1610.63 159.69,1546.3 178,1474.5C 187.054,1444.05 202.054,1417.05 223,1393.5C 238.362,1378.47 253.362,1363.14 268,1347.5C 276.22,1328.21 272.387,1311.71 256.5,1298C 252.719,1295.78 248.719,1294.11 244.5,1293C 220.482,1292.84 196.482,1292.17 172.5,1291C 106.036,1281.37 56.2024,1247.54 23,1189.5C 9.70277,1163.96 1.86944,1136.96 -0.5,1108.5C -0.5,1050.83 -0.5,993.167 -0.5,935.5C 8.48147,856.363 49.1481,800.196 121.5,767C 137.595,760.476 154.261,756.143 171.5,754C 190.479,752.845 209.479,752.178 228.5,752C 251.931,747.238 268.098,733.738 277,711.5C 285.199,689.305 282.532,668.638 269,649.5C 252.971,633.805 237.304,617.805 222,601.5C 172.973,536.657 161.639,465.657 188,388.5C 198.051,362.709 212.385,339.709 231,319.5C 261.5,289 292,258.5 322.5,228C 388.27,172.982 461.937,159.315 543.5,187C 564.899,195.526 584.566,206.86 602.5,221C 618.138,235.638 633.471,250.638 648.5,266C 662.227,278.102 678.227,282.769 696.5,280C 726.118,275.04 744.952,258.207 753,229.5C 747.573,173.869 760.573,123.203 792,77.5C 826.391,33.5524 871.225,7.5524 926.5,-0.5 Z M 1000.5,754.5 C 1093.27,749.652 1170.1,781.986 1231,851.5C 1294.6,934.771 1308.26,1025.77 1272,1124.5C 1227.83,1222.2 1152.33,1277.37 1045.5,1290C 953.045,1295 876.545,1262.84 816,1193.5C 757.877,1118.21 741.544,1034.55 767,942.5C 802.241,841.785 872.075,780.285 976.5,758C 984.645,756.818 992.645,755.652 1000.5,754.5 Z"/></g>
</svg>
