<?xml version="1.0" encoding="UTF-8"?>
<!DOCTYPE svg PUBLIC "-//W3C//DTD SVG 1.1//EN" "http://www.w3.org/Graphics/SVG/1.1/DTD/svg11.dtd">
<svg xmlns="http://www.w3.org/2000/svg" version="1.1" width="512px" height="512px" style="shape-rendering:geometricPrecision; text-rendering:geometricPrecision; image-rendering:optimizeQuality; fill-rule:evenodd; clip-rule:evenodd" xmlns:xlink="http://www.w3.org/1999/xlink">
<g><path style="opacity:1" fill="#fefefe" d="M 247.5,50.5 C 283.053,49.5537 303.053,66.7204 307.5,102C 303.268,136.901 283.601,153.901 248.5,153C 220.545,147.208 205.545,130.042 203.5,101.5C 206.126,73.8875 220.793,56.8875 247.5,50.5 Z"/></g>
<g><path style="opacity:1" fill="#fefefe" d="M 252.5,203.5 C 285.746,205.079 304.079,222.413 307.5,255.5C 304.5,287.167 287.167,304.5 255.5,307.5C 223.833,304.5 206.5,287.167 203.5,255.5C 206.219,225.119 222.552,207.786 252.5,203.5 Z"/></g>
<g><path style="opacity:1" fill="#fefefe" d="M 248.5,357.5 C 283.573,357.076 303.24,374.242 307.5,409C 302.28,447.105 280.614,463.772 242.5,459C 218.407,451.345 205.407,434.845 203.5,409.5C 205.734,380.943 220.734,363.61 248.5,357.5 Z"/></g>
</svg>
