<?xml version="1.0" encoding="UTF-8"?>
<!DOCTYPE svg PUBLIC "-//W3C//DTD SVG 1.1//EN" "http://www.w3.org/Graphics/SVG/1.1/DTD/svg11.dtd">
<svg xmlns="http://www.w3.org/2000/svg" version="1.1" width="813px" height="813px" style="shape-rendering:geometricPrecision; text-rendering:geometricPrecision; image-rendering:optimizeQuality; fill-rule:evenodd; clip-rule:evenodd" xmlns:xlink="http://www.w3.org/1999/xlink">
<g><path style="opacity:1" fill="#2d302e" d="M 360.5,-0.5 C 390.5,-0.5 420.5,-0.5 450.5,-0.5C 457.32,0.593876 464.32,1.42721 471.5,2C 509.459,9.13308 546.126,20.6331 581.5,36.5C 581.5,37.5 581.5,38.5 581.5,39.5C 584.167,39.8333 586.833,40.1667 589.5,40.5C 591.897,42.1948 594.563,43.5282 597.5,44.5C 597.833,45.5 598.5,46.1667 599.5,46.5C 605.507,48.9401 611.174,51.9401 616.5,55.5C 616.833,56.5 617.5,57.1667 618.5,57.5C 622.357,59.8392 626.357,62.0059 630.5,64C 640.479,70.9061 650.145,78.0727 659.5,85.5C 659.525,88.179 660.858,89.5123 663.5,89.5C 668.469,93.4618 673.469,97.4618 678.5,101.5C 680.167,105.167 682.833,107.833 686.5,109.5C 687.5,109.833 688.167,110.5 688.5,111.5C 689.5,114.5 691.5,116.5 694.5,117.5C 696.5,118.833 698.167,120.5 699.5,122.5C 699.5,124.5 700.5,125.5 702.5,125.5C 704.5,126.833 706.167,128.5 707.5,130.5C 707.833,131.5 708.5,132.167 709.5,132.5C 718.507,143.008 727.34,153.675 736,164.5C 737.611,167.073 739.111,169.739 740.5,172.5C 740.554,174.632 741.554,175.965 743.5,176.5C 744.167,177.5 744.833,178.5 745.5,179.5C 745.833,180.5 746.5,181.167 747.5,181.5C 753.677,192.008 760.011,202.508 766.5,213C 772.068,223.167 776.735,233.667 780.5,244.5C 780.932,245.71 781.599,246.71 782.5,247.5C 789.241,264.979 795.408,282.645 801,300.5C 803.671,313.261 806.337,325.927 809,338.5C 809.607,345.506 810.273,352.506 811,359.5C 811.278,360.416 811.778,361.082 812.5,361.5C 812.5,390.167 812.5,418.833 812.5,447.5C 811.778,447.918 811.278,448.584 811,449.5C 810.273,456.494 809.607,463.494 809,470.5C 806.337,483.073 803.671,495.739 801,508.5C 795.408,526.355 789.241,544.021 782.5,561.5C 781.599,562.29 780.932,563.29 780.5,564.5C 776.735,575.333 772.068,585.833 766.5,596C 760.011,606.492 753.677,616.992 747.5,627.5C 746.5,627.833 745.833,628.5 745.5,629.5C 745.047,630.458 744.381,631.292 743.5,632C 743.833,632.333 744.167,632.667 744.5,633C 742.627,634.704 740.96,636.537 739.5,638.5C 738.5,638.833 737.833,639.5 737.5,640.5C 736.91,641.766 736.41,643.099 736,644.5C 727.34,655.325 718.507,665.992 709.5,676.5C 708.5,676.833 707.833,677.5 707.5,678.5C 680.907,707.142 651.241,731.475 618.5,751.5C 617.5,751.833 616.833,752.5 616.5,753.5C 611.138,757.066 605.471,760.066 599.5,762.5C 598.5,762.833 597.833,763.5 597.5,764.5C 503.31,812.156 404.643,823.656 301.5,799C 271.082,790.231 241.749,778.731 213.5,764.5C 213.167,763.5 212.5,762.833 211.5,762.5C 208.608,761.606 205.941,760.272 203.5,758.5C 203.027,757.094 202.027,756.427 200.5,756.5C 198.5,755.5 196.5,754.5 194.5,753.5C 194.167,752.5 193.5,751.833 192.5,751.5C 188.643,749.161 184.643,746.994 180.5,745C 170.521,738.094 160.855,730.927 151.5,723.5C 151.512,720.858 150.179,719.525 147.5,719.5C 142.173,715.174 136.84,710.841 131.5,706.5C 129.5,702.5 126.5,699.5 122.5,697.5C 119.167,694.833 116.167,691.833 113.5,688.5C 111.833,684.833 109.167,682.167 105.5,680.5C 104.5,680.167 103.833,679.5 103.5,678.5C 103.167,677.5 102.5,676.833 101.5,676.5C 92.4935,665.992 83.6601,655.325 75,644.5C 74.5899,643.099 74.0899,641.766 73.5,640.5C 73.1667,639.5 72.5,638.833 71.5,638.5C 70.5,637.167 69.5,635.833 68.5,634.5C 68.017,630.192 66.017,626.859 62.5,624.5C 49.0127,606.067 38.346,586.067 30.5,564.5C 30.0679,563.29 29.4013,562.29 28.5,561.5C 21.7589,544.021 15.5923,526.355 10,508.5C 7.32936,495.739 4.66269,483.073 2,470.5C 1.54722,463.307 0.713884,456.307 -0.5,449.5C -0.5,419.5 -0.5,389.5 -0.5,359.5C 0.713884,352.693 1.54722,345.693 2,338.5C 4.66269,325.927 7.32936,313.261 10,300.5C 15.5923,282.645 21.7589,264.979 28.5,247.5C 29.4013,246.71 30.0679,245.71 30.5,244.5C 34.2651,233.667 38.9318,223.167 44.5,213C 50.9895,202.508 57.3228,192.008 63.5,181.5C 64.5,181.167 65.1667,180.5 65.5,179.5C 66.1667,178.5 66.8333,177.5 67.5,176.5C 69.2624,175.738 70.2624,174.404 70.5,172.5C 71.5572,169.923 72.8905,167.59 74.5,165.5C 76.8333,165.167 78.1667,163.833 78.5,161.5C 81.1265,157.863 83.7932,154.196 86.5,150.5C 88.5,150.5 89.5,149.5 89.5,147.5C 93.4697,142.524 97.4697,137.524 101.5,132.5C 102.5,132.167 103.167,131.5 103.5,130.5C 104.833,128.5 106.5,126.833 108.5,125.5C 110.5,125.5 111.5,124.5 111.5,122.5C 112.833,120.5 114.5,118.833 116.5,117.5C 119.5,116.5 121.5,114.5 122.5,111.5C 122.833,110.5 123.5,109.833 124.5,109.5C 128.167,107.833 130.833,105.167 132.5,101.5C 137.531,97.4618 142.531,93.4618 147.5,89.5C 149.833,89.1667 151.167,87.8333 151.5,85.5C 155.041,82.7886 158.707,80.2886 162.5,78C 163.167,77 163.833,76 164.5,75C 169.413,72.3858 174.08,69.5524 178.5,66.5C 180.5,66.5 181.5,65.5 181.5,63.5C 185.17,61.4951 188.836,59.4951 192.5,57.5C 193.5,57.1667 194.167,56.5 194.5,55.5C 196.711,54.8772 198.711,53.8772 200.5,52.5C 202.027,52.573 203.027,51.9063 203.5,50.5C 205.941,48.7277 208.608,47.3944 211.5,46.5C 212.5,46.1667 213.167,45.5 213.5,44.5C 216.437,43.5282 219.103,42.1948 221.5,40.5C 223.483,40.8432 224.817,40.1765 225.5,38.5C 261.957,21.3882 299.957,9.22156 339.5,2C 346.68,1.42721 353.68,0.593876 360.5,-0.5 Z"/></g>
<g><path style="opacity:0.576" fill="#8b8d8c" d="M 581.5,36.5 C 584.118,38.0325 586.784,39.3659 589.5,40.5C 586.833,40.1667 584.167,39.8333 581.5,39.5C 581.5,38.5 581.5,37.5 581.5,36.5 Z"/></g>
<g><path style="opacity:0.212" fill="#bebfbe" d="M 225.5,38.5 C 224.817,40.1765 223.483,40.8432 221.5,40.5C 222.671,39.6554 224.005,38.9887 225.5,38.5 Z"/></g>
<g><path style="opacity:0.014" fill="#fefffe" d="M 213.5,44.5 C 213.167,45.5 212.5,46.1667 211.5,46.5C 211.5,45.1667 212.167,44.5 213.5,44.5 Z"/></g>
<g><path style="opacity:0.014" fill="#fefffe" d="M 597.5,44.5 C 598.833,44.5 599.5,45.1667 599.5,46.5C 598.5,46.1667 597.833,45.5 597.5,44.5 Z"/></g>
<g><path style="opacity:0.204" fill="#b9bab9" d="M 203.5,50.5 C 203.027,51.9063 202.027,52.573 200.5,52.5C 200.973,51.0937 201.973,50.427 203.5,50.5 Z"/></g>
<g><path style="opacity:0.013" fill="#fefffe" d="M 194.5,55.5 C 194.167,56.5 193.5,57.1667 192.5,57.5C 192.5,56.1667 193.167,55.5 194.5,55.5 Z"/></g>
<g><path style="opacity:0.013" fill="#fefffe" d="M 616.5,55.5 C 617.833,55.5 618.5,56.1667 618.5,57.5C 617.5,57.1667 616.833,56.5 616.5,55.5 Z"/></g>
<g><path style="opacity:0.216" fill="#a3a4a4" d="M 181.5,63.5 C 181.5,65.5 180.5,66.5 178.5,66.5C 179.167,65.1667 180.167,64.1667 181.5,63.5 Z"/></g>
<g><path style="opacity:0.216" fill="#a1a2a1" d="M 151.5,85.5 C 151.167,87.8333 149.833,89.1667 147.5,89.5C 148.5,87.8333 149.833,86.5 151.5,85.5 Z"/></g>
<g><path style="opacity:0.831" fill="#808281" d="M 659.5,85.5 C 661.167,86.5 662.5,87.8333 663.5,89.5C 660.858,89.5123 659.525,88.179 659.5,85.5 Z"/></g>
<g><path style="opacity:0.227" fill="#b8b9b8" d="M 678.5,101.5 C 681.5,103.833 684.167,106.5 686.5,109.5C 682.833,107.833 680.167,105.167 678.5,101.5 Z"/></g>
<g><path style="opacity:0.231" fill="#a4a5a4" d="M 132.5,101.5 C 130.833,105.167 128.167,107.833 124.5,109.5C 126.833,106.5 129.5,103.833 132.5,101.5 Z"/></g>
<g><path style="opacity:0.235" fill="#b9bab9" d="M 688.5,111.5 C 690.833,113.167 692.833,115.167 694.5,117.5C 691.5,116.5 689.5,114.5 688.5,111.5 Z"/></g>
<g><path style="opacity:0.235" fill="#adaeae" d="M 122.5,111.5 C 121.5,114.5 119.5,116.5 116.5,117.5C 118.167,115.167 120.167,113.167 122.5,111.5 Z"/></g>
<g><path style="opacity:0.235" fill="#bababa" d="M 699.5,122.5 C 700.833,123.167 701.833,124.167 702.5,125.5C 700.5,125.5 699.5,124.5 699.5,122.5 Z"/></g>
<g><path style="opacity:0.235" fill="#acadac" d="M 111.5,122.5 C 111.5,124.5 110.5,125.5 108.5,125.5C 109.167,124.167 110.167,123.167 111.5,122.5 Z"/></g>
<g><path style="opacity:0.012" fill="#fefffe" d="M 103.5,130.5 C 103.167,131.5 102.5,132.167 101.5,132.5C 101.5,131.167 102.167,130.5 103.5,130.5 Z"/></g>
<g><path style="opacity:0.012" fill="#fefffe" d="M 707.5,130.5 C 708.833,130.5 709.5,131.167 709.5,132.5C 708.5,132.167 707.833,131.5 707.5,130.5 Z"/></g>
<g><path style="opacity:0.227" fill="#a9aaa9" d="M 89.5,147.5 C 89.5,149.5 88.5,150.5 86.5,150.5C 87.1667,149.167 88.1667,148.167 89.5,147.5 Z"/></g>
<g><path style="opacity:0.22" fill="#a2a3a2" d="M 78.5,161.5 C 78.1667,163.833 76.8333,165.167 74.5,165.5C 75.5,163.833 76.8333,162.5 78.5,161.5 Z"/></g>
<g><path style="opacity:0.204" fill="#9d9e9e" d="M 70.5,172.5 C 70.2624,174.404 69.2624,175.738 67.5,176.5C 67.3723,174.871 68.3723,173.538 70.5,172.5 Z"/></g>
<g><path style="opacity:0.82" fill="#7d7f7e" d="M 740.5,172.5 C 742.628,173.538 743.628,174.871 743.5,176.5C 741.554,175.965 740.554,174.632 740.5,172.5 Z"/></g>
<g><path style="opacity:0.013" fill="#fefffe" d="M 65.5,179.5 C 65.1667,180.5 64.5,181.167 63.5,181.5C 63.5,180.167 64.1667,179.5 65.5,179.5 Z"/></g>
<g><path style="opacity:0.013" fill="#fefffe" d="M 745.5,179.5 C 746.833,179.5 747.5,180.167 747.5,181.5C 746.5,181.167 745.833,180.5 745.5,179.5 Z"/></g>
<g><path style="opacity:1" fill="#fe0000" d="M 287.5,191.5 C 292.483,191.412 297.149,192.579 301.5,195C 413.52,259.699 525.52,324.366 637.5,389C 642.116,391.56 646.282,394.727 650,398.5C 652.204,404.158 651.537,409.491 648,414.5C 643.833,417.333 639.667,420.167 635.5,423C 523.5,487.667 411.5,552.333 299.5,617C 286.103,622.885 278.27,618.719 276,604.5C 275.333,471.833 275.333,339.167 276,206.5C 276.037,198.368 279.87,193.368 287.5,191.5 Z"/></g>
<g><path style="opacity:0.013" fill="#fefffe" d="M 30.5,244.5 C 30.0679,245.71 29.4013,246.71 28.5,247.5C 28.2852,245.821 28.9519,244.821 30.5,244.5 Z"/></g>
<g><path style="opacity:0.013" fill="#fefffe" d="M 780.5,244.5 C 782.048,244.821 782.715,245.821 782.5,247.5C 781.599,246.71 780.932,245.71 780.5,244.5 Z"/></g>
<g><path style="opacity:0.013" fill="#fefffe" d="M 28.5,561.5 C 29.4013,562.29 30.0679,563.29 30.5,564.5C 28.9519,564.179 28.2852,563.179 28.5,561.5 Z"/></g>
<g><path style="opacity:0.013" fill="#fefffe" d="M 782.5,561.5 C 782.715,563.179 782.048,564.179 780.5,564.5C 780.932,563.29 781.599,562.29 782.5,561.5 Z"/></g>
<g><path style="opacity:0.804" fill="#6a6c6b" d="M 62.5,624.5 C 66.017,626.859 68.017,630.192 68.5,634.5C 67.7161,632.971 66.7161,631.304 65.5,629.5C 65.1667,628.5 64.5,627.833 63.5,627.5C 63.4431,626.391 63.1098,625.391 62.5,624.5 Z"/></g>
<g><path style="opacity:0.013" fill="#fefffe" d="M 63.5,627.5 C 64.5,627.833 65.1667,628.5 65.5,629.5C 64.1667,629.5 63.5,628.833 63.5,627.5 Z"/></g>
<g><path style="opacity:0.013" fill="#fefffe" d="M 747.5,627.5 C 747.5,628.833 746.833,629.5 745.5,629.5C 745.833,628.5 746.5,627.833 747.5,627.5 Z"/></g>
<g><path style="opacity:0.017" fill="#fefffe" d="M 71.5,638.5 C 72.5,638.833 73.1667,639.5 73.5,640.5C 72.1667,640.5 71.5,639.833 71.5,638.5 Z"/></g>
<g><path style="opacity:0.017" fill="#fefffe" d="M 739.5,638.5 C 739.5,639.833 738.833,640.5 737.5,640.5C 737.833,639.5 738.5,638.833 739.5,638.5 Z"/></g>
<g><path style="opacity:0.012" fill="#fefffe" d="M 101.5,676.5 C 102.5,676.833 103.167,677.5 103.5,678.5C 102.167,678.5 101.5,677.833 101.5,676.5 Z"/></g>
<g><path style="opacity:0.012" fill="#fefffe" d="M 709.5,676.5 C 709.5,677.833 708.833,678.5 707.5,678.5C 707.833,677.5 708.5,676.833 709.5,676.5 Z"/></g>
<g><path style="opacity:0.239" fill="#babbba" d="M 105.5,680.5 C 109.167,682.167 111.833,684.833 113.5,688.5C 110.5,686.167 107.833,683.5 105.5,680.5 Z"/></g>
<g><path style="opacity:0.231" fill="#b8b9b9" d="M 122.5,697.5 C 126.5,699.5 129.5,702.5 131.5,706.5C 128.167,703.833 125.167,700.833 122.5,697.5 Z"/></g>
<g><path style="opacity:0.831" fill="#808281" d="M 147.5,719.5 C 150.179,719.525 151.512,720.858 151.5,723.5C 149.833,722.5 148.5,721.167 147.5,719.5 Z"/></g>
<g><path style="opacity:0.013" fill="#fefffe" d="M 192.5,751.5 C 193.5,751.833 194.167,752.5 194.5,753.5C 193.167,753.5 192.5,752.833 192.5,751.5 Z"/></g>
<g><path style="opacity:0.013" fill="#fefffe" d="M 618.5,751.5 C 618.5,752.833 617.833,753.5 616.5,753.5C 616.833,752.5 617.5,751.833 618.5,751.5 Z"/></g>
<g><path style="opacity:0.004" fill="#dbdcdb" d="M 200.5,756.5 C 202.027,756.427 203.027,757.094 203.5,758.5C 201.973,758.573 200.973,757.906 200.5,756.5 Z"/></g>
<g><path style="opacity:0.014" fill="#fefffe" d="M 211.5,762.5 C 212.5,762.833 213.167,763.5 213.5,764.5C 212.167,764.5 211.5,763.833 211.5,762.5 Z"/></g>
<g><path style="opacity:0.014" fill="#fefffe" d="M 599.5,762.5 C 599.5,763.833 598.833,764.5 597.5,764.5C 597.833,763.5 598.5,762.833 599.5,762.5 Z"/></g>
</svg>
