<svg xmlns="http://www.w3.org/2000/svg" width="75" height="75" style="shape-rendering:geometricPrecision;text-rendering:geometricPrecision;image-rendering:optimizeQuality;fill-rule:evenodd;clip-rule:evenodd"><path fill="#fdfdfd" d="M18.5-.5h1q1.008 1.15 2.5 2a38.1 38.1 0 0 1-.5 15q-2.806 1.9-5.5 0-1-7.5 0-15 1.492-.85 2.5-2" style="opacity:.835"/><path fill="#fcfcfc" d="M45.5-.5h1q3.744 3.804 3 9.5l-.5 6.5q-4.26 4.305-7-1-1-6 0-12 1.478-1.971 3.5-3" style="opacity:.842"/><path fill="#fdfdfd" d="M-.5 65.5v-56q5.157-4.34 12-2.5A62 62 0 0 1 13 17.5q6 6 12 0a61 61 0 0 0 .5-11h13q-.718 6.617 2 12.5 6.14 3.476 11-1.5a34.3 34.3 0 0 0 1-11q5.025-.247 10 .5L65 9.5q.75 12.49.5 25-2.436.21-3.5-2-1.137-3.404.5-6.5-29.995-.75-60-.5-.69 19.15 1.5 38A544 544 0 0 0 36.5 65a7.25 7.25 0 0 1 2 2.5 216.6 216.6 0 0 1-36 .5 10.5 10.5 0 0 0-3-2.5" style="opacity:.89"/><path fill="#fcfcfc" d="M9.5 31.5a61 61 0 0 1 11 .5q4.068 15.02-11 9.5-1.875-5.06 0-10" style="opacity:.895"/><path fill="#fbfbfb" d="M26.5 31.5a72.4 72.4 0 0 1 12 .5q3.876 14.859-11 9.5a11.4 11.4 0 0 1-2-2.5q1.402-3.57 1-7.5" style="opacity:.899"/><path fill="#fcfcfc" d="M44.5 31.5q6.082-.486 12 1-1.04 3.317-3.5 1a34.4 34.4 0 0 0-7.5 3q-1.428-2.318-1-5" style="opacity:.692"/><path fill="#fcfcfc" d="M71.5 48.5a18.4 18.4 0 0 1-6-.5q-2-1.5 0-3-10.252-7.328-19.5 1.5-8.502 15.49 7.5 23 1.393 1.783 1 4-17.16-3.424-15.5-21Q43.894 35.635 61.5 38q3.8.774 6.5 3.5a7.25 7.25 0 0 1 2.5-2q4.22 4.29 1 9" style="opacity:.803"/><path fill="#fcfcfc" d="M55.5 45.5q3.771.38 7 2.5.699 1.948 0 4.5-2.55-.24-5 .5 8.157.668 5.5 8.5-3.054 2.565-6 5-2.223-2.418-5.5-3v-5a4.93 4.93 0 0 0 3-.5q-3.024-1.542-3-5a59 59 0 0 1 4-7.5" style="opacity:.833"/><path fill="#f4f4f4" d="M27.5 47.5q4.283-1.954 9 0-.186.91-1 1-3.672-1.46-8-1" style="opacity:.18"/><path fill="#fcfcfc" d="M9.5 46.5a61 61 0 0 1 11 .5q1.676 4.61.5 9.5-16.318 6.207-11.5-10" style="opacity:.896"/><path fill="#fdfdfd" d="M27.5 47.5q4.328-.46 8 1a105 105 0 0 1-1 9q-13.665.932-7-10" style="opacity:.845"/><path fill="#fbfbfb" d="M71.5 48.5a5.73 5.73 0 0 1 3 1v7q-5.952-2.19-3-8" style="opacity:.762"/><path fill="#fbfbfb" d="M74.5 57.5v5q-2.928 4.108-5-.5.439-4.68 5-4.5" style="opacity:.702"/><path fill="#fbfbfb" d="M66.5 65.5h4q-.142 4.158-4 6-3.75-2.843 0-6" style="opacity:.796"/><path fill="#fbfbfb" d="M58.5 74.5h-1q-1.95-1.651-1.5-4 3.061-1.384 6.5-1v4q-2.398-.401-4 1" style="opacity:.703"/></svg>