<?xml version="1.0" encoding="UTF-8"?>
<!DOCTYPE svg PUBLIC "-//W3C//DTD SVG 1.1//EN" "http://www.w3.org/Graphics/SVG/1.1/DTD/svg11.dtd">
<svg xmlns="http://www.w3.org/2000/svg" version="1.1" width="512px" height="512px" style="shape-rendering:geometricPrecision; text-rendering:geometricPrecision; image-rendering:optimizeQuality; fill-rule:evenodd; clip-rule:evenodd" xmlns:xlink="http://www.w3.org/1999/xlink">
<g><path style="opacity:0.999" fill="#d7dee2" d="M 343.5,39.5 C 343.333,68.5019 343.5,97.5019 344,126.5C 346.929,135.096 352.763,140.596 361.5,143C 382.164,143.5 402.831,143.667 423.5,143.5C 423.5,194.167 423.5,244.833 423.5,295.5C 314.167,295.5 204.833,295.5 95.5,295.5C 95.5,279.5 95.5,263.5 95.5,247.5C 95.3333,184.166 95.5,120.832 96,57.5C 98.5,48.3333 104.333,42.5 113.5,40C 190.166,39.5 266.833,39.3333 343.5,39.5 Z"/></g>
<g><path style="opacity:1" fill="#afbdc7" d="M 343.5,39.5 C 345.308,39.4914 346.975,39.9914 348.5,41C 372.667,73.1667 396.833,105.333 421,137.5C 422.122,139.407 422.955,141.407 423.5,143.5C 402.831,143.667 382.164,143.5 361.5,143C 352.763,140.596 346.929,135.096 344,126.5C 343.5,97.5019 343.333,68.5019 343.5,39.5 Z"/></g>
<g><path style="opacity:1" fill="#040404" d="M 163.5,135.5 C 200.502,135.333 237.502,135.5 274.5,136C 278.277,138.911 279.444,142.744 278,147.5C 276.786,149.049 275.286,150.215 273.5,151C 237.167,151.667 200.833,151.667 164.5,151C 159.931,148.459 158.431,144.625 160,139.5C 161.376,138.295 162.542,136.962 163.5,135.5 Z"/></g>
<g><path style="opacity:1" fill="#050505" d="M 163.5,183.5 C 227.168,183.333 290.834,183.5 354.5,184C 358.277,186.911 359.444,190.744 358,195.5C 356.786,197.049 355.286,198.215 353.5,199C 290.5,199.667 227.5,199.667 164.5,199C 158.273,194.239 157.94,189.073 163.5,183.5 Z"/></g>
<g><path style="opacity:1" fill="#060707" d="M 163.5,231.5 C 227.168,231.333 290.834,231.5 354.5,232C 357.516,233.529 358.849,236.029 358.5,239.5C 358.664,243.177 356.997,245.677 353.5,247C 290.5,247.667 227.5,247.667 164.5,247C 158.273,242.239 157.94,237.073 163.5,231.5 Z"/></g>
<g><path style="opacity:0.998" fill="#216896" d="M 95.5,247.5 C 95.5,263.5 95.5,279.5 95.5,295.5C 84.7551,295.929 74.0885,295.429 63.5,294C 55.4921,290.497 50.1588,284.664 47.5,276.5C 46.0779,262.155 52.0779,252.655 65.5,248C 75.4944,247.5 85.4944,247.334 95.5,247.5 Z"/></g>
<g><path style="opacity:1" fill="#2d98db" d="M 47.5,276.5 C 50.1588,284.664 55.4921,290.497 63.5,294C 74.0885,295.429 84.7551,295.929 95.5,295.5C 204.833,295.5 314.167,295.5 423.5,295.5C 431.917,295.094 440.251,295.594 448.5,297C 455.149,300.314 459.649,305.481 462,312.5C 462.667,359.5 462.667,406.5 462,453.5C 459.649,460.519 455.149,465.686 448.5,469C 320.556,470.661 192.556,470.995 64.5,470C 55.9304,467.096 50.4304,461.263 48,452.5C 47.5,393.834 47.3333,335.168 47.5,276.5 Z"/></g>
<g><path style="opacity:1" fill="#d6dee2" d="M 156.5,423.5 C 156.5,399.167 156.5,374.833 156.5,350.5C 148.5,350.5 140.5,350.5 132.5,350.5C 127.508,348.517 125.675,344.85 127,339.5C 128.167,338.333 129.333,337.167 130.5,336C 152.833,335.333 175.167,335.333 197.5,336C 203.729,340.171 204.062,344.837 198.5,350C 189.84,350.5 181.173,350.666 172.5,350.5C 172.667,375.169 172.5,399.836 172,424.5C 170.02,429.906 166.186,431.739 160.5,430C 158.266,428.362 156.933,426.195 156.5,423.5 Z"/></g>
<g><path style="opacity:1" fill="#d5dee2" d="M 216.5,335.5 C 219.649,335.211 222.649,335.711 225.5,337C 235.333,348.167 245.167,359.333 255,370.5C 264.833,359.5 274.667,348.5 284.5,337.5C 294.542,333.282 298.708,336.616 297,347.5C 286.446,359.05 276.279,370.883 266.5,383C 276.279,395.117 286.446,406.95 297,418.5C 298.846,429.16 294.68,432.66 284.5,429C 274.784,417.74 264.951,406.573 255,395.5C 245.167,406.667 235.333,417.833 225.5,429C 216.406,432.235 212.239,429.068 213,419.5C 223.126,407.038 233.626,394.872 244.5,383C 233.626,371.128 223.126,358.962 213,346.5C 211.662,341.96 212.829,338.293 216.5,335.5 Z"/></g>
<g><path style="opacity:1" fill="#d5dde2" d="M 338.5,424.5 C 338.5,399.833 338.5,375.167 338.5,350.5C 330.167,350.5 321.833,350.5 313.5,350.5C 308.891,348.275 307.391,344.609 309,339.5C 309.833,338 311,336.833 312.5,336C 334.833,335.333 357.167,335.333 379.5,336C 383.212,338.513 384.378,342.013 383,346.5C 382.5,348.333 381.333,349.5 379.5,350C 371.173,350.5 362.84,350.666 354.5,350.5C 354.667,375.169 354.5,399.836 354,424.5C 351.163,430.542 346.663,432.042 340.5,429C 339.418,427.67 338.751,426.17 338.5,424.5 Z"/></g>
<g><path style="opacity:1" fill="#5baadd" d="M 132.5,350.5 C 140.5,350.5 148.5,350.5 156.5,350.5C 156.5,374.833 156.5,399.167 156.5,423.5C 155.502,399.672 155.169,375.672 155.5,351.5C 147.648,351.825 139.982,351.492 132.5,350.5 Z"/></g>
<g><path style="opacity:1" fill="#79b7de" d="M 313.5,350.5 C 321.833,350.5 330.167,350.5 338.5,350.5C 338.5,375.167 338.5,399.833 338.5,424.5C 337.502,400.339 337.169,376.006 337.5,351.5C 329.316,351.826 321.316,351.492 313.5,350.5 Z"/></g>
</svg>
