<svg xmlns="http://www.w3.org/2000/svg" width="192" height="192" style="shape-rendering:geometricPrecision;text-rendering:geometricPrecision;image-rendering:optimizeQuality;fill-rule:evenodd;clip-rule:evenodd"><path fill="#090a0a" d="M-.5-.5h192v192H-.5z" style="opacity:1"/><path fill="#0a3150" d="M66.5 44.5q24.006-.25 48 .5A133 133 0 0 1 133 61.5a714 714 0 0 1 1 75q-4.488 7.97-13.5 10.5a676 676 0 0 1-52 0q-9.29-3.289-12.5-12.5-1-39 0-78 3.975-7.216 10.5-12" style="opacity:1"/><path fill="#318bb4" d="M111.5 48.5q4.93 1.146 8 5.5-1 1-2 0a20 20 0 0 0-4-3.5 43.1 43.1 0 0 0-1 13q-1.481-7.207-1-15" style="opacity:1"/><path fill="#e1e6e7" d="M111.5 48.5q-.481 7.793 1 15 .87 3.373 4 5v1a121 121 0 0 0 14 12v51q-1.518 7.77-9 10.5a676 676 0 0 1-52 0q-7.392-2.89-9.5-10.5-1-37.5 0-75 2.163-5.662 7.5-8.5a968 968 0 0 1 44-.5" style="opacity:1"/><path fill="#c4e7f5" d="M122.5 62.5q-3.377 2.047-6-1v-4q5.774-.72 6 5" style="opacity:1"/><path fill="#184a68" d="M70.5 56.5q10.107.842 5 9.5-12.704.796-5-9.5" style="opacity:1"/><path fill="#d8e6ea" d="M70.5 60.5h4v3h-4z" style="opacity:1"/><path fill="#0f243d" d="M106.5 85.5a139.5 139.5 0 0 1-1.5-22q-1.098-3.635-4.5-3.5.834.575 1 1.5-4.596-2.764-10-1.5a14.7 14.7 0 0 0-3 3.5q-.814.09-1 1a57.1 57.1 0 0 0 15 1l1 2h-17v4h17q-8.14 2.469-17 3v3h17q-5.087 2.438-11 3h-6v3h-3q-.25-10.013.5-20 7.469-11.235 19.5-4.5a36 36 0 0 1 3.5 4.5q1.233 11.268-.5 22" style="opacity:1"/><path fill="#edeff1" d="m101.5 61.5 1 2q-7 2-14 0 1.185-1.94 3-3.5 5.404-1.264 10 1.5" style="opacity:1"/><path fill="#0d4f85" d="M116.5 61.5q2.623 3.047 6 1 2.17 1.67 5 .5l-5-5q4.928 1.635 8 6.5a49.9 49.9 0 0 1-14 1z" style="opacity:1"/><path fill="#78828a" d="M88.5 63.5q7 2 14 0 2 1 0 2a57.1 57.1 0 0 1-15-1q.186-.91 1-1" style="opacity:1"/><path fill="#f6fafb" d="M103.5 68.5v2q-32-1 0-2" style="opacity:1"/><path fill="#bacbd2" d="M116.5 69.5h14v12a121 121 0 0 1-14-12" style="opacity:1"/><path fill="#989ea2" d="M103.5 67.5v1q-32 1 0 2v1h-17v-4z" style="opacity:1"/><path fill="#dee4e7" d="M86.5 74.5h17v3h-17z" style="opacity:1"/><path fill="#162f43" d="M106.5 85.5q-3.943 11.425-16 8.5-5.578-3.918-7-10.5h20v-3h-11q5.913-.562 11-3v-3h-17q8.86-.531 17-3v-4l-1-2q2-1 0-2l-1-2q-.166-.925-1-1.5 3.402-.135 4.5 3.5a139.5 139.5 0 0 0 1.5 22" style="opacity:1"/><path fill="#1b2c42" d="M75.5 75.5h4q-2.468 23.775 21 22.5 13.25-7.252 11-22.5h3q3.105 20.313-16 27a273 273 0 0 0-1 33h-4v-33q-14.175-1.918-17.5-16a61 61 0 0 1-.5-11" style="opacity:1"/><path fill="#cfd7d8" d="M88.5 87.5q6.274-1.966 13 0-6.485 5.997-13 0" style="opacity:1"/><path fill="#ccd4d8" d="M92.5 80.5h11v3h-17v-3z" style="opacity:1"/><path fill="#53677a" d="M116.5 69.5v-1h15q.496 32.26-1 64v-63z" style="opacity:1"/><path fill="#14243c" d="M78.5 102.5h3v33h-3z" style="opacity:1"/><path fill="#182439" d="M113.5 108.5h3v21h-3z" style="opacity:1"/><path fill="#010025" d="M74.5 109.5q1.977 4.137 2 9.5l-1 9.5a91 91 0 0 1-1-19" style="opacity:1"/><path fill="#1c2947" d="M84.5 108.5q2.945 10.386 2 22h-3q-.446-11.13 1-22" style="opacity:1"/><path fill="#192b43" d="M88.5 112.5q1.495-.128 2.5 1 1.392 6.78-1 13-2.155-6.708-1.5-14" style="opacity:1"/><path fill="#000010" d="M99.5 113.5q1.916 1.79 2 5l-1 5a25.9 25.9 0 0 1-1-10" style="opacity:1"/><path fill="#1b2b3b" d="M69.5 112.5q1.495-.128 2.5 1 1.183 5.386-.5 10.5l-1 .5q-1.393-1.783-1-4h-3v-3h3z" style="opacity:1"/><path fill="#001631" d="M111.5 103.5q.964 16.578-2 32-.25-15.508.5-31 .575-.834 1.5-1" style="opacity:1"/><path fill="#061627" d="M106.5 128.5q-2.466-7.635-3-16v-3h3z" style="opacity:1"/><path fill="#050810" d="M122.5 117.5q5.185.25 1 3-1.329-1.238-1-3" style="opacity:1"/><path fill="#010825" d="M118.5 112.5q1.95 2.585 2 6.5l-1 6.5a43.1 43.1 0 0 1-1-13" style="opacity:1"/><path fill="#32414e" d="M111.5 103.5q-.925.166-1.5 1a481 481 0 0 0-.5 31q-1.492-16.231-1-33 1.936-.356 3 1" style="opacity:1"/><path fill="#555f66" d="M103.5 112.5q.534 8.365 3 16-1.064 1.356-3 1z" style="opacity:1"/></svg>